<ttFont>
<head>
    <!-- Most of this table will be recalculated by the compiler -->
    <tableVersion value="1.0"/>
    <fontRevision value="2.004"/>
    <checkSumAdjustment value="0x2792071e"/>
    <magicNumber value="0x5f0f3cf5"/>
    <flags value="00000000 00000011"/>
    <unitsPerEm value="1000"/>
    <created value="Thu Oct  8 10:00:49 2009"/>
    <modified value="Thu Oct  8 10:00:49 2009"/>
    <xMin value="-432"/>
    <yMin value="-264"/>
    <xMax value="1563"/>
    <yMax value="1143"/>
    <macStyle value="00000000 00000010"/>
    <lowestRecPPEM value="3"/>
    <fontDirectionHint value="2"/>
    <indexToLocFormat value="0"/>
    <glyphDataFormat value="0"/>
  </head>
          <CharString index="0">
            605 25 rmoveto
            0 1 3 -2 11 vhcurveto
            -62 617 rlineto
            38 -3 -25 0 -20 hhcurveto
            -57 hlineto
            -18 -27 0 -37 -20 hvcurveto
            -324 -616 59 callsubr
            -4 rlinecurve
            -25 -5 24 0 14 hhcurveto
            16 hlineto
            44 10 18 22 12 hvcurveto
            69 131 rlineto
            242 hlineto
            11 -107 rlineto
            -51 5 2 -13 44 hhcurveto
            34 hlineto
            14 24 0 25 5 hvcurveto
            -146 221 rmoveto
            -196 hlineto
            99 193 31 60 30 59 10 30 rlinecurve
            1 hlineto
            -2 -38 7 -82 4 -37 rrcurveto
            return
          </CharString>
          <CharString index="1">
            716 342 rmoveto
            9 43 22 115 -36 88 rrcurveto
            110 -46 -106 15 -59 hhcurveto
            -95 -94 -39 -71 -64 hvcurveto
            -49 -55 -44 -74 -28 -132 -19 -87 -10 -106 52 -81 rrcurveto
            -52 34 69 -35 92 hhcurveto
            70 91 21 70 74 hvcurveto
            84 79 35 107 18 84 rrcurveto
            -119 16 rmoveto
            -13 -63 -18 -73 -42 -66 rrcurveto
            -88 -57 -71 -15 -37 hhcurveto
            -38 -64 16 88 -19 hvcurveto
            -12 59 8 62 17 80 11 49 18 89 51 65 rrcurveto
            65 50 62 17 42 hhcurveto
            31 66 -10 -77 23 hvcurveto
            20 -64 -16 -77 -12 -57 rrcurveto
            return
          </CharString>
          <CharString index="2">
            159 callgsubr
            210 callgsubr
            -23 hlineto
            -35 -11 174 callsubr
            -247 rlineto
            -65 -13 -41 -73 -67 hhcurveto
            -52 -4 19 60 13 hvcurveto
            65 306 -26 callgsubr
            -22 hlineto
            -35 -12 -9 -36 -7 hvcurveto
            -64 -298 rlineto
            -102 -21 40 -37 98 hhcurveto
            20 62 0 85 56 hvcurveto
            -7 -31 -69 callgsubr
            return
          </CharString>
          <CharString index="3">
            hlineto
            35 11 -81 callgsubr
            return
          </CharString>
          <CharString index="4">
            hintmask 10010000
            469 275 rmoveto
            137 30 -48 75 -116 hhcurveto
            -88 -128 -50 -198 -42 hvcurveto
            -195 -42 108 -54 98 hhcurveto
            37 33 8 14 34 hvcurveto
            20 9 50 25 4 19 rrcurveto
            hintmask 01110000
            2 8 2 19 9 vvcurveto
            19 2 1 5 -10 hhcurveto
            -5 -4 -3 -6 -6 hvcurveto
            -56 -59 -63 -6 -21 hhcurveto
            -118 32 148 30 6 hvcurveto
            238 hlineto
            32 14 7 36 7 hvcurveto
            -85 4 rmoveto
            -195 hlineto
            72 20 44 72 69 hhcurveto
            87 -16 -93 -51 -9 hvcurveto
            return
          </CharString>
          <CharString index="5">
            hstemhm
            hintmask 10100000
            497 232 rmoveto
            10 47 12 79 -34 59 rrcurveto
            55 -32 -61 15 -51 hhcurveto
            -55 -69 -18 -54 -52 hvcurveto
            -52 -54 -25 -67 -13 -62 -11 -54 -8 -68 34 -56 rrcurveto
            -37 24 50 -27 71 hhcurveto
            44 68 11 51 56 hvcurveto
            149 callgsubr
            hintmask 01010000
            -67 -14 -25 -117 -100 hhcurveto
            -100 25 117 67 14 hvcurveto
            67 14 24 112 100 hhcurveto
            100 -24 -113 -66 -14 hvcurveto
            return
          </CharString>
          <CharString index="6">
            -91 callsubr
            -21 callgsubr
            -96 callsubr
            return
          </CharString>
          <CharString index="7">
            46 callgsubr
            -24 4 -29 hhcurveto
            -34 -35 -18 -29 -25 55 callsubr
            6 -40 2 -3 3 -3 rlineto
            4 hlineto
            3 hlineto
            2 107 callgsubr
            1 132 callgsubr
            133 callgsubr
            6 99 callsubr
            -1 -8 -3 -16 193 callsubr
            -4 39 callsubr
            -2 4 -5 6 hhcurveto
            14 hlineto
            6 6 5 6 2 hvcurveto
            4 19 4 22 20 16 callsubr
          </CharString>
          <CharString index="8">
            rmoveto
            5 10 6 17 -19 hhcurveto
            -127 hlineto
            -148 -103 rlineto
            -8 -11 2 -10 12 hhcurveto
            67 hlineto
            endchar
          </CharString>
          <CharString index="9">
            rmoveto
            -66 137 rlineto
            3 -1 -3 1 -4 hhcurveto
            -111 hlineto
            -4 -3 -1 -3 -3 hvcurveto
            -127 -139 rlineto
            -8 -7 3 -11 10 hhcurveto
            47 hlineto
            0 4 1 2 1 vhcurveto
            119 101 77 -101 rlineto
            2 -1 4 -1 0 vvcurveto
            47 hlineto
            10 7 13 8 -3 hvcurveto
            return
          </CharString>
          <CharString index="10">
            503 447 rmoveto
            25 5 -22 0 -20 hhcurveto
            -29 -19 0 -40 -19 hvcurveto
            -65 -129 -53 -107 -20 -54 -7 -24 rlinecurve
            4 22 8 45 -35 214 rrcurveto
            62 -10 -2 11 -46 hhcurveto
            -12 hlineto
            -15 -22 0 -24 -5 hvcurveto
            0 -1 -5 2 -13 vhcurveto
            71 -416 rlineto
            1 -12 0 -3 0 vvcurveto
            -2 -10 -28 -50 -9 -11 rrcurveto
            -14 -11 -24 -20 -33 hhcurveto
            -7 -22 1 13 -26 hvcurveto
            -4 2 -2 1 0 vvcurveto
            -7 -6 -4 -10 -2 hvcurveto
            -2 -8 -7 -52 5 -4 rrcurveto
            -6 6 38 -4 20 hhcurveto
            78 66 57 69 36 hvcurveto
            245 479 rlineto
            8 15 1 4 0 vvcurveto
            return
          </CharString>
          <CharString index="11">
            rlineto
            -90 callsubr
            return
          </CharString>
          <CharString index="12">
            -21 callsubr
            -16 -47 callgsubr
            -115 -544 rlineto
            -1 hlineto
            -4 39 -5 17 -10 50 -95 442 rcurveline
            33 -7 -12 7 -35 hhcurveto
            -72 -48 callgsubr
            116 544 rlineto
            1 hlineto
            4 -39 4 -17 10 -50 96 -442 rcurveline
            -33 6 13 -7 35 hhcurveto
            73 -104 callsubr
            return
          </CharString>
          <CharString index="13">
            -7 -5 -4 -30 -25 -21 -33 -8 -35 -4 -19 rcurveline
            126 callsubr
            14 hlineto
            6 6 5 6 1 hvcurveto
            4 19 5 22 19 15 41 23 rlinecurve
            3 1 20 12 13 20 return
          </CharString>
          <CharString index="14">
            rmoveto
            28 6 -21 7 -10 hhcurveto
            -28 -8 -25 -10 -3 hvcurveto
            -24 -9 -75 0 -20 hhcurveto
            -30 -66 0 27 3 hvcurveto
            26 2 -16 6 -12 hhcurveto
            -9 -24 -6 -29 -6 hvcurveto
            -50 -11 36 -54 116 hhcurveto
            118 57 55 49 10 hvcurveto
            return
          </CharString>
          <CharString index="15">
            -6 -59 callsubr
            13 10 37 7 hvcurveto
            return
          </CharString>
          <CharString index="16">
            -35 -12 -9 -36 -8 hvcurveto
            return
          </CharString>
          <CharString index="17">
            -35 -8 7 -10 36 hhcurveto
            return
          </CharString>
          <CharString index="18">
            1021 668 rmoveto
            26 6 -25 0 -18 hhcurveto
            -23 -26 0 -38 -18 hvcurveto
            -147 -329 -29 -62 -47 -106 -17 -52 rlinecurve
            -1 hlineto
            4 58 -2 88 -2 69 -8 333 rcurveline
            39 -26 0 -19 vhcurveto
            -43 hlineto
            -21 -25 0 -40 -18 hvcurveto
            -129 -288 -46 -102 -52 -123 -10 -32 rlinecurve
            -1 hlineto
            7 49 -2 86 -1 60 -9 352 rcurveline
            38 -26 0 -19 vhcurveto
            -21 184 callgsubr
            -6 hvcurveto
            0 -1 -4 1 -10 vhcurveto
            17 -615 rlineto
            -39 1 25 0 20 hhcurveto
            43 hlineto
            22 23 0 43 19 hvcurveto
            146 325 6 11 68 154 19 54 rlinecurve
            1 hlineto
            -5 -58 3 -93 2 -71 8 -324 rcurveline
            -41 1 23 0 22 hhcurveto
            48 hlineto
            20 25 0 39 17 hvcurveto
            279 615 rlineto
            5 10 1 4 0 vvcurveto
            return
          </CharString>
          <CharString index="19">
            -85 callgsubr
            241 -52 callgsubr
            return
          </CharString>
          <CharString index="20">
            rmoveto
            4 21 rlineto
            26 6 -1 0 -24 hhcurveto
            -292 79 callsubr
            291 -25 callsubr
          </CharString>
          <CharString index="21">
            -96 callsubr
            19 -104 callsubr
            return
          </CharString>
          <CharString index="22">
            7 32 8 57 -37 59 -31 48 -42 11 -50 14 -57 16 -12 4 -14 16 -8 11 -18 22 9 42 rrcurveto
            71 15 52 28 62 hhcurveto
            70 33 -28 -28 24 hvcurveto
            -6 5 1 -1 5 186 callgsubr
            5 2 hvcurveto
            5 13 21 51 2 10 2 8 -1 1 -20 13 rrcurveto
            20 -30 -38 20 -76 hhcurveto
            -155 -77 -94 -107 -23 hvcurveto
            return
          </CharString>
          <CharString index="23">
            -104 callgsubr
            endchar
          </CharString>
          <CharString index="24">
            398 427 rmoveto
            6 29 rlineto
            21 4 1 5 -16 hhcurveto
            -44 -64 -30 -84 -47 hvcurveto
            -1 hlineto
            14 66 -80 callsubr
            -14 -68 callgsubr
            -82 -388 -86 callsubr
            43 202 20 92 68 57 70 6 rlinecurve
            17 1 2 1 5 24 rrcurveto
            return
          </CharString>
          <CharString index="25">
            159 callgsubr
            64 298 rlineto
            80 17 -13 60 -103 hhcurveto
            -74 -51 -47 -55 -36 hvcurveto
            -1 hlineto
            11 54 rlineto
            88 callgsubr
            91 19 61 44 47 hhcurveto
            42 7 -24 -56 -12 hvcurveto
            return
          </CharString>
          <CharString index="26">
            hstemhm
            388 111 -12 105 -96 105 -102 111 -105 105 hintmask 0000000010000000
            592 105 callsubr
            hintmask 0001000100000000
            159 callsubr
            hintmask 0000001000000000
            -18 -84 rlineto
            89 callgsubr
            hintmask 1100000010000000
            4 hlineto
            -37 -28 rlineto
            29 -30 -44 14 -48 hhcurveto
            -59 -64 -21 -46 -47 hvcurveto
            -54 -52 -27 -70 -14 -67 -14 -65 -1 -65 32 -48 rrcurveto
            -44 29 55 -19 58 hhcurveto
            59 63 19 44 47 hvcurveto
            hintmask 0000000100000000
            52 48 27 65 14 65 rrcurveto
            hintmask 1100001000000000
            13 63 4 64 -26 51 99 66 rcurveline
            2 2 3 3 1 3 rrcurveto
            -204 -237 rmoveto
            -10 -49 -11 -52 -31 -40 rrcurveto
            -29 -21 -33 -16 -33 hhcurveto
            -32 -27 16 29 -9 hvcurveto
            -13 40 11 52 10 49 10 45 10 50 31 38 rrcurveto
            28 21 33 16 32 hhcurveto
            33 27 -16 -28 9 hvcurveto
            hintmask 0000010000000000
            13 -38 -10 -50 -10 -45 rrcurveto
            return
          </CharString>
          <CharString index="27">
            rlineto
            -73 callsubr
            return
          </CharString>
          <CharString index="28">
            -21 callsubr
            -34 -47 callgsubr
            -53 -249 rlineto
            -271 hlineto
            53 249 -80 callsubr
            -33 -97 callgsubr
            33 hlineto
            35 11 10 34 7 hvcurveto
            59 276 191 callsubr
            -59 -276 48 callsubr
            return
          </CharString>
          <CharString index="29">
            -73 callgsubr
            -5 hvcurveto
            hintmask 00100000
            -50 callgsubr
            hintmask 00010000
            -51 callsubr
            hintmask 00100000
            -46 callgsubr
            hintmask 00010000
            24 callsubr
            hintmask 00100000
            -16 callsubr
          </CharString>
          <CharString index="30">
            1 115 rlineto
            20 -1 -36 callgsubr
            -2 -86 callgsubr
            2 hvcurveto
            return
          </CharString>
          <CharString index="31">
            -91 callgsubr
            73 279 rmoveto
            4 23 -3 -23 callsubr
            -2 -2 -1 81 callsubr
            5 -40 3 -3 3 78 callgsubr
            5 2 rlineto
            1 2 2 132 callgsubr
            23 22 23 hhcurveto
            11 7 99 callsubr
            -1 -8 -3 -16 -3 -10 -3 -36 callsubr
          </CharString>
          <CharString index="32">
            172 44 -74 callgsubr
            return
          </CharString>
          <CharString index="33">
            746 643 rmoveto
            28 6 0 17 -41 hhcurveto
            -486 hlineto
            -35 -12 -9 -36 -7 hvcurveto
            -39 -9 11 -6 35 hhcurveto
            181 3 -118 -556 2 callsubr
            557 179 -3 rlineto
            35 13 7 38 8 hvcurveto
            return
          </CharString>
          <CharString index="34">
            31 7 -47 callsubr
            return
          </CharString>
          <CharString index="35">
            rmoveto
            0 1 4 -5 11 vhcurveto
            -57 111 rlineto
            10 -6 0 1 -19 hhcurveto
            -61 hlineto
            -16 -8 0 -11 -3 hvcurveto
            -1 -6 1 -2 7 -7 109 -122 rcurveline
            31 hlineto
            15 10 0 11 2 hvcurveto
            endchar
          </CharString>
          <CharString index="36">
            -20 148 callgsubr
            hintmask 0010000100000000
            28 callgsubr
            hintmask 0010000010000000
            3 2 2 3 1 4 rrcurveto
            hintmask 0000000000100000
            18 83 rlineto
            hintmask 0000010001000000
            -1 callgsubr
            hintmask 0000000000100000
            37 callgsubr
            hintmask 0010000010000000
            -18 -83 rlineto
            hintmask 0000000001000000
            128 callsubr
            hintmask 1001000100000000
            -57 callgsubr
            hintmask 0000101000000000
            return
          </CharString>
          <CharString index="37">
            623 228 rmoveto
            90 422 210 callsubr
            -12 -10 -34 -7 hvcurveto
            return
          </CharString>
          <CharString index="38">
            543 45 rmoveto
            44 9 -15 2 -35 hhcurveto
            -289 -4 436 531 12 14 1 2 3 17 rlinecurve
            37 8 -12 6 -30 hhcurveto
            -372 hlineto
            -23 -23 -1 -41 -8 hvcurveto
            -42 -9 19 0 35 hhcurveto
            230 3 rlineto
            36 hlineto
            -437 -533 -12 -14 0 -2 -4 -19 rlinecurve
            -30 -7 2 -15 39 hhcurveto
            392 59 callgsubr
            return
          </CharString>
          <CharString index="39">
            -20 97 callsubr
            -21 36 callgsubr
            77 111 -62 36 callgsubr
            -74 111 hintmask 0100000000001000
            -70 callsubr
            hintmask 1000010001000000
            -90 -422 rlineto
            -56 -11 -32 -116 -126 hhcurveto
            -121 17 114 57 12 hvcurveto
            hintmask 0100001000000000
            90 423 -80 callsubr
            -33 -68 callgsubr
            hintmask 1000010001000000
            -90 -421 rlineto
            -140 -29 58 -107 168 hhcurveto
            169 99 110 137 29 hvcurveto
            hintmask 0010000010000000
            -192 557 rmoveto
            4 22 rlineto
            34 8 -8 -89 callgsubr
            hintmask 0010000100010000
            -88 callsubr
            return
          </CharString>
          <CharString index="40">
            110 24 -55 84 -162 hhcurveto
            -199 -97 callgsubr
            30 -104 callsubr
            58 271 rlineto
            105 hlineto
            return
          </CharString>
          <CharString index="41">
            -73 callgsubr
            -5 hvcurveto
            hintmask 00010000
            -50 callgsubr
            hintmask 00001000
            -51 callsubr
            hintmask 00010000
            -46 callgsubr
            hintmask 00001000
            24 callsubr
            hintmask 00010000
            -16 callsubr
          </CharString>
          <CharString index="42">
            -20 hstemhm
            196 86 -83 92 -20 86 hintmask 0010000010000000
            30 callgsubr
            rrcurveto
            hintmask 0010001000000000
            118 callgsubr
            hintmask 0001000010000000
            -34 callgsubr
            hintmask 0001000100000000
            29 callgsubr
            hintmask 0100000100000000
            -34 callsubr
            hintmask 1000000000000000
            55 callgsubr
            hintmask 0000110000000000
            return
          </CharString>
          <CharString index="43">
            -31 -6 -19 callgsubr
            return
          </CharString>
          <CharString index="44">
            185 -25 rmoveto
            96 453 30 callsubr
            -100 -470 rlineto
            -23 -5 -8 -39 -55 hhcurveto
            -25 -18 10 4 -6 hvcurveto
            4 -7 -2 2 -3 hhcurveto
            -8 -3 -4 -19 -10 hvcurveto
            -2 -6 -11 -20 -1 -3 rrcurveto
            -18 -4 69 -23 50 hhcurveto
            77 62 50 102 22 hvcurveto
            return
          </CharString>
          <CharString index="45">
            rmoveto
            -58 callgsubr
            return
          </CharString>
          <CharString index="46">
            rmoveto
            6 24 rlineto
            38 8 -8 9 -35 hhcurveto
            -33 hlineto
            112 callsubr
          </CharString>
          <CharString index="47">
            515 195 rmoveto
            -85 callsubr
            hintmask 00001010
            -14 callgsubr
            return
          </CharString>
          <CharString index="48">
            42 callgsubr
            35 return
          </CharString>
          <CharString index="49">
            rmoveto
            -104 103 rlineto
            -127 hlineto
            -19 -2 -17 -5 8 hvcurveto
            166 -99 rlineto
            67 hlineto
            12 6 10 8 -7 hvcurveto
            endchar
          </CharString>
          <CharString index="50">
            388 33 rmoveto
            34 7 -27 0 -26 hhcurveto
            -137 -2 rlineto
            -46 hlineto
            296 339 13 15 1 4 2 11 rlinecurve
            38 8 -26 0 -18 hhcurveto
            -250 hlineto
            -15 -30 0 -34 -7 hvcurveto
            -33 -7 28 0 24 hhcurveto
            131 2 rlineto
            38 hlineto
            -297 -339 -13 -15 -1 -4 -2 -11 rlinecurve
            -38 -8 26 0 18 hhcurveto
            267 hlineto
            14 30 0 33 7 hvcurveto
            return
          </CharString>
          <CharString index="51">
            -68 callgsubr
            -127 -601 -96 callsubr
            return
          </CharString>
          <CharString index="52">
            -94 callgsubr
            endchar
          </CharString>
          <CharString index="53">
            -17 -19 hhcurveto
            -15 -14 13 10 -11 hvcurveto
            return
          </CharString>
          <CharString index="54">
            rmoveto
            4 21 rlineto
            26 6 -1 0 -24 hhcurveto
            -292 hlineto
            -24 -1 0 -26 -6 hvcurveto
            -4 -21 rlineto
            -25 -5 0 -1 25 hhcurveto
            291 -25 callsubr
          </CharString>
          <CharString index="55">
            rmoveto
            107 503 -80 callsubr
            -31 -47 callgsubr
            -105 -497 rlineto
            -18 -4 -16 -75 -74 hhcurveto
            -19 -44 6 40 -25 hvcurveto
            8 -5 -1 2 -5 hhcurveto
            -8 -3 -4 -8 -4 hvcurveto
            -4 -8 -21 -55 -1 -5 -2 -10 4 -2 15 -9 rrcurveto
            -20 37 42 -14 55 hhcurveto
            99 79 61 105 22 hvcurveto
            return
          </CharString>
          <CharString index="56">
            18 -19 -23 14 -31 hhcurveto
            -62 -46 -62 -40 -9 hvcurveto
            return
          </CharString>
          <CharString index="57">
            -18 -83 rlineto
            -7 -1 4 -5 7 hhcurveto
            1 hlineto
            -25 -17 rlineto
            10 -3 -9 7 -12 hhcurveto
            -47 hlineto
            -18 -17 -14 -17 -4 hvcurveto
            -92 -432 -12 -58 -19 -44 -32 -32 rlinecurve
            -27 -27 -39 -14 -42 hhcurveto
            -40 -32 14 27 -14 hvcurveto
            -19 32 2 43 12 59 rrcurveto
            return
          </CharString>
          <CharString index="58">
            hstemhm
            146 183 callgsubr
            -75 callsubr
            return
          </CharString>
          <CharString index="59">
            hvcurveto
            31 7 23 2 24 hhcurveto
            23 24 -1 -32 -7 hvcurveto
            59 hmoveto
            74 16 -90 0 -15 hhcurveto
            -17 -90 0 -74 -16 hvcurveto
            -74 return
          </CharString>
          <CharString index="60">
            -3 -30 callgsubr
            return
          </CharString>
          <CharString index="61">
            113 callsubr
            -21 callgsubr
            86 callsubr
            116 544 rlineto
            111 hlineto
            203 -42 -196 -81 -17 hvcurveto
            return
          </CharString>
          <CharString index="62">
            -41 callsubr
            hintmask 00110000
            return
          </CharString>
          <CharString index="63">
            66 callgsubr
            59 96 100 -20 hstem
            83 111 214 111 vstem
            376 565 rmoveto
            10 48 rlineto
            23 5 -1 1 -24 hhcurveto
            7 11 36 72 1 6 rrcurveto
            11 3 -7 0 -17 hhcurveto
            -19 -2 -1 -14 -9 hvcurveto
            -25 -34 0 -2 -29 -41 -10 -15 -1 -2 -3 -15 -10 -48 rcurveline
            -24 -5 1 0 21 hhcurveto
            51 192 callgsubr
            24 5 hvcurveto
            56 -538 -5 callsubr
          </CharString>
          <CharString index="64">
            rmoveto
            -8 7 -6 -10 -12 hhcurveto
            -67 hlineto
            -166 99 rlineto
            5 -8 2 17 19 hhcurveto
            127 hlineto
            endchar
          </CharString>
          <CharString index="65">
            198 callsubr
            46 62 40 return
          </CharString>
          <CharString index="66">
            -20 -49 callsubr
            return
          </CharString>
          <CharString index="67">
            497 232 rmoveto
            10 47 16 98 -54 63 67 95 rcurveline
            11 14 0 2 1 5 rrcurveto
            13 3 -7 19 -22 hhcurveto
            -19 -10 -13 -11 -7 hvcurveto
            -67 -92 rlineto
            15 -34 -33 0 -11 hhcurveto
            -55 -69 -18 -54 -52 hvcurveto
            -52 -54 -25 -67 -13 -62 -6 -30 -22 -105 59 -63 -13 -19 -13 -19 -14 -18 -14 -20 -24 -34 -2 -7 rrcurveto
            -13 -2 7 -19 22 hhcurveto
            20 5 9 40 29 hvcurveto
            28 38 0 2 21 29 rrcurveto
            -5 13 29 -8 37 hhcurveto
            44 68 11 51 56 hvcurveto
            66 59 20 81 8 40 rrcurveto
            -122 178 rmoveto
            return
          </CharString>
          <CharString index="68">
            -63 -294 rlineto
            129 callgsubr
            35 11 10 34 7 hvcurveto
            return
          </CharString>
          <CharString index="69">
            -1 0 -21 hhcurveto
            -51 hlineto
            -21 -1 0 -24 return
          </CharString>
          <CharString index="70">
            149 -54 -21 56 64 579 64 -39 64 56 160 callsubr
            hintmask 0010100100000000
            758 342 rmoveto
            27 128 -8 118 -75 65 43 61 rcurveline
            10 13 0 2 1 6 rrcurveto
            24 5 -22 10 -13 hhcurveto
            -19 -8 -11 -12 -8 hvcurveto
            -43 -58 rlineto
            hintmask 0001001000000000
            22 -50 -48 3 -29 hhcurveto
            -96 -92 -34 -60 -63 hvcurveto
            hintmask 0000010000000000
            -85 -79 -39 -101 -20 -97 -25 -116 3 -120 78 -67 -5 -8 -15 -21 -7 -8 -10 -14 -14 -20 -2 -9 rrcurveto
            hintmask 1000001000000000
            -24 -5 22 -10 13 hhcurveto
            19 6 7 26 19 hvcurveto
            hintmask 0101010010000000
            34 47 rlineto
            -20 46 48 -4 34 hhcurveto
            105 90 39 55 59 hvcurveto
            77 72 40 93 22 102 rrcurveto
            -156 282 rmoveto
            -363 -506 -30 61 9 74 19 90 rlinecurve
            81 17 48 225 205 hhcurveto
            hintmask 0110000100000000
            45 33 -14 -11 17 hvcurveto
            45 -281 rmoveto
            -82 -18 -45 -216 -205 hhcurveto
            -19 -38 1 24 -38 hvcurveto
            361 504 rlineto
            hintmask 0000000010000000
            33 -64 -15 -91 -16 -76 rrcurveto
            endchar
          </CharString>
          <CharString index="71">
            -94 callsubr
            5 21 rlinecurve
            endchar
          </CharString>
          <CharString index="72">
            29 6 37 173 -152 hhcurveto
            -47 -47 -20 -36 -35 hvcurveto
            -49 -52 -15 -68 -5 -25 rrcurveto
            -61 -13 -16 -141 141 hhcurveto
            152 37 173 28 6 hvcurveto
            return
          </CharString>
          <CharString index="73">
            -61 -13 -43 -4 -27 hhcurveto
            -30 -47 8 44 -34 hvcurveto
            10 -8 -2 0 -4 175 callgsubr
            -1 hvcurveto
            -3 -6 -20 -49 -4 vvcurveto
            -4 -19 45 -18 14 -6 rrcurveto
            return
          </CharString>
          <CharString index="74">
            11 3 74 callsubr
            -61 hlineto
            return
          </CharString>
          <CharString index="75">
            41 9 -23 0 -21 hhcurveto
            -175 hlineto
            44 207 rlineto
            22 hlineto
            174 -3 rlineto
            32 17 2 43 182 callgsubr
            -391 hlineto
            -22 -23 0 -39 -24 hvcurveto
            -358 -613 -6 -10 -2 -3 -1 -5 rlinecurve
            -24 -5 22 0 15 hhcurveto
            17 hlineto
            21 24 0 38 22 hvcurveto
            96 165 rlineto
            188 hlineto
            -33 -158 -96 callsubr
            290 -104 callsubr
            -329 234 rmoveto
            -160 hlineto
            193 330 rlineto
            37 hlineto
            return
          </CharString>
          <CharString index="76">
            19 callgsubr
            185 hmoveto
            -61 callgsubr
            endchar
          </CharString>
          <CharString index="77">
            rmoveto
            28 6 -20 7 -10 hhcurveto
            -28 -8 -25 -10 -4 hvcurveto
            -24 -9 -75 0 -20 hhcurveto
            -30 -66 0 27 3 hvcurveto
            26 3 -16 6 -12 hhcurveto
            -9 -24 -6 -29 -7 77 callgsubr
          </CharString>
          <CharString index="78">
            -92 -432 -15 -71 5 -66 37 -47 rlinecurve
            -47 37 62 -19 71 hhcurveto
            70 69 19 47 55 hvcurveto
            56 48 33 66 15 70 83 389 rcurveline
            121 77 201 callsubr
            4 rlinecurve
            return
          </CharString>
          <CharString index="79">
            5 24 rlineto
            38 8 -8 9 -35 hhcurveto
            -33 hlineto
            -34 return
          </CharString>
          <CharString index="80">
            -20 hstemhm
            210 45 callgsubr
            87 45 callgsubr
            hintmask 10001000
            80 callsubr
            hintmask 10010010
            -80 callgsubr
            hintmask 10000100
            -75 callgsubr
            hintmask 01100000
            return
          </CharString>
          <CharString index="81">
            -6 callgsubr
            35 12 10 37 8 hvcurveto
            return
          </CharString>
          <CharString index="82">
            -39 callgsubr
            endchar
          </CharString>
          <CharString index="83">
            435 44 143 callsubr
            -46 -217 rlineto
            18 -11 -29 31 -55 hhcurveto
            -23 -71 -5 -65 -58 hvcurveto
            -57 -63 -17 -81 -7 -32 -6 -27 -16 -79 22 -59 rrcurveto
            -71 28 60 -10 36 hhcurveto
            67 47 49 5 4 hvcurveto
            return
          </CharString>
          <CharString index="84">
            95 callgsubr
            -33 callgsubr
            return
          </CharString>
          <CharString index="85">
            -96 callsubr
            33 -104 callsubr
            return
          </CharString>
          <CharString index="86">
            605 -65 callgsubr
            return
          </CharString>
          <CharString index="87">
            -1 -12 -10 hvcurveto
            -91 -106 rlineto
            -8 -10 90 callsubr
            -11 -2 10 0 15 hhcurveto
            36 192 callgsubr
            15 10 hvcurveto
            64 callgsubr
          </CharString>
          <CharString index="88">
            27 callgsubr
            -4 6 0 20 hhcurveto
            13 hlineto
            21 2 0 15 6 hvcurveto
            hintmask 01000000
            39 callgsubr
            hintmask 10000000
            47 callgsubr
          </CharString>
          <CharString index="89">
            11 79 callgsubr
            -11 -38 callgsubr
            -36 -72 -2 71 callgsubr
            29 41 10 15 0 2 3 15 rrcurveto
            endchar
          </CharString>
          <CharString index="90">
            37 callsubr
            -324 403 rmoveto
            29 7 36 173 -152 hhcurveto
            -47 -47 -20 -36 -34 hvcurveto
            -50 -52 -14 -68 -5 -25 rrcurveto
            -61 -13 -16 -141 141 hhcurveto
            152 37 173 28 5 hvcurveto
            328 167 rmoveto
            18 4 -12 17 -20 hhcurveto
            -19 -10 -13 -9 -8 hvcurveto
            -611 -723 -8 -9 -5 -7 -2 -10 rlinecurve
            -19 -5 13 -16 19 hhcurveto
            19 11 12 10 8 hvcurveto
            610 723 8 9 6 7 2 10 rlinecurve
            return
          </CharString>
          <CharString index="91">
            -18 19 75 callsubr
          </CharString>
          <CharString index="92">
            716 342 rmoveto
            9 43 22 115 -36 88 rrcurveto
            110 -46 -106 15 -59 hhcurveto
            -95 -94 -39 -71 -64 hvcurveto
            -49 -55 -44 -74 -28 -132 -19 -87 -10 -106 52 -81 28 -42 50 -31 67 -10 -23 -22 -17 -28 -7 -30 91 callsubr
            -8 186 callsubr
            4 19 10 17 12 16 66 5 79 23 65 62 84 79 35 107 18 84 rrcurveto
            -119 16 rmoveto
            -13 -63 -18 -73 -42 -66 rrcurveto
            -88 -57 -71 -15 -37 hhcurveto
            -38 -64 16 88 -19 hvcurveto
            -12 59 8 62 17 80 11 49 18 89 51 65 rrcurveto
            65 50 62 17 42 hhcurveto
            31 66 -10 -77 23 hvcurveto
            20 -64 -16 -77 -12 -57 rrcurveto
            return
          </CharString>
          <CharString index="93">
            -20 -103 callgsubr
            hintmask 00001100
            61 callsubr
            return
          </CharString>
          <CharString index="94">
            221 426 -93 callsubr
            return
          </CharString>
          <CharString index="95">
            98 0 75 229 86 229 75 hstemhm
            146 119 -101 119 304 119 cntrmask 11100000
            hintmask 11101000
            113 callsubr
            -55 -259 rlineto
            -24 hlineto
            -18 -17 -14 -18 -4 hvcurveto
            -5 -22 rlineto
            -17 -3 11 -15 18 hhcurveto
            hintmask 11110100
            24 hlineto
            -55 -259 86 callsubr
            49 229 rlineto
            56 hlineto
            17 18 15 17 3 hvcurveto
            5 182 callsubr
            hintmask 11101100
            -56 hlineto
            49 229 177 callsubr
          </CharString>
          <CharString index="96">
            hstemhm
            hintmask 10000000
            604 48 callgsubr
            hintmask 01110000
            -46 11 58 48 67 hvcurveto
            14 24 0 25 5 hvcurveto
            0 1 3 -2 11 vhcurveto
            -62 617 rlineto
            38 -3 -25 0 -20 hhcurveto
            -57 hlineto
            -18 -27 0 -37 -20 hvcurveto
            -324 -616 59 callsubr
            -4 rlinecurve
            -25 -5 24 0 14 hhcurveto
            16 hlineto
            44 10 18 22 12 hvcurveto
            69 131 rlineto
            242 hlineto
            11 -107 2 -25 2 -15 6 -10 rlinecurve
            -38 -31 -33 -38 -8 -40 rrcurveto
            hintmask 10110000
            -44 callgsubr
            -145 379 rmoveto
            -196 hlineto
            99 193 31 60 30 59 10 30 rlinecurve
            1 hlineto
            -2 -38 7 -82 4 -37 rrcurveto
            return
          </CharString>
          <CharString index="97">
            199 rmoveto
            19 90 -26 61 -71 25 90 27 33 69 11 53 rrcurveto
            116 25 -47 73 -121 hhcurveto
            -123 -77 -75 -114 -25 hvcurveto
            -12 -57 6 -65 78 -27 -95 -29 -43 -73 -16 -74 rrcurveto
            -145 -31 63 -73 119 hhcurveto
            return
          </CharString>
          <CharString index="98">
            23 8 13 17 19 hhcurveto
            15 15 -13 -10 return
          </CharString>
          <CharString index="99">
            83 20 callgsubr
            return
          </CharString>
          <CharString index="100">
            -152 9 callgsubr
            return
          </CharString>
          <CharString index="101">
            33 rmoveto
            23 108 -50 48 -62 20 54 29 65 57 18 86 rrcurveto
            99 21 -49 66 -116 hhcurveto
            -125 -72 -106 -11 -3 hvcurveto
            -3 15 -52 11 7 4 5 7 4 vhcurveto
            79 52 68 6 19 hhcurveto
            64 -7 -51 -39 -8 hvcurveto
            hintmask 0010001000000000
            -7 -35 -15 -37 -22 -26 -29 -36 -23 -2 -35 -3 -25 -2 -1 -1 -2 -1 rrcurveto
            hintmask 0010010000000000
            -6 -3 -1 -1 -5 -20 -2 -12 rcurveline
            -26 -6 1 0 24 hhcurveto
            34 hlineto
            hintmask 1100100100000000
            71 15 -46 -95 -21 hvcurveto
            -44 -9 -22 -97 -87 hhcurveto
            -24 -72 7 72 -36 hvcurveto
            13 -6 -1 1 -5 hhcurveto
            -10 -2 -6 -21 -8 hvcurveto
            -2 -6 -11 -29 -1 -3 rrcurveto
            -14 -3 44 -94 124 hhcurveto
            115 106 67 152 32 hvcurveto
            endchar
          </CharString>
          <CharString index="102">
            -99 callgsubr
            endchar
          </CharString>
          <CharString index="103">
            469 275 rmoveto
            137 30 -48 75 -116 hhcurveto
            -88 -128 -50 -198 -42 hvcurveto
            -37 -175 82 -62 89 -10 -30 -28 -16 -25 -7 -34 93 callsubr
            -46 6 57 48 67 hvcurveto
            12 3 12 5 14 5 20 9 50 25 4 19 rrcurveto
            2 8 2 19 9 vvcurveto
            19 2 1 5 -10 hhcurveto
            -5 -4 -3 -6 -6 hvcurveto
            -56 -59 -63 -6 -21 hhcurveto
            -118 32 148 30 6 hvcurveto
            238 hlineto
            32 14 7 36 7 hvcurveto
            -85 4 rmoveto
            -195 hlineto
            72 20 44 72 69 hhcurveto
            87 -16 -93 -51 -9 hvcurveto
            return
          </CharString>
          <CharString index="104">
            rmoveto
            -33 callsubr
            return
          </CharString>
          <CharString index="105">
            45 callsubr
            hintmask 00010000
            18 -19 -23 14 -31 hhcurveto
            -62 -47 -62 -40 -8 hvcurveto
            hintmask 00100000
            -17 -4 -64 callgsubr
            hintmask 00010000
            25 callgsubr
            hintmask 00100000
            -42 callsubr
            9 hvcurveto
            endchar
          </CharString>
          <CharString index="106">
            497 232 rmoveto
            10 47 12 79 -34 59 rrcurveto
            55 -32 -61 15 -51 hhcurveto
            -55 -69 -18 -54 -52 hvcurveto
            -52 -54 -25 -67 -13 -62 -11 -54 -8 -68 34 -56 18 -27 31 -22 44 -10 -29 -23 -22 -32 -7 -35 91 callsubr
            -9 186 callsubr
            6 22 11 21 17 18 44 3 57 14 48 44 149 callgsubr
            -67 -14 -25 -117 -100 hhcurveto
            -100 25 117 67 14 hvcurveto
            67 14 24 112 100 hhcurveto
            100 -24 -113 -66 -14 hvcurveto
            return
          </CharString>
          <CharString index="107">
            -2 -9 1 -1 25 -17 rrcurveto
            -41 58 63 -14 59 hhcurveto
            146 85 92 122 25 hvcurveto
            return
          </CharString>
          <CharString index="108">
            483 45 rmoveto
            23 4 5 23 -42 hhcurveto
            -229 -4 120 563 rlineto
            return
          </CharString>
          <CharString index="109">
            -22 callsubr
            119 return
          </CharString>
          <CharString index="110">
            220 rmoveto
            10 48 8 62 -27 54 rrcurveto
            hintmask 00011000
            36 -19 154 callgsubr
            14 7 36 7 hvcurveto
            35 8 -9 8 -33 hhcurveto
            -235 hlineto
            -37 -11 -11 -35 -7 hvcurveto
            -64 -298 rlineto
            hintmask 11100100
            -24 -5 -3 -22 42 hhcurveto
            20 9 2 18 14 hvcurveto
            16 13 35 44 55 hhcurveto
            62 -21 -98 -63 -14 hvcurveto
            -66 -14 -20 -96 -97 hhcurveto
            -9 -80 0 89 -18 hvcurveto
            4 -2 5 -7 -13 -39 -63 0 vhcurveto
            -11 -2 32 -104 124 hhcurveto
            77 59 30 31 36 hvcurveto
            68 61 19 81 8 36 rrcurveto
            endchar
          </CharString>
          <CharString index="111">
            -300 129 callsubr
            hstem
            165 108 vstem
            465 640 rmoveto
            84 callsubr
            -110 -69 -59 -96 -20 hvcurveto
            -17 -77 -41 callgsubr
            41 -10 callgsubr
            -44 hlineto
            22 102 rlineto
            24 5 9 42 61 hhcurveto
            18 20 -3 -16 19 hvcurveto
            -5 6 2 -1 4 93 callgsubr
            endchar
          </CharString>
          <CharString index="112">
            -10 callsubr
            hintmask 01111000
            123 90 77 141 30 hvcurveto
            -47 324 rmoveto
            -47 -10 -14 -69 -81 hhcurveto
            -81 14 69 47 10 hvcurveto
            50 11 14 65 81 hhcurveto
            hintmask 11000100
            81 -14 -66 -49 -11 hvcurveto
            -66 -322 rmoveto
            -59 -13 -17 -81 -83 hhcurveto
            -83 17 81 59 13 hvcurveto
            56 12 18 86 83 hhcurveto
            83 -18 -86 -56 -12 hvcurveto
            endchar
          </CharString>
          <CharString index="113">
            46 125 callsubr
            609 27 rmoveto
            -161 340 248 289 9 10 2 2 1 5 rlinecurve
            21 5 -20 0 -14 hhcurveto
            -49 hlineto
            -17 -15 0 -18 -15 hvcurveto
            -172 -205 -89 202 rlineto
            19 -8 -5 2 -26 hhcurveto
            -56 hlineto
            -15 -19 0 -20 -5 hvcurveto
            -1 -7 1 -3 5 -10 137 -287 rcurveline
            -282 -327 -11 -12 -1 -3 -1 -4 rlinecurve
            -21 -4 18 0 16 hhcurveto
            48 hlineto
            22 10 0 22 18 hvcurveto
            206 252 105 -252 rlineto
            -20 8 6 -2 26 hhcurveto
            56 hlineto
            21 12 0 27 6 hvcurveto
            endchar
          </CharString>
          <CharString index="114">
            -10 callsubr
            123 90 77 141 30 hvcurveto
            -47 324 rmoveto
            -47 -10 -14 -69 -81 hhcurveto
            -81 14 69 47 10 hvcurveto
            50 11 14 65 81 hhcurveto
            81 -14 -66 -49 -11 hvcurveto
            -66 -322 rmoveto
            -59 -13 -17 -81 -83 hhcurveto
            -83 17 81 59 13 hvcurveto
            56 12 18 86 83 hhcurveto
            83 -18 -86 -56 -12 hvcurveto
            endchar
          </CharString>
          <CharString index="115">
            15 73 20 76 52 62 rrcurveto
            45 37 55 27 54 hhcurveto
            53 43 -27 -45 19 hvcurveto
            24 -62 -12 -76 -15 -73 rrcurveto
            return
          </CharString>
          <CharString index="116">
            47 rmoveto
            25 5 0 20 -42 hhcurveto
            -210 hlineto
            184 105 58 33 53 41 22 106 rlinecurve
            107 23 -85 62 -103 hhcurveto
            -71 -81 -29 -68 -52 hvcurveto
            -1 -3 -2 -5 0 vvcurveto
            -2 -6 4 -4 4 -5 22 -29 rcurveline
            -4 4 4 -7 7 hhcurveto
            3 hlineto
            11 3 19 33 21 15 rrcurveto
            16 22 28 8 26 hhcurveto
            hintmask 11010000
            47 48 -27 -58 -12 hvcurveto
            -22 -104 -93 -64 -46 -30 -151 -97 rcurveline
            -11 -7 -12 -9 -4 -17 -3 -14 rcurveline
            -23 -5 14 -11 24 hhcurveto
            307 hlineto
            37 6 25 22 5 hvcurveto
            endchar
          </CharString>
          <CharString index="117">
            206 rmoveto
            41 9 -23 0 -21 hhcurveto
            -36 hlineto
            85 403 rlineto
            34 7 -6 10 -35 hhcurveto
            -52 hlineto
            -24 -8 -1 -23 -16 hvcurveto
            -284 -409 -9 -14 -1 -2 -4 -17 rlinecurve
            -3 -18 rlineto
            -31 -7 -19 callgsubr
            hintmask 11010000
            193 hlineto
            -26 -122 rlineto
            -31 -6 3 -13 38 140 callgsubr
            26 122 rlineto
            36 hlineto
            20 24 0 40 9 hvcurveto
            -170 41 rmoveto
            -155 hlineto
            23 35 88 123 70 112 19 31 27 44 3 12 rrcurveto
            hintmask 01001000
            endchar
          </CharString>
          <CharString index="118">
            40 rmoveto
            41 8 -23 0 -21 hhcurveto
            -36 hlineto
            90 421 rlineto
            34 7 -7 10 -35 hhcurveto
            -52 hlineto
            -24 -7 -1 -23 -16 hvcurveto
            -288 -427 -10 -14 0 -2 -4 -17 rlinecurve
            -4 -18 -56 callgsubr
            hintmask 01001000
            193 hlineto
            hintmask 10010000
            -26 -123 rlineto
            -31 -7 4 -13 38 140 callgsubr
            hintmask 01001000
            26 123 rlineto
            36 hlineto
            20 24 0 40 9 hvcurveto
            -171 41 rmoveto
            -155 hlineto
            hintmask 01000100
            185 288 20 31 26 44 4 12 rlinecurve
            endchar
          </CharString>
          <CharString index="119">
            46 21 46 callsubr
            return
          </CharString>
          <CharString index="120">
            540 62 callgsubr
            return
          </CharString>
          <CharString index="121">
            64 0 35 callgsubr
            return
          </CharString>
          <CharString index="122">
            68 callgsubr
            257 105 -40 callgsubr
            endchar
          </CharString>
          <CharString index="123">
            15 41 23 rlinecurve
            3 1 19 12 14 127 callgsubr
          </CharString>
          <CharString index="124">
            rmoveto
            -31 -6 -24 -2 -24 hhcurveto
            -23 -23 1 32 6 -48 callsubr
            -15 53 callsubr
            15 hvcurveto
            endchar
          </CharString>
          <CharString index="125">
            6 -19 -13 0 -10 hhcurveto
            -73 -72 -42 -110 -24 hvcurveto
            -17 -80 44 callsubr
            return
          </CharString>
          <CharString index="126">
            31 7 -3 13 -38 hhcurveto
            -16 hlineto
            -35 -12 -9 -36 -8 hvcurveto
            -82 -388 rlineto
            -35 -8 7 -10 36 hhcurveto
            22 hlineto
            35 11 10 34 7 hvcurveto
            51 239 rlineto
            90 19 60 45 49 hhcurveto
            42 7 -25 -55 -12 hvcurveto
            -62 -293 69 callsubr
            return
          </CharString>
          <CharString index="127">
            -23 0 94 224 81 205 90 return
          </CharString>
          <CharString index="128">
            835 706 rmoveto
            18 83 rlineto
            -1 callgsubr
            -7 -6 -5 -6 -1 hvcurveto
            return
          </CharString>
          <CharString index="129">
            7 rmoveto
            14 callgsubr
            -7 callgsubr
            return
          </CharString>
          <CharString index="130">
            651 rmoveto
            9 42 -16 0 -31 1 rrcurveto
            hintmask 00100000
            -233 1 rlineto
            -36 hlineto
            -65 -12 0 -44 -10 hvcurveto
            -1 -7 rlineto
            hintmask 01000000
            -44 -9 13 0 59 hhcurveto
            hintmask 10110000
            63 1 rlineto
            129 hlineto
            9 7 0 1 7 hvcurveto
            -161 -163 -117 -197 -43 -206 rrcurveto
            -27 -6 -3 -19 43 hhcurveto
            29 -2 callgsubr
            46 210 93 191 169 195 12 12 0 2 4 19 rrcurveto
            endchar
          </CharString>
          <CharString index="131">
            -9 callsubr
            11 hvcurveto
            return
          </CharString>
          <CharString index="132">
            12 callsubr
            -20 return
          </CharString>
          <CharString index="133">
            rmoveto
            8 3 -5 7 -8 hhcurveto
            -42 hlineto
            -4 -4 -2 -4 -2 hvcurveto
            -147 -253 rlineto
            -2 -2 0 -3 -2 vvcurveto
            40 -253 rlineto
            -5 1 5 -4 5 hhcurveto
            42 hlineto
            6 5 5 6 hvcurveto
            8 251 rlineto
            return
          </CharString>
          <CharString index="134">
            -20 -1 -8 -12 -1 -6 rrcurveto
            -19 -4 22 0 8 hhcurveto
            19 22 3 6 21 hvcurveto
            -68 -319 rlineto
            -49 hlineto
            -9 -23 0 -19 -4 hvcurveto
            -19 -4 23 0 9 hhcurveto
            173 hlineto
            9 23 0 19 4 hvcurveto
            return
          </CharString>
          <CharString index="135">
            rmoveto
            1 3 0 2 3 vvcurveto
            -40 253 rlineto
            5 -1 -4 4 -6 hhcurveto
            -42 hlineto
            -6 -5 -5 -6 hvcurveto
            -8 -251 -99 -251 rlineto
            -8 -3 5 -7 8 hhcurveto
            42 hlineto
            4 4 2 3 2 hvcurveto
            return
          </CharString>
          <CharString index="136">
            rmoveto
            23 19 -11 29 -27 hhcurveto
            -13 -13 -7 -10 -8 hvcurveto
            -519 -654 rlineto
            -24 -19 11 -29 27 hhcurveto
            return
          </CharString>
          <CharString index="137">
            97 callgsubr
            -35 -11 -10 -34 -7 hvcurveto
            return
          </CharString>
          <CharString index="138">
            581 -21 37 73 hstem
            627 576 rmoveto
            92 20 -181 2 -46 hhcurveto
            -35 hlineto
            -61 -5 -131 -9 -17 -81 rrcurveto
            -9 -2 4 -6 12 4 5 1 4 hhcurveto
            51 hlineto
            4 4 -1 5 hhcurveto
            19 1 18 6 17 hvcurveto
            12 33 33 1 32 hhcurveto
            14 hlineto
            32 47 0 -18 16 hvcurveto
            -6 8 -8 -13 20 5 6 1 5 hhcurveto
            56 hlineto
            15 7 4 11 2 hvcurveto
            endchar
          </CharString>
          <CharString index="139">
            484 rmoveto
            9 42 -16 0 -32 1 rrcurveto
            -269 hlineto
            -65 -12 1 -44 -9 hvcurveto
            -2 -7 rlineto
            -44 -9 13 1 59 hhcurveto
            192 hlineto
            9 7 0 1 7 hvcurveto
            -160 -163 -117 -197 -44 -206 rrcurveto
            -27 -6 -3 -19 43 hhcurveto
            29 -2 callgsubr
            47 210 92 191 170 195 11 12 1 2 4 19 rrcurveto
            endchar
          </CharString>
          <CharString index="140">
            32 78 callsubr
            -61 hlineto
            128 605 rlineto
            18 4 6 26 -38 hhcurveto
            -21 -7 -6 -11 -11 hvcurveto
            -53 -50 -65 -1 -21 -1 -28 -1 -12 -20 -2 -11 rrcurveto
            -32 -7 30 0 11 hhcurveto
            27 32 6 9 27 hvcurveto
            -112 -531 rlineto
            -67 hlineto
            -13 -32 0 -32 -7 hvcurveto
            -32 -7 32 0 13 hhcurveto
            240 60 callsubr
          </CharString>
          <CharString index="141">
            -7 callgsubr
            endchar
          </CharString>
          <CharString index="142">
            3 90 callgsubr
            endchar
          </CharString>
          <CharString index="143">
            92 432 rlineto
            17 4 -11 14 -17 hhcurveto
            -59 hlineto
            -17 -18 -14 -17 -4 hvcurveto
            return
          </CharString>
          <CharString index="144">
            -35 callsubr
            -377 hmoveto
            -35 callsubr
            return
          </CharString>
          <CharString index="145">
            rmoveto
            6 28 5 23 0 2 -23 6 rlinecurve
            5 -24 -14 0 -10 hhcurveto
            -96 -67 -55 -99 -21 hvcurveto
            -17 -78 44 callsubr
            13 31 0 32 7 hvcurveto
            32 6 -31 0 -13 hhcurveto
            -53 hlineto
            return
          </CharString>
          <CharString index="146">
            -4 -31 -25 -21 -33 -7 142 callgsubr
            return
          </CharString>
          <CharString index="147">
            rlineto
            -35 -7 7 -10 36 hhcurveto
            22 -104 callsubr
            33 158 rlineto
            -39 28 30 -6 29 hhcurveto
            57 63 27 49 42 hvcurveto
            48 57 18 61 12 54 rrcurveto
            -112 -2 rmoveto
            -28 -6 -33 -154 -104 hhcurveto
            -43 -15 36 3 -1 hvcurveto
            60 282 rlineto
            22 23 32 15 30 hhcurveto
            95 -31 -146 -30 -7 hvcurveto
            endchar
          </CharString>
          <CharString index="148">
            11 54 -22 callgsubr
            return
          </CharString>
          <CharString index="149">
            -97 callgsubr
            22 -104 callsubr
            return
          </CharString>
          <CharString index="150">
            8 1 -10 2 -6 hhcurveto
            -62 hlineto
            hintmask 01000000
            -4 102 callgsubr
            -12 -6 -8 -27 -7 -17 -11 -26 -19 -33 -5 -25 rrcurveto
            hintmask 10000000
            -10 -2 8 -4 11 hhcurveto
            hintmask 01000000
            5 6 1 4 hhcurveto
            hintmask 10000000
            4 5 -1 4 hhcurveto
            15 12 19 12 9 hvcurveto
            76 97 3 3 3 4 1 4 rlinecurve
            return
          </CharString>
          <CharString index="151">
            -41 callgsubr
            50 hlineto
            return
          </CharString>
          <CharString index="152">
            -23 -8 -13 -54 callsubr
            return
          </CharString>
          <CharString index="153">
            -21 171 75 448 return
          </CharString>
          <CharString index="154">
            27 125 51 44 81 -198 rlineto
            -15 7 15 0 16 hhcurveto
            28 hlineto
            14 20 0 21 4 hvcurveto
            return
          </CharString>
          <CharString index="155">
            -56 callgsubr
            34 -104 callsubr
            return
          </CharString>
          <CharString index="156">
            17 19 hhcurveto
            15 14 146 callgsubr
            return
          </CharString>
          <CharString index="157">
            -2 -2 81 callsubr
            return
          </CharString>
          <CharString index="158">
            rmoveto
            35 8 -37 0 -14 hhcurveto
            -530 hlineto
            -14 -37 0 -35 -8 hvcurveto
            -35 -7 33 0 12 hhcurveto
            542 hlineto
            12 33 0 35 7 hvcurveto
            return
          </CharString>
          <CharString index="159">
            145 111 152 111 return
          </CharString>
          <CharString index="160">
            90 0 15 hhcurveto
            17 90 0 74 return
          </CharString>
          <CharString index="161">
            -133 rmoveto
            10 callgsubr
            return
          </CharString>
          <CharString index="162">
            hvcurveto
            -1 50 callsubr
            return
          </CharString>
          <CharString index="163">
            107 -19 72 590 70 return
          </CharString>
          <CharString index="164">
            -3 callgsubr
            -377 hmoveto
            -3 callgsubr
            return
          </CharString>
          <CharString index="165">
            586 rmoveto
            50 10 -35 54 -116 hhcurveto
            -118 -57 -55 -49 -10 hvcurveto
            -28 -6 20 -7 10 hhcurveto
            28 8 25 10 4 hvcurveto
            24 9 75 0 20 hhcurveto
            30 66 0 -27 -3 hvcurveto
            -26 -3 16 -6 12 hhcurveto
            9 24 6 29 7 hvcurveto
            endchar
          </CharString>
          <CharString index="166">
            -2 -4 -5 -8 -1 return
          </CharString>
          <CharString index="167">
            -2 callgsubr
            endchar
          </CharString>
          <CharString index="168">
            127 282 -91 callgsubr
            return
          </CharString>
          <CharString index="169">
            167 305 -91 callgsubr
            return
          </CharString>
          <CharString index="170">
            210 334 -104 callgsubr
            return
          </CharString>
          <CharString index="171">
            21 73 callgsubr
            return
          </CharString>
          <CharString index="172">
            -1 0 -24 hhcurveto
            -56 hlineto
            -24 -1 0 -26 return
          </CharString>
          <CharString index="173">
            -42 callgsubr
            hintmask 00000100
            18 -19 -23 14 -31 hhcurveto
            -62 return
          </CharString>
          <CharString index="174">
            rmoveto
            10 48 rlineto
            24 return
          </CharString>
          <CharString index="175">
            -200 118 return
          </CharString>
          <CharString index="176">
            -60 callgsubr
            90 19 60 45 49 hhcurveto
            42 7 -25 -55 -12 hvcurveto
            -62 -293 -96 callsubr
            22 -104 callsubr
            return
          </CharString>
          <CharString index="177">
            -243 -21 100 96 return
          </CharString>
          <CharString index="178">
            -24 -23 -19 -24 -5 hvcurveto
            -24 -5 15 -19 24 hhcurveto
            24 23 19 24 5 hvcurveto
            return
          </CharString>
          <CharString index="179">
            106 callgsubr
            14 -17 return
          </CharString>
          <CharString index="180">
            34 11 51 rrcurveto
            60 12 -37 39 -83 hhcurveto
            -90 -50 -63 -7 -1 hvcurveto
            -2 -1 13 -31 8 hhcurveto
            5 2 3 4 3 hvcurveto
            48 35 49 3 14 hhcurveto
            46 -3 -30 -24 -5 hvcurveto
            -5 -21 -10 -22 -15 -15 return
          </CharString>
          <CharString index="181">
            -8 0 -16 hhcurveto
            return
          </CharString>
          <CharString index="182">
            23 -14 31 hhcurveto
            62 46 165 callsubr
          </CharString>
          <CharString index="183">
            359 305 rmoveto
            19 4 -23 0 -9 hhcurveto
            -44 hlineto
            77 363 rlineto
            11 2 4 15 -27 hhcurveto
            return
          </CharString>
          <CharString index="184">
            hstemhm
            79 203 callsubr
            -19 105 35 116 return
          </CharString>
          <CharString index="185">
            rmoveto
            32 7 95 callsubr
            return
          </CharString>
          <CharString index="186">
            hlineto
            -24 -1 0 -26 -6 hvcurveto
            -4 -21 rlineto
            -25 -6 1 -1 25 hhcurveto
            return
          </CharString>
          <CharString index="187">
            321 609 rmoveto
            5 22 rlineto
            34 7 -7 -89 callgsubr
            return
          </CharString>
          <CharString index="188">
            -4 0 vvcurveto
            -4 vlineto
            return
          </CharString>
          <CharString index="189">
            -9 -9 -6 -12 -3 -13 rrcurveto
            -31 -7 20 -25 31 hhcurveto
            18 18 9 13 13 hvcurveto
            28 28 75 -20 56 -15 rrcurveto
            -8 29 31 -7 33 hhcurveto
            89 80 83 93 19 hvcurveto
            endchar
          </CharString>
          <CharString index="190">
            -82 -384 -69 callgsubr
            -84 396 153 callgsubr
            return
          </CharString>
          <CharString index="191">
            6 28 5 24 -1 1 -26 6 rlinecurve
            5 -25 -21 0 -9 hhcurveto
            return
          </CharString>
          <CharString index="192">
            rmoveto
            -22 -5 -10 -23 -37 hhcurveto
            -26 hlineto
            -23 -19 8 34 7 hvcurveto
            5 25 rlineto
            16 4 10 28 25 hhcurveto
            1 4 4 0 4 hhcurveto
            27 hlineto
            23 19 -8 -34 -7 hvcurveto
            return
          </CharString>
          <CharString index="193">
            -96 callsubr
            219 hlineto
            70 88 21 64 69 hvcurveto
            77 70 37 93 20 94 rrcurveto
            -119 hmoveto
            -80 -17 -40 -187 -202 hhcurveto
            -112 hlineto
            return
          </CharString>
          <CharString index="194">
            45 211 rlineto
            21 4 -13 16 -20 hhcurveto
            -38 hlineto
            -20 -21 -16 -21 -4 hvcurveto
            -45 -211 rlineto
            -20 -4 13 -17 20 hhcurveto
            38 hlineto
            20 21 17 20 4 hvcurveto
            return
          </CharString>
          <CharString index="195">
            -17 -4 6 0 20 hhcurveto
            13 hlineto
            21 2 0 15 6 hvcurveto
            return
          </CharString>
          <CharString index="196">
            -107 -10 158 callsubr
            return
          </CharString>
          <CharString index="197">
            -1 -4 0 vvcurveto
            return
          </CharString>
          <CharString index="198">
            93 callsubr
            -23 return
          </CharString>
          <CharString index="199">
            101 callsubr
            hstemhm
            return
          </CharString>
          <CharString index="200">
            -44 callgsubr
            10 callgsubr
            57 callgsubr
            return
          </CharString>
          <CharString index="201">
            -18 20 75 callsubr
          </CharString>
          <CharString index="202">
            -31 0 -13 hhcurveto
            return
          </CharString>
          <CharString index="203">
            rlineto
            -14 -3 -4 -19 20 hhcurveto
            20 4 19 14 3 hvcurveto
            return
          </CharString>
          <CharString index="204">
            hstemhm
            129 122 -32 122 return
          </CharString>
          <CharString index="205">
            175 callsubr
            -34 122 return
          </CharString>
          <CharString index="206">
            -2 -5 3 hvcurveto
            3 -5 return
          </CharString>
          <CharString index="207">
            -35 -12 -2 hvcurveto
            hintmask 01000100
            -50 -235 rlineto
            -234 hlineto
            -12 -35 0 -35 -8 hvcurveto
            -35 -7 35 0 12 hhcurveto
            hintmask 01001000
            234 hlineto
            hintmask 10010000
            return
          </CharString>
          <CharString index="208">
            170 callgsubr
            694 -20 return
          </CharString>
          <CharString index="209">
            107 -19 128 callgsubr
            return
          </CharString>
          <CharString index="210">
            -307 64 callsubr
            return
          </CharString>
          <CharString index="211">
            142 callsubr
            hstem
            return
          </CharString>
          <CharString index="212">
            483 rmoveto
            18 84 rlineto
            return
          </CharString>
          <CharString index="213">
            -107 21 190 callsubr
            return
          </CharString>
          <CharString index="214">
            -13 rlinecurve
            -1 hlineto
            1 14 -1 24 -5 40 -8 82 rcurveline
            -21 158 rlineto
            23 -3 -16 0 -12 hhcurveto
            -37 hlineto
            -21 -7 -5 -22 return
          </CharString>
          <CharString index="215">
            hlineto
            -12 -11 -9 -12 -2 hvcurveto
            -9 -43 rlineto
            -12 -3 7 -10 12 hhcurveto
            return
          </CharString>
          <CharString index="216">
            rmoveto
            109 callgsubr
            -8 186 callsubr
            7 26 15 25 22 19 return
          </CharString>
          <CharString index="217">
            hlineto
            -106 -227 -6 -13 -1 -2 -1 -5 rlinecurve
            -18 -4 12 -17 20 hhcurveto
            19 14 14 15 8 hvcurveto
            117 253 rlineto
            return
          </CharString>
          <CharString index="218">
            -344 -177 73 576 -20 return
          </CharString>
          <CharString index="219">
            -34 -13 -8 -39 -8 hvcurveto
            hintmask 10010000
            -83 callgsubr
          </CharString>
          <CharString index="220">
            706 342 rmoveto
            22 104 -4 78 -30 63 rrcurveto
            74 -36 -79 33 -87 hhcurveto
            -218 -68 callgsubr
            return
          </CharString>
          <CharString index="221">
            -5 124 callsubr
            return
          </CharString>
          <CharString index="222">
            88 21 150 callsubr
            return
          </CharString>
          <CharString index="223">
            24 21 131 callsubr
            return
          </CharString>
          <CharString index="224">
            37 -9 41 -9 -12 -56 rrcurveto
            return
          </CharString>
          <CharString index="225">
            70 348 64 135 -20 return
          </CharString>
          <CharString index="226">
            -1 52 callgsubr
            return
          </CharString>
          <CharString index="227">
            46 -4 -58 -53 -11 hvcurveto
            -31 -6 19 -25 31 hhcurveto
            31 31 25 31 6 hvcurveto
            115 25 -40 108 -104 hhcurveto
            return
          </CharString>
          <CharString index="228">
            229 0 93 110 75 0 81 -40 81 208 86 return
          </CharString>
          <CharString index="229">
            -137 123 callsubr
            64 202 36 136 59 return
          </CharString>
          <CharString index="230">
            68 callsubr
            72 return
          </CharString>
          <CharString index="231">
            -5 1 -5 hhcurveto
            -4 -3 -1 -1 -3 hvcurveto
            return
          </CharString>
          <CharString index="232">
            64 callsubr
            hstem
            return
          </CharString>
          <CharString index="233">
            -6 119 callsubr
            return
          </CharString>
          <CharString index="234">
            200 callsubr
            171 75 448 -20 return
          </CharString>
          <CharString index="235">
            -7 119 callsubr
            4 hlineto
            return
          </CharString>
          <CharString index="236">
            21 -21 408 64 168 64 return
          </CharString>
          <CharString index="237">
            372 114 66 114 return
          </CharString>
          <CharString index="238">
            -21 315 64 240 75 return
          </CharString>
          <CharString index="239">
            -5 0 -8 -4 -16 return
          </CharString>
          <CharString index="240">
            64 -9 64 hstemhm
            return
          </CharString>
          <CharString index="241">
            111 vstem
            500 237 rmoveto
            95 21 5 150 -143 hhcurveto
            -61 -47 -36 -19 -20 hvcurveto
            return
          </CharString>
          <CharString index="242">
            -21 472 -20 return
          </CharString>
          <CharString index="243">
            191 26 72 callgsubr
            return
          </CharString>
          <CharString index="244">
            -9 callsubr
            10 hvcurveto
            return
          </CharString>
          <CharString index="245">
            -15 -5 -3 -7 -8 hvcurveto
            -37 -30 -46 0 -16 -1 return
          </CharString>
          <CharString index="246">
            104 0 64 566 64 hstem
            74 64 return
          </CharString>
          <CharString index="247">
            -20 98 callsubr
            return
          </CharString>
          <CharString index="248">
            hstemhm
            163 callsubr
            return
          </CharString>
          <CharString index="249">
            -21 148 -20 return
          </CharString>
          <CharString index="250">
            -62 callsubr
            -20 -47 callgsubr
            return
          </CharString>
          <CharString index="251">
            57 callgsubr
            -46 5 58 48 67 hvcurveto
            36 -104 callsubr
            return
          </CharString>
          <CharString index="252">
            hlineto
            156 callgsubr
            -15 -13 -4 -16 rrcurveto
            -20 -4 11 -12 25 hhcurveto
            return
          </CharString>
          <CharString index="253">
            -58 callgsubr
            -33 -68 callgsubr
            return
          </CharString>
          <CharString index="254">
            418 169 callgsubr
            return
          </CharString>
          <CharString index="255">
            80 98 64 81 80 0 64 160 86 hstemhm
            return
          </CharString>
          <CharString index="256">
            -10 0 -15 hhcurveto
            -13 hlineto
            -19 return
          </CharString>
          <CharString index="257">
            -21 320 81 293 -20 return
          </CharString>
          <CharString index="258">
            64 364 64 212 -20 return
          </CharString>
          <CharString index="259">
            122 58 122 -110 115 -11 122 -67 115 hintmask 0001110010000000
            return
          </CharString>
          <CharString index="260">
            -4 -2 0 -1 -3 -12 -1 -7 rcurveline
            -16 -4 0 0 18 hhcurveto
            24 hlineto
            51 return
          </CharString>
          <CharString index="261">
            8 -23 hhcurveto
            -38 hlineto
            -27 -6 -11 -14 -7 hvcurveto
            -95 -169 -40 -74 -19 -38 return
          </CharString>
          <CharString index="262">
            -2 -4 -7 -17 -2 vvcurveto
            -8 -2 34 -57 89 hhcurveto
            83 74 40 92 19 hvcurveto
            return
          </CharString>
          <CharString index="263">
            hstemhm
            15 -25 callgsubr
            return
          </CharString>
          <CharString index="264">
            89 callsubr
            115 return
          </CharString>
          <CharString index="265">
            53 429 -20 return
          </CharString>
          <CharString index="266">
            -1 callgsubr
            hintmask 0000000001000000
            37 callgsubr
            return
          </CharString>
          <CharString index="267">
            -20 hstemhm
            126 111 -78 111 375 111 -109 111 return
          </CharString>
          <CharString index="268">
            -14 -3 -6 -30 30 hhcurveto
            31 6 29 15 3 hvcurveto
            167 783 rlineto
            return
          </CharString>
          <CharString index="269">
            178 callgsubr
            hstemhm
            return
          </CharString>
          <CharString index="270">
            528 122 return
          </CharString>
          <CharString index="271">
            98 callgsubr
            hstemhm
            196 86 -83 92 -20 86 return
          </CharString>
          <CharString index="272">
            62 40 8 hvcurveto
            endchar
          </CharString>
          <CharString index="273">
            -11 -54 rlineto
            -25 return
          </CharString>
          <CharString index="274">
            17 21 60 74 47 67 14 19 17 26 3 7 rrcurveto
            endchar
          </CharString>
          <CharString index="275">
            10 12 3 hvcurveto
            9 43 rlineto
            12 2 return
          </CharString>
          <CharString index="276">
            -179 0 67 338 67 return
          </CharString>
          <CharString index="277">
            hvcurveto
            28 6 1 17 -41 hhcurveto
            return
          </CharString>
          <CharString index="278">
            rlineto
            -31 -7 4 -13 38 hhcurveto
            return
          </CharString>
          <CharString index="279">
            -269 21 -21 460 18 return
          </CharString>
          <CharString index="280">
            -9 0 91 519 84 return
          </CharString>
          <CharString index="281">
            -10 -34 -7 hvcurveto
            -53 return
          </CharString>
          <CharString index="282">
            hstemhm
            167 callgsubr
            return
          </CharString>
          <CharString index="283">
            -83 -83 -31 -108 -14 -68 -17 -78 -12 -118 55 -77 return
          </CharString>
          <CharString index="284">
            rlineto
            111 hlineto
            203 -42 -196 -81 -17 hvcurveto
            endchar
          </CharString>
          <CharString index="285">
            -221 -200 -21 971 204 callsubr
            hintmask 00100000
            return
          </CharString>
          <CharString index="286">
            -34 -26 -19 -29 -8 199 callgsubr
            rrcurveto
            return
          </CharString>
          <CharString index="287">
            hlineto
            -24 -22 -14 -17 -3 hvcurveto
            -16 -4 16 -14 24 hhcurveto
            return
          </CharString>
          <CharString index="288">
            43 callgsubr
            hintmask 11010000
            return
          </CharString>
          <CharString index="289">
            22 rlineto
            18 4 -12 14 -17 hhcurveto
            return
          </CharString>
          <CharString index="290">
            -17 -14 -18 -3 hvcurveto
            return
          </CharString>
          <CharString index="291">
            hstemhm
            145 111 return
          </CharString>
          <CharString index="292">
            -21 162 -20 return
          </CharString>
          <CharString index="293">
            15 21 5 hvcurveto
            return
          </CharString>
          <CharString index="294">
            -23 -184 78 106 96 222 81 205 87 return
          </CharString>
          <CharString index="295">
            -12 -33 0 -35 -7 hvcurveto
            -35 -8 37 0 14 hhcurveto
            return
          </CharString>
          <CharString index="296">
            -107 -146 -21 157 return
          </CharString>
          <CharString index="297">
            -21 418 64 return
          </CharString>
          <CharString index="298">
            rlineto
            271 hlineto
            return
          </CharString>
          <CharString index="299">
            2 0 3 hhcurveto
            return
          </CharString>
          <CharString index="300">
            -2 -10 -4 -7 return
          </CharString>
          <CharString index="301">
            hlineto
            -5 -6 -4 -5 -2 hvcurveto
            -21 -54 rlineto
            -8 return
          </CharString>
          <CharString index="302">
            -19 80 66 75 141 64 231 75 hstemhm
            return
          </CharString>
          <CharString index="303">
            -56 64 275 64 0 64 275 64 hstemhm
            return
          </CharString>
          <CharString index="304">
            -201 -21 972 -20 hstem
            return
          </CharString>
          <CharString index="305">
            -18 19 23 -14 31 hhcurveto
            62 return
          </CharString>
          <CharString index="306">
            -10 64 0 47 131 47 return
          </CharString>
          <CharString index="307">
            46 99 callgsubr
            return
          </CharString>
          <CharString index="308">
            4 2 2 3 1 return
          </CharString>
          <CharString index="309">
            hvcurveto
            -1 -6 2 return
          </CharString>
          <CharString index="310">
            105 -22 116 return
          </CharString>
          <CharString index="311">
            -20 21 -20 hstemhm
            return
          </CharString>
          <CharString index="312">
            43 -25 43 -8 43 -25 43 hstemhm
            hintmask 10010000
            return
          </CharString>
          <CharString index="313">
            1 0 24 hhcurveto
            56 hlineto
            24 1 0 26 return
          </CharString>
          <CharString index="314">
            -58 -63 hhcurveto
            -17 -52 4 44 -27 hvcurveto
            7 return
          </CharString>
          <CharString index="315">
            193 callgsubr
            55 202 callgsubr
            return
          </CharString>
          <CharString index="316">
            -107 -10 151 callsubr
            hstem
            return
          </CharString>
          <CharString index="317">
            -80 callsubr
            -23 hlineto
            -35 return
          </CharString>
          <CharString index="318">
            hlineto
            8 2 4 7 1 8 rrcurveto
            endchar
          </CharString>
          <CharString index="319">
            93 552 87 return
          </CharString>
        <CharString name=".notdef">
          -310 endchar
        </CharString>
        <CharString name="A">
          25 callsubr
          hstem
          40 565 vstem
          -107 callsubr
          endchar
        </CharString>
        <CharString name="AE">
          121 callsubr
          34 callgsubr
          hintmask 11011100
          -32 callsubr
          endchar
        </CharString>
        <CharString name="AE.dup">
          121 callsubr
          34 callgsubr
          hintmask 11011100
          -32 callsubr
          endchar
        </CharString>
        <CharString name="AEacute">
          121 callsubr
          80 -21 121 -20 34 callgsubr
          hintmask 11011001
          -32 callsubr
          hintmask 00000110
          238 244 -99 callsubr
        </CharString>
        <CharString name="Aacute">
          25 callsubr
          100 162 callsubr
          40 565 hintmask 11100100
          -107 callsubr
          hintmask 00011000
          232 421 -99 callsubr
        </CharString>
        <CharString name="Abreve">
          25 callsubr
          79 80 59 -20 166 callgsubr
          hintmask 11100100
          -107 callsubr
          hintmask 00011000
          -13 callsubr
          endchar
        </CharString>
        <CharString name="Abreveacute">
          25 callsubr
          79 80 230 -20 166 callgsubr
          hintmask 11100100
          -107 callsubr
          hintmask 00011000
          -13 callsubr
          6 184 -99 callsubr
        </CharString>
        <CharString name="Abrevedotbelow">
          127 callsubr
          79 80 59 179 callgsubr
          hintmask 0111111000000000
          -107 callsubr
          -13 callsubr
          hintmask 1000000010000000
          -318 -1010 -92 callgsubr
          hintmask 1000000100000000
          -83 callgsubr
        </CharString>
        <CharString name="Abrevegrave">
          25 callsubr
          79 80 59 -20 166 callgsubr
          hintmask 11100100
          -107 callsubr
          hintmask 00011000
          -13 callsubr
          -10 103 -43 callsubr
        </CharString>
        <CharString name="Abrevehookabove">
          25 callsubr
          79 80 100 80 32 80 18 -20 166 callgsubr
          hintmask 11100001
          -107 callsubr
          hintmask 00010100
          -13 callsubr
          -26 209 rmoveto
          5 106 callgsubr
          hintmask 00000010
          155 callgsubr
          1 -4 5 -40 3 -3 3 78 callgsubr
          5 2 rlineto
          1 -16 callgsubr
          rrcurveto
          hintmask 00001100
          -2 -82 callgsubr
          4 21 rlinecurve
          endchar
        </CharString>
        <CharString name="Abrevetilde">
          25 callsubr
          79 80 129 64 -9 64 166 callgsubr
          hintmask 11100010
          -107 callsubr
          hintmask 00010100
          -13 callsubr
          39 207 -73 callgsubr
          -6 hvcurveto
          hintmask 00001000
          -23 -7 -14 0 callgsubr
        </CharString>
        <CharString name="Acaron">
          25 callsubr
          90 -21 127 -20 166 callgsubr
          hintmask 11100100
          -107 callsubr
          hintmask 00011000
          228 419 -93 callgsubr
        </CharString>
        <CharString name="Acircumflex">
          25 callsubr
          90 -21 127 -20 166 callgsubr
          hintmask 11100100
          -107 callsubr
          hintmask 00011000
          63 callsubr
          endchar
        </CharString>
        <CharString name="Acircumflexacute">
          25 callsubr
          90 -21 298 -20 166 callgsubr
          hintmask 11100100
          -107 callsubr
          hintmask 00011000
          63 callsubr
          12 254 -99 callsubr
        </CharString>
        <CharString name="Acircumflexdotbelow">
          127 callsubr
          90 -21 127 179 callgsubr
          hintmask 0111111000000000
          -107 callsubr
          63 callsubr
          hintmask 1000000010000000
          -307 -918 -92 callgsubr
          hintmask 1000000100000000
          -83 callgsubr
        </CharString>
        <CharString name="Acircumflexgrave">
          25 callsubr
          90 -21 127 -20 166 callgsubr
          hintmask 11100100
          -107 callsubr
          hintmask 00011000
          63 callsubr
          -4 173 -43 callsubr
        </CharString>
        <CharString name="Acircumflexhookabove">
          25 callsubr
          90 -21 378 -20 166 callgsubr
          hintmask 11100100
          -107 callsubr
          hintmask 00011000
          210 334 -76 callgsubr
        </CharString>
        <CharString name="Acircumflextilde">
          25 callsubr
          90 -21 197 64 -9 64 166 callgsubr
          hintmask 11100010
          -107 callsubr
          hintmask 00010100
          63 callsubr
          45 277 -73 callgsubr
          -5 hvcurveto
          hintmask 00001000
          -23 -8 66 callsubr
          -46 -62 -40 -9 hvcurveto
          hintmask 00001000
          -17 -3 164 callgsubr
          13 17 19 hhcurveto
          15 15 -13 -10 10 hvcurveto
          hintmask 00001000
          94 callsubr
        </CharString>
        <CharString name="Adblgrave">
          25 callsubr
          100 142 callsubr
          166 callgsubr
          hintmask 11100100
          -107 callsubr
          hintmask 00011000
          148 334 -77 callgsubr
        </CharString>
        <CharString name="Adieresis">
          25 callsubr
          69 106 166 callgsubr
          -295 36 callgsubr
          126 36 callgsubr
          hintmask 1110100000000000
          -107 callsubr
          hintmask 0001001000000000
          -22 354 rmoveto
          4 22 rlineto
          34 8 -8 -89 callgsubr
          hintmask 0001010010000000
          -88 callsubr
          hintmask 0001000100000000
          -85 callgsubr
          endchar
        </CharString>
        <CharString name="Adotbelow">
          46 -200 118 103 -21 171 75 448 179 callgsubr
          hintmask 01111000
          -107 callsubr
          hintmask 10000010
          -97 -584 -92 callgsubr
          hintmask 10000100
          -83 callgsubr
        </CharString>
        <CharString name="Agrave">
          25 callsubr
          100 162 callsubr
          40 565 hintmask 11100100
          -107 callsubr
          hintmask 00011000
          125 340 -58 callsubr
        </CharString>
        <CharString name="Ahookabove">
          25 callsubr
          90 -21 221 -20 166 callgsubr
          hintmask 11100100
          -107 callsubr
          hintmask 00011000
          156 456 -98 callgsubr
        </CharString>
        <CharString name="Alpha">
          25 callsubr
          hstem
          40 565 vstem
          -107 callsubr
          endchar
        </CharString>
        <CharString name="Amacron">
          25 callsubr
          89 73 166 callgsubr
          hintmask 11101000
          -107 callsubr
          hintmask 00010000
          215 358 -87 callsubr
        </CharString>
        <CharString name="Aogonek">
          188 callgsubr
          -11 callsubr
          endchar
        </CharString>
        <CharString name="Aogonekacute">
          188 callgsubr
          80 -21 121 -20 -11 callsubr
          hintmask 00001100
          232 421 -99 callsubr
        </CharString>
        <CharString name="Aring">
          12 callsubr
          41 66 41 166 callgsubr
          hintmask 11101000
          -107 callsubr
          hintmask 00110000
          85 337 rmoveto
          -31 -7 -23 -2 -24 hhcurveto
          -23 -24 1 32 7 -48 callsubr
          -16 53 callsubr
          16 hvcurveto
          endchar
        </CharString>
        <CharString name="Aringacute">
          12 callsubr
          41 66 41 171 -20 166 callgsubr
          hintmask 11100100
          -107 callsubr
          hintmask 00111000
          85 337 rmoveto
          -31 -7 -23 -2 -24 hhcurveto
          -23 -24 1 32 7 -48 callsubr
          -16 53 callsubr
          16 hvcurveto
          71 223 rmoveto
          5 11 5 17 -19 hhcurveto
          -127 hlineto
          -148 -103 rlineto
          -8 -10 1 -10 12 hhcurveto
          67 hlineto
          endchar
        </CharString>
        <CharString name="Atilde">
          25 callsubr
          69 64 -9 64 166 callgsubr
          hintmask 11100100
          -107 callsubr
          hintmask 00001000
          213 414 -66 callsubr
        </CharString>
        <CharString name="B">
          3 callgsubr
        </CharString>
        <CharString name="Beta">
          3 callgsubr
        </CharString>
        <CharString name="C">
          174 callgsubr
          hstem
          -84 callgsubr
          endchar
        </CharString>
        <CharString name="Cacute">
          174 callgsubr
          70 162 callsubr
          hintmask 11000000
          -84 callgsubr
          hintmask 00110000
          121 794 -99 callsubr
        </CharString>
        <CharString name="Ccaron">
          174 callgsubr
          60 -21 127 -20 hstemhm
          hintmask 11000000
          -84 callgsubr
          hintmask 00110000
          117 792 -93 callgsubr
        </CharString>
        <CharString name="Ccedilla">
          17 -19 86 560 86 hstem
          127 122 vstem
          121 callgsubr
          -36 -13 -70 hhcurveto
          -179 17 179 101 22 hvcurveto
          49 10 49 231 197 hhcurveto
          65 36 -21 -22 27 hvcurveto
          -7 8 152 callgsubr
          4 9 5 2 hvcurveto
          5 13 21 51 2 10 2 10 -3 1 -19 9 rrcurveto
          17 -42 -41 11 -63 hhcurveto
          -94 -98 -30 -77 -76 hvcurveto
          176 callsubr
          rrcurveto
          -63 45 72 -30 99 hhcurveto
          70 40 10 36 64 hvcurveto
          24 15 1 1 2 8 rrcurveto
          -201 -102 rmoveto
          11 2 149 callsubr
          -1 -20 callsubr
        </CharString>
        <CharString name="Ccircumflex">
          174 callgsubr
          60 -21 127 -20 hstemhm
          hintmask 11000000
          -84 callgsubr
          hintmask 00110000
          99 707 -84 callsubr
        </CharString>
        <CharString name="Cdotaccent">
          174 callgsubr
          39 118 hstemhm
          440 181 callsubr
          -84 callgsubr
          hintmask 00101000
          -7 732 rmoveto
          5 -88 callgsubr
          hintmask 00110000
          162 callgsubr
          endchar
        </CharString>
        <CharString name="Chi">
          6 callsubr
        </CharString>
        <CharString name="D">
          98 0 75 544 75 hstem
          587 119 vstem
          -46 callsubr
          endchar
        </CharString>
        <CharString name="Dcaron">
          98 0 75 544 75 70 -21 127 -20 hstemhm
          587 119 hintmask 11001000
          -46 callsubr
          hintmask 00110000
          22 508 -93 callgsubr
        </CharString>
        <CharString name="Dcroat">
          -12 callsubr
        </CharString>
        <CharString name="Ddotbelow">
          98 68 callsubr
          82 75 544 75 hstemhm
          161 -25 callgsubr
          297 119 hintmask 01100100
          -46 callsubr
          hintmask 10001000
          -303 -495 -61 callsubr
        </CharString>
        <CharString name="Delta">
          202 0 110 584 -20 hstem
          56 689 vstem
          745 24 rmoveto
          1 5 0 2 -3 12 -118 612 rcurveline
          39 -7 -22 0 -25 hhcurveto
          -55 hlineto
          -23 -25 0 -38 -24 hvcurveto
          -378 -613 -9 -13 0 -2 -1 -4 rlinecurve
          -24 -5 21 0 17 hhcurveto
          613 hlineto
          17 21 0 24 5 hvcurveto
          -147 86 rmoveto
          -379 hlineto
          292 481 rlineto
          endchar
        </CharString>
        <CharString name="Dlinebelow">
          98 -177 73 104 75 544 75 hstemhm
          587 119 hintmask 01110000
          -46 callsubr
          hintmask 10000000
          -191 -493 -53 callsubr
        </CharString>
        <CharString name="E">
          20 callsubr
          hstem
          163 callsubr
          vstem
          -105 callgsubr
          endchar
        </CharString>
        <CharString name="Eacute">
          20 callsubr
          141 callgsubr
          528 122 hintmask 11100100
          -105 callgsubr
          hintmask 00011000
          105 808 -99 callsubr
        </CharString>
        <CharString name="Ebreve">
          20 callsubr
          59 80 59 -20 141 callsubr
          hintmask 11100100
          -105 callgsubr
          hintmask 00011000
          94 813 -93 callsubr
          endchar
        </CharString>
        <CharString name="Ecaron">
          20 callsubr
          70 -21 127 -20 141 callsubr
          hintmask 11100100
          -105 callgsubr
          hintmask 00011000
          101 806 -93 callgsubr
        </CharString>
        <CharString name="Ecircumflex">
          20 callsubr
          70 -21 127 -11 callgsubr
          endchar
        </CharString>
        <CharString name="Ecircumflexacute">
          20 callsubr
          70 -21 298 -11 callgsubr
          12 254 -99 callsubr
        </CharString>
        <CharString name="Ecircumflexdotbelow">
          -23 68 callsubr
          82 94 224 81 205 90 70 -21 127 -20 hstemhm
          188 -25 callgsubr
          211 122 hintmask 0111110010000000
          -105 callgsubr
          -8 callsubr
          hintmask 1000000100000000
          -307 -918 -92 callgsubr
          hintmask 1000001000000000
          -83 callgsubr
        </CharString>
        <CharString name="Ecircumflexgrave">
          20 callsubr
          70 -21 127 -11 callgsubr
          -4 173 -43 callsubr
        </CharString>
        <CharString name="Ecircumflexhookabove">
          20 callsubr
          70 -21 378 -20 141 callsubr
          hintmask 11100100
          -105 callgsubr
          hintmask 00011100
          83 721 -76 callgsubr
        </CharString>
        <CharString name="Ecircumflextilde">
          20 callsubr
          70 -21 197 64 -9 64 141 callsubr
          hintmask 11100010
          -105 callgsubr
          hintmask 00010100
          -8 callsubr
          45 277 -73 callgsubr
          -5 hvcurveto
          hintmask 00001000
          -23 -8 66 callsubr
          -46 -62 -40 -9 hvcurveto
          hintmask 00001000
          -17 -3 164 callgsubr
          13 17 19 hhcurveto
          15 15 -13 -10 10 hvcurveto
          hintmask 00001000
          94 callsubr
        </CharString>
        <CharString name="Edblgrave">
          20 callsubr
          80 142 callsubr
          141 callsubr
          hintmask 11100100
          -105 callgsubr
          hintmask 00011000
          48 721 -77 callgsubr
        </CharString>
        <CharString name="Edieresis">
          20 callsubr
          49 106 hstemhm
          275 36 callgsubr
          126 36 callgsubr
          -103 122 hintmask 1110000010000000
          -105 callgsubr
          hintmask 0001010000000000
          -149 144 callgsubr
          hintmask 0001100100000000
          -88 callsubr
          hintmask 0001001000000000
          -85 callgsubr
          endchar
        </CharString>
        <CharString name="Edotaccent">
          20 callsubr
          49 118 hstemhm
          390 43 callgsubr
          10 122 hintmask 11100010
          -105 callgsubr
          hintmask 00010100
          -22 746 rmoveto
          5 -88 callgsubr
          hintmask 00011000
          162 callgsubr
          endchar
        </CharString>
        <CharString name="Edotbelow">
          -23 68 callsubr
          82 94 224 81 205 90 hstemhm
          188 -25 callgsubr
          211 122 hintmask 01110010
          -105 callgsubr
          hintmask 10000100
          -224 -197 -59 callgsubr
          endchar
        </CharString>
        <CharString name="Egrave">
          20 callsubr
          141 callgsubr
          528 122 hintmask 11100100
          -105 callgsubr
          hintmask 00011000
          -2 727 -58 callsubr
        </CharString>
        <CharString name="Ehookabove">
          20 callsubr
          70 -21 221 -20 141 callsubr
          hintmask 11100100
          -105 callgsubr
          hintmask 00011000
          29 843 -98 callgsubr
        </CharString>
        <CharString name="Emacron">
          20 callsubr
          69 73 141 callsubr
          hintmask 11101000
          -105 callgsubr
          hintmask 00010000
          88 745 -87 callsubr
        </CharString>
        <CharString name="Eng">
          88 601 112 hstem
          548 122 vstem
          670 347 rmoveto
          181 38 -25 185 -158 hhcurveto
          -64 -64 -21 -36 -55 hvcurveto
          27 5 -5 11 -35 hhcurveto
          -33 -97 callgsubr
          33 hlineto
          35 11 10 34 7 hvcurveto
          89 417 rlineto
          79 35 81 61 84 hhcurveto
          101 -29 -136 -118 -25 hvcurveto
          -22 -102 -24 -115 -72 -30 -20 -8 -21 -16 -4 -20 -8 -38 rcurveline
          -5 -21 14 -16 21 4 137 27 91 170 35 165 rrcurveto
          endchar
        </CharString>
        <CharString name="Eogonek">
          187 callsubr
          hstemhm
          298 122 -61 122 13 122 -88 122 hintmask 01110001
          535 44 rmoveto
          2 8 rlineto
          44 9 -19 0 -31 hhcurveto
          -141 -2 rlineto
          -24 -90 0 -2 -18 hvcurveto
          48 226 rlineto
          240 hlineto
          20 24 0 40 8 hvcurveto
          41 9 -23 0 -21 hhcurveto
          -240 hlineto
          43 205 rlineto
          46 hlineto
          212 -3 rlineto
          34 18 0 45 9 hvcurveto
          hintmask 01010110
          28 6 1 17 -41 hhcurveto
          -343 -56 callsubr
          233 hlineto
          hintmask 10001000
          179 callsubr
          hintmask 00000110
          42 1 30 13 34 13 rrcurveto
          7 3 6 14 7 vvcurveto
          10 callgsubr
          hintmask 11001000
          144 callsubr
          endchar
        </CharString>
        <CharString name="Eogonekacute">
          187 callsubr
          83 162 callsubr
          298 122 -61 122 13 122 -88 122 hintmask 0111000001000000
          535 44 rmoveto
          2 8 rlineto
          44 9 -19 0 -31 hhcurveto
          -141 -2 rlineto
          -24 -90 0 -2 -18 hvcurveto
          48 226 rlineto
          240 hlineto
          20 24 0 40 8 hvcurveto
          41 9 -23 0 -21 hhcurveto
          -240 hlineto
          43 205 rlineto
          46 hlineto
          212 -3 rlineto
          34 18 0 45 9 hvcurveto
          hintmask 0101000110000000
          28 6 1 17 -41 hhcurveto
          -343 -56 callsubr
          233 hlineto
          hintmask 1000001000000000
          179 callsubr
          hintmask 0000000110000000
          42 1 30 13 34 13 rrcurveto
          7 3 6 14 7 vvcurveto
          10 callgsubr
          hintmask 1100001000000000
          144 callsubr
          hintmask 0000110000000000
          105 808 -99 callsubr
        </CharString>
        <CharString name="Epsilon">
          20 callsubr
          hstem
          163 callsubr
          vstem
          -105 callgsubr
          endchar
        </CharString>
        <CharString name="Ereversed">
          -23 0 94 224 81 202 90 hstem
          536 45 rmoveto
          127 601 rlineto
          36 8 -8 9 -35 hhcurveto
          -343 hlineto
          -41 -7 -17 -28 -6 hvcurveto
          -45 -9 18 0 34 hhcurveto
          212 3 rlineto
          46 hlineto
          -43 -205 rlineto
          -240 hlineto
          -21 -23 0 -41 -9 hvcurveto
          -40 -8 24 0 20 hhcurveto
          240 hlineto
          -48 -226 rlineto
          2 -18 -90 0 -24 hhcurveto
          -141 2 rlineto
          -31 -19 0 -44 -9 hvcurveto
          -2 -8 rlineto
          -34 -7 7 -10 35 hhcurveto
          356 hlineto
          36 11 10 35 8 hvcurveto
          endchar
        </CharString>
        <CharString name="Eta">
          115 callsubr
          hstem
          92 callgsubr
          vstem
          -79 callsubr
          endchar
        </CharString>
        <CharString name="Eth">
          -12 callsubr
        </CharString>
        <CharString name="Etilde">
          20 callsubr
          49 64 -9 64 141 callsubr
          hintmask 11100100
          -105 callgsubr
          hintmask 00001000
          86 801 -66 callsubr
        </CharString>
        <CharString name="Euro">
          -21 -19 86 164 76 80 76 164 86 hstem
          180 122 vstem
          531 49 rmoveto
          8 64 rlineto
          5 1 -4 5 -5 hhcurveto
          -4 -3 -2 -2 -2 hvcurveto
          -33 -38 -47 -19 -46 hhcurveto
          -46 -34 29 41 -14 hvcurveto
          -10 30 -3 31 1 33 rrcurveto
          178 hlineto
          5 6 4 5 2 hvcurveto
          21 54 rlineto
          8 2 -4 5 -6 hhcurveto
          -195 hlineto
          8 40 9 40 rlineto
          213 hlineto
          5 5 4 5 2 hvcurveto
          21 54 rlineto
          8 2 -4 5 -6 hhcurveto
          -214 hlineto
          13 33 16 32 23 29 rrcurveto
          41 31 46 29 46 hhcurveto
          39 33 -17 -29 19 hvcurveto
          -2 2 2 -2 4 hhcurveto
          5 5 4 5 2 hvcurveto
          31 80 2 5 -1 4 -3 2 rlinecurve
          24 -34 -42 12 -45 hhcurveto
          -79 -83 -33 -63 -60 hvcurveto
          -43 -46 -30 -53 -21 -55 rrcurveto
          -46 194 callsubr
          -1 3 -5 7 hhcurveto
          47 hlineto
          -9 -40 -8 -40 rlineto
          -38 194 callsubr
          -2 52 callgsubr
          56 hlineto
          -2 -55 7 -53 23 -45 rrcurveto
          -64 33 69 -33 79 hhcurveto
          53 55 21 38 45 hvcurveto
          3 3 2 3 3 vvcurveto
          endchar
        </CharString>
        <CharString name="F">
          -50 21 -21 305 81 215 93 hstem
          636 646 rmoveto
          28 6 1 17 -41 hhcurveto
          -329 120 callgsubr
          56 261 rlineto
          213 hlineto
          20 24 0 40 8 hvcurveto
          41 9 -23 0 -21 hhcurveto
          -213 hlineto
          46 218 rlineto
          40 hlineto
          205 -3 rlineto
          33 18 0 45 9 hvcurveto
          endchar
        </CharString>
        <CharString name="G">
          116 callgsubr
          hstem
          -101 callgsubr
          endchar
        </CharString>
        <CharString name="Gacute">
          116 callgsubr
          70 162 callsubr
          hintmask 11100000
          -101 callgsubr
          hintmask 00011000
          94 802 -99 callsubr
        </CharString>
        <CharString name="Gamma">
          -76 21 -21 604 87 hstem
          610 646 rmoveto
          28 6 1 17 -41 hhcurveto
          -303 120 callgsubr
          119 560 rlineto
          31 hlineto
          190 -3 rlineto
          32 17 1 44 9 hvcurveto
          endchar
        </CharString>
        <CharString name="Gbreve">
          116 callgsubr
          49 80 59 -20 hstemhm
          hintmask 11100000
          -101 callgsubr
          hintmask 00011000
          83 807 -93 callsubr
          endchar
        </CharString>
        <CharString name="Gcaron">
          116 callgsubr
          60 -21 127 -20 hstemhm
          hintmask 11100000
          -101 callgsubr
          hintmask 00011000
          90 800 -93 callgsubr
        </CharString>
        <CharString name="Gcedilla">
          43 70 callsubr
          58 103 callgsubr
          hstem
          -101 callgsubr
          -245 -190 -102 callgsubr
        </CharString>
        <CharString name="Gcircumflex">
          116 callgsubr
          60 -21 127 -20 hstemhm
          hintmask 11100000
          -101 callgsubr
          hintmask 00011000
          72 715 -84 callsubr
        </CharString>
        <CharString name="Gcommaaccent">
          43 70 callsubr
          58 103 callgsubr
          hstemhm
          hintmask 00111000
          -101 callgsubr
          hintmask 11000000
          -245 -190 -102 callgsubr
        </CharString>
        <CharString name="Gdotaccent">
          116 callgsubr
          39 118 hstemhm
          423 43 callgsubr
          hintmask 11100000
          -101 callgsubr
          hintmask 00010100
          -33 740 rmoveto
          5 -88 callgsubr
          hintmask 00011000
          162 callgsubr
          endchar
        </CharString>
        <CharString name="H">
          115 callsubr
          hstem
          92 callgsubr
          vstem
          -79 callsubr
          endchar
        </CharString>
        <CharString name="H_uni0303">
          115 callsubr
          69 64 -9 64 hstemhm
          92 callgsubr
          hintmask 11100111
          -79 callsubr
          hintmask 00001000
          72 801 -66 callsubr
        </CharString>
        <CharString name="Hbar">
          88 21 -21 320 81 77 86 0 86 44 -20 hstemhm
          576 122 -104 122 -104 122 cntrmask 00000111
          hintmask 00011111
          779 510 rmoveto
          5 182 callsubr
          -43 hlineto
          18 86 -80 callsubr
          -34 -47 callgsubr
          -18 -86 rlineto
          -271 hlineto
          18 86 -80 callsubr
          -33 -68 callgsubr
          -18 -85 rlineto
          -43 hlineto
          -17 -18 -14 -18 -4 hvcurveto
          -5 -22 rlineto
          hintmask 11100111
          -18 -3 12 -14 17 hhcurveto
          43 hlineto
          -92 -433 -22 callsubr
          59 276 191 callsubr
          -59 -276 48 callsubr
          93 434 rlineto
          43 hlineto
          17 18 14 18 3 hvcurveto
          -220 -109 rmoveto
          -271 hlineto
          17 77 191 callsubr
          endchar
        </CharString>
        <CharString name="Hbrevebelow">
          88 -210 80 59 -20 112 150 callsubr
          hstemhm
          92 callgsubr
          hintmask 00111111
          -79 callsubr
          hintmask 11000000
          -126 -150 -30 callsubr
        </CharString>
        <CharString name="Hcircumflex">
          115 callsubr
          90 -21 127 -20 hstemhm
          92 callgsubr
          hintmask 11100111
          -79 callsubr
          hintmask 00011000
          69 17 callgsubr
        </CharString>
        <CharString name="Hdieresis">
          115 callsubr
          69 106 175 callsubr
          -10 36 callgsubr
          37 122 -33 36 callgsubr
          -75 122 hintmask 1110100100100000
          -79 callsubr
          hintmask 0001001000000000
          -163 144 callgsubr
          hintmask 0001010001000000
          -88 callsubr
          hintmask 0001000010000000
          -85 callgsubr
          endchar
        </CharString>
        <CharString name="Hdotbelow">
          88 -200 118 103 150 callsubr
          175 callsubr
          -97 -25 callgsubr
          110 122 7 122 hintmask 0111100110000000
          -79 callsubr
          hintmask 1000001000000000
          -238 -197 -37 callgsubr
        </CharString>
        <CharString name="I">
          103 callsubr
          hstem
          218 122 vstem
          211 44 rmoveto
          146 callsubr
          -21 callgsubr
          -22 callsubr
          endchar
        </CharString>
        <CharString name="I_J">
          115 -19 79 634 -20 hstem
          218 122 302 119 vstem
          211 44 rmoveto
          146 callsubr
          -21 callgsubr
          -22 callsubr
          443 103 -52 callsubr
          endchar
        </CharString>
        <CharString name="Iacute">
          103 callsubr
          100 162 callsubr
          218 122 hintmask 11001000
          211 44 rmoveto
          146 callsubr
          -21 callgsubr
          -22 callsubr
          hintmask 00110000
          316 808 -99 callsubr
        </CharString>
        <CharString name="Ibreve">
          103 callsubr
          79 80 59 -20 hstemhm
          218 122 hintmask 11001000
          211 44 rmoveto
          146 callsubr
          -21 callgsubr
          -22 callsubr
          hintmask 00110000
          276 813 -93 callsubr
          endchar
        </CharString>
        <CharString name="Icaron">
          103 callsubr
          90 -21 127 -20 hstemhm
          218 122 hintmask 11001000
          211 44 rmoveto
          146 callsubr
          -21 callgsubr
          -22 callsubr
          hintmask 00110000
          283 806 -93 callgsubr
        </CharString>
        <CharString name="Icircumflex">
          103 callsubr
          90 -21 127 -20 hstemhm
          218 122 hintmask 11001000
          211 44 rmoveto
          146 callsubr
          -21 callgsubr
          -22 callsubr
          hintmask 00110000
          265 17 callgsubr
        </CharString>
        <CharString name="Idblgrave">
          103 callsubr
          100 142 callsubr
          hstemhm
          218 122 hintmask 11001000
          211 44 rmoveto
          146 callsubr
          -21 callgsubr
          -22 callsubr
          hintmask 00110000
          230 721 -77 callgsubr
        </CharString>
        <CharString name="Idieresis">
          103 callsubr
          69 106 hstemhm
          133 36 callgsubr
          -30 122 34 36 callgsubr
          hintmask 11000100
          211 44 rmoveto
          146 callsubr
          -21 callgsubr
          -22 callsubr
          hintmask 00101000
          33 144 callgsubr
          hintmask 00110001
          -88 callsubr
          hintmask 00100010
          -85 callgsubr
          endchar
        </CharString>
        <CharString name="Idieresisacute">
          103 callsubr
          69 106 141 callgsubr
          133 36 callgsubr
          -30 122 34 36 callgsubr
          hintmask 1100000100000000
          211 44 rmoveto
          146 callsubr
          -21 callgsubr
          -22 callsubr
          hintmask 0010001000000000
          33 144 callgsubr
          hintmask 0010010001000000
          -88 callsubr
          hintmask 0011100010000000
          -85 callgsubr
          46 222 -99 callsubr
        </CharString>
        <CharString name="Idotaccent">
          103 callsubr
          69 118 hstemhm
          218 122 -92 181 callsubr
          211 44 rmoveto
          146 callsubr
          -21 callgsubr
          -22 callsubr
          hintmask 00100100
          160 746 rmoveto
          5 -88 callgsubr
          hintmask 00101000
          162 callgsubr
          endchar
        </CharString>
        <CharString name="Idotbelow">
          -307 99 callgsubr
          694 -20 hstemhm
          47 -25 callgsubr
          42 122 hintmask 01100100
          211 44 rmoveto
          146 callsubr
          -21 callgsubr
          -22 callsubr
          hintmask 10001000
          -41 -197 -61 callsubr
        </CharString>
        <CharString name="Igrave">
          103 callsubr
          100 162 callsubr
          218 122 hintmask 11001000
          211 44 rmoveto
          146 callsubr
          -21 callgsubr
          -22 callsubr
          hintmask 00110000
          150 727 -58 callsubr
        </CharString>
        <CharString name="Ihookabove">
          103 callsubr
          90 -21 221 -20 hstemhm
          218 122 hintmask 11001000
          211 44 rmoveto
          146 callsubr
          -21 callgsubr
          -22 callsubr
          hintmask 00111000
          211 843 -98 callgsubr
        </CharString>
        <CharString name="Imacron">
          103 callsubr
          89 73 hstemhm
          218 122 hintmask 11010000
          211 44 rmoveto
          146 callsubr
          -21 callgsubr
          -22 callsubr
          hintmask 00100000
          270 745 -87 callsubr
        </CharString>
        <CharString name="Imacron.alt">
          103 callsubr
          89 73 hstemhm
          218 122 hintmask 11010000
          211 44 rmoveto
          146 callsubr
          -21 callgsubr
          -22 callsubr
          hintmask 00110000
          191 745 12 callgsubr
        </CharString>
        <CharString name="Iogonek">
          -307 -184 80 125 73 callgsubr
          hstem
          90 209 callgsubr
          cntrmask 00011100
          215 -133 rmoveto
          -3 29 rlineto
          10 -13 2 -6 -3 vhcurveto
          75 callgsubr
          -21 callgsubr
          -5 -20 1 -12 7 -6 rlinecurve
          -37 -24 -27 -37 -10 -41 137 callgsubr
        </CharString>
        <CharString name="Iogonekacute">
          -307 -184 80 125 73 callgsubr
          100 162 callsubr
          19 122 -51 209 callgsubr
          0 122 hintmask 1000001000000000
          215 54 callsubr
          hintmask 0110010001000000
          75 callgsubr
          hintmask 0000001000000000
          -21 callgsubr
          rlineto
          hintmask 0000000100000000
          -5 -20 1 -12 7 -6 rrcurveto
          hintmask 0000010000000000
          -37 -24 -27 -37 -10 -41 rrcurveto
          hintmask 1000000010000000
          56 callgsubr
          42 1 30 13 34 13 rrcurveto
          hintmask 0000000100000000
          7 3 6 14 7 vvcurveto
          hintmask 0001100000000000
          312 985 -99 callsubr
        </CharString>
        <CharString name="Iota">
          103 callsubr
          hstem
          218 122 vstem
          211 44 rmoveto
          146 callsubr
          -21 callgsubr
          -22 callsubr
          endchar
        </CharString>
        <CharString name="Itilde">
          103 callsubr
          69 133 callsubr
          218 122 hintmask 11001000
          211 44 rmoveto
          146 callsubr
          -21 callgsubr
          -22 callsubr
          hintmask 00010000
          268 801 -78 callsubr
        </CharString>
        <CharString name="J">
          198 callgsubr
          hstem
          387 119 vstem
          399 147 -52 callsubr
          endchar
        </CharString>
        <CharString name="J_uni030C.cap">
          -140 -19 79 459 -21 100 96 hstem
          387 119 vstem
          399 147 -52 callsubr
          231 475 rmoveto
          -18 callsubr
        </CharString>
        <CharString name="Jacute">
          198 callgsubr
          100 162 callsubr
          387 119 hintmask 11001000
          399 147 -52 callsubr
          hintmask 00110000
          297 705 -99 callsubr
        </CharString>
        <CharString name="Jcircumflex">
          198 callgsubr
          90 -21 127 -20 hstemhm
          387 119 hintmask 11001000
          399 147 -52 callsubr
          hintmask 00110000
          245 618 -84 callsubr
        </CharString>
        <CharString name="K">
          73 125 callsubr
          219 111 vstem
          -53 callgsubr
          endchar
        </CharString>
        <CharString name="Kappa">
          73 125 callsubr
          219 111 vstem
          -53 callgsubr
          endchar
        </CharString>
        <CharString name="Kcedilla">
          73 101 callsubr
          hstem
          219 111 vstem
          -53 callgsubr
          -262 -167 -102 callgsubr
        </CharString>
        <CharString name="Kcommaaccent">
          73 92 callsubr
          219 111 hintmask 00111000
          -53 callgsubr
          hintmask 11000000
          -262 -167 -102 callgsubr
        </CharString>
        <CharString name="L">
          -76 0 91 603 140 callsubr
          hintmask 10100000
          1 callsubr
          hintmask 01010000
          -73 callsubr
          -33 hlineto
          hintmask 10100000
          -101 callsubr
          hintmask 10010000
          303 59 callgsubr
          endchar
        </CharString>
        <CharString name="L_uni0303">
          -76 0 91 603 -20 69 64 -9 64 98 callsubr
          hintmask 10001000
          1 callsubr
          hintmask 01000100
          -73 callsubr
          -33 hlineto
          hintmask 10001000
          -101 callsubr
          hintmask 10000100
          303 59 callgsubr
          hintmask 00010000
          -3 800 -78 callsubr
        </CharString>
        <CharString name="Lacute">
          -76 0 91 603 -20 100 -21 121 140 callsubr
          hintmask 10001000
          1 callsubr
          hintmask 01000100
          -73 callsubr
          -33 hlineto
          hintmask 10001000
          -101 callsubr
          hintmask 10000100
          303 59 callgsubr
          hintmask 00110000
          45 807 -99 callsubr
        </CharString>
        <CharString name="Lambda">
          -7 125 callsubr
          39 514 vstem
          553 25 rmoveto
          1 4 -1 6 7 vvcurveto
          -40 614 rlineto
          38 -2 -23 0 -21 hhcurveto
          -56 hlineto
          -21 -24 0 -38 -19 hvcurveto
          -300 -616 rlineto
          -7 -12 -1 -3 0 vvcurveto
          -25 -5 26 0 13 hhcurveto
          15 hlineto
          22 23 0 40 20 hvcurveto
          122 251 70 151 18 40 33 73 8 29 rlinecurve
          1 hlineto
          -3 -26 0 -76 4 -67 21 -375 rcurveline
          -40 2 23 0 22 hhcurveto
          35 hlineto
          13 26 0 25 5 hvcurveto
          endchar
        </CharString>
        <CharString name="Lcaron">
          -76 0 91 428 -21 100 96 98 callsubr
          69 callgsubr
          hintmask 11101000
          303 59 callgsubr
          577 vmoveto
          -18 callsubr
        </CharString>
        <CharString name="Lcedilla">
          -76 70 callsubr
          68 91 603 140 callsubr
          hintmask 00101000
          1 callsubr
          hintmask 00010100
          -73 callsubr
          -33 hlineto
          hintmask 00101000
          -101 callsubr
          hintmask 11100100
          303 59 callgsubr
          -209 -185 -102 callgsubr
        </CharString>
        <CharString name="Lcommaaccent">
          -76 70 callsubr
          68 91 603 140 callsubr
          hintmask 00101000
          1 callsubr
          hintmask 00010100
          -73 callsubr
          -33 hlineto
          hintmask 00101000
          -101 callsubr
          hintmask 00100100
          303 59 callgsubr
          hintmask 11000000
          -209 -185 -102 callgsubr
        </CharString>
        <CharString name="Ldot">
          -76 0 91 216 118 269 140 callsubr
          -17 43 callgsubr
          69 callgsubr
          hintmask 10001000
          303 59 callgsubr
          52 309 rmoveto
          hintmask 01000010
          161 callgsubr
          hintmask 01000100
          -5 -24 rlineto
          -36 -7 6 -26 callsubr
          endchar
        </CharString>
        <CharString name="Ldotbelow">
          207 callgsubr
          hstemhm
          162 -25 callgsubr
          -72 122 -34 122 hintmask 01000100
          1 callsubr
          hintmask 00100010
          -73 callsubr
          -33 hlineto
          hintmask 01000100
          -101 callsubr
          hintmask 01000010
          303 59 callgsubr
          hintmask 10001000
          -198 -198 -61 callsubr
        </CharString>
        <CharString name="Ldotbelowmacron">
          207 callgsubr
          89 73 hstemhm
          162 -25 callgsubr
          -72 122 -34 122 hintmask 01000010
          1 callsubr
          hintmask 00100001
          -73 callsubr
          -33 hlineto
          hintmask 01000010
          -101 callsubr
          hintmask 11000101
          303 59 callgsubr
          -198 -198 -59 callgsubr
          hintmask 00010000
          197 942 -87 callsubr
        </CharString>
        <CharString name="Lslash">
          3 0 87 607 -20 hstemhm
          303 122 -34 122 hintmask 10100000
          567 45 rmoveto
          23 4 5 23 -42 hhcurveto
          -229 -4 62 290 197 153 9 7 3 12 -6 8 rlinecurve
          -22 30 -6 8 -12 0 -8 -7 rlinecurve
          -132 -102 35 164 rlineto
          hintmask 01010000
          -73 callsubr
          -33 hlineto
          hintmask 10100000
          -91 callsubr
          -59 -277 -114 -89 -9 -7 -3 -11 6 -8 rlinecurve
          22 -31 6 -7 10 -2 10 8 rlinecurve
          49 39 -46 -219 -96 callsubr
          hintmask 10010000
          303 59 callgsubr
          endchar
        </CharString>
        <CharString name="M">
          246 125 callsubr
          331 104 224 104 vstem
          -54 callgsubr
          endchar
        </CharString>
        <CharString name="Mdotbelow">
          246 99 callgsubr
          694 -20 hstemhm
          323 -25 callgsubr
          -121 104 224 104 hintmask 01100110
          -54 callgsubr
          hintmask 10001000
          -317 -197 -61 callsubr
        </CharString>
        <CharString name="Mu">
          246 125 callsubr
          331 104 224 104 vstem
          -54 callgsubr
          endchar
        </CharString>
        <CharString name="N">
          88 125 callsubr
          630 104 vstem
          -95 callsubr
          endchar
        </CharString>
        <CharString name="Nacute">
          88 64 callsubr
          100 162 callsubr
          630 104 hintmask 11001000
          -95 callsubr
          hintmask 00110000
          91 808 -99 callsubr
        </CharString>
        <CharString name="Ncaron">
          88 64 callsubr
          90 -21 127 -20 hstemhm
          630 104 hintmask 11001000
          -95 callsubr
          hintmask 00110000
          87 806 -93 callgsubr
        </CharString>
        <CharString name="Ncedilla">
          88 101 callsubr
          hstem
          630 104 vstem
          -95 callsubr
          -249 -184 -102 callgsubr
        </CharString>
        <CharString name="Ncommaaccent">
          88 92 callsubr
          630 104 hintmask 00111000
          -95 callsubr
          hintmask 11000000
          -249 -184 -102 callgsubr
        </CharString>
        <CharString name="Ndotaccent">
          88 64 callsubr
          69 118 hstemhm
          445 43 callgsubr
          57 104 hintmask 11000100
          -95 callsubr
          hintmask 00101000
          -37 746 rmoveto
          5 -88 callgsubr
          hintmask 00110000
          162 callgsubr
          endchar
        </CharString>
        <CharString name="Ndotbelow">
          88 99 callgsubr
          694 -20 hstemhm
          244 -25 callgsubr
          257 104 hintmask 01100100
          -95 callsubr
          hintmask 10001000
          -238 -197 -61 callsubr
        </CharString>
        <CharString name="Ntilde">
          88 64 callsubr
          69 133 callsubr
          630 104 hintmask 11001000
          -95 callsubr
          hintmask 00010000
          72 801 -78 callsubr
        </CharString>
        <CharString name="Nu">
          88 125 callsubr
          630 104 vstem
          -95 callsubr
          endchar
        </CharString>
        <CharString name="O">
          56 callsubr
          hstem
          -106 callsubr
          endchar
        </CharString>
        <CharString name="OE">
          -32 callgsubr
        </CharString>
        <CharString name="OE.dup">
          -32 callgsubr
        </CharString>
        <CharString name="Oacute">
          56 callsubr
          61 162 callsubr
          hintmask 11000000
          -106 callsubr
          hintmask 00110000
          108 494 -99 callsubr
        </CharString>
        <CharString name="Obreve">
          56 callsubr
          40 80 59 -20 hstemhm
          hintmask 11000000
          -106 callsubr
          hintmask 00110000
          97 499 -93 callsubr
          endchar
        </CharString>
        <CharString name="Ocaron">
          56 callsubr
          51 -21 127 -20 hstemhm
          hintmask 11000000
          -106 callsubr
          hintmask 00110000
          104 492 -93 callgsubr
        </CharString>
        <CharString name="Ocircumflex">
          56 callsubr
          51 -21 127 -20 hstemhm
          hintmask 11000000
          -106 callsubr
          hintmask 00110000
          65 callgsubr
          endchar
        </CharString>
        <CharString name="Ocircumflexacute">
          56 callsubr
          51 -21 298 -20 hstemhm
          hintmask 11000000
          -106 callsubr
          hintmask 00110000
          65 callgsubr
          12 254 -99 callsubr
        </CharString>
        <CharString name="Ocircumflexdotbelow">
          208 callgsubr
          51 -21 127 -20 hstemhm
          254 -25 callgsubr
          hintmask 01111000
          -106 callsubr
          65 callgsubr
          hintmask 10000010
          -306 -918 -92 callgsubr
          hintmask 10000100
          -83 callgsubr
        </CharString>
        <CharString name="Ocircumflexgrave">
          56 callsubr
          51 -21 127 -20 hstemhm
          hintmask 11000000
          -106 callsubr
          hintmask 00110000
          65 callgsubr
          -4 173 -43 callsubr
        </CharString>
        <CharString name="Ocircumflexhookabove">
          56 callsubr
          51 -21 378 -20 hstemhm
          hintmask 11000000
          -106 callsubr
          hintmask 00110000
          86 407 -76 callgsubr
        </CharString>
        <CharString name="Ocircumflextilde">
          56 callsubr
          51 -21 197 133 callsubr
          hintmask 11000000
          -106 callsubr
          hintmask 00101000
          65 callgsubr
          45 277 -73 callgsubr
          -5 hvcurveto
          hintmask 00010000
          -50 callgsubr
          hintmask 00001000
          -51 callsubr
          hintmask 00010000
          -46 callgsubr
          hintmask 00001000
          137 callsubr
          hintmask 00010000
          94 callsubr
        </CharString>
        <CharString name="Odblgrave">
          56 callsubr
          61 142 callsubr
          hstemhm
          hintmask 11000000
          -106 callsubr
          hintmask 00110000
          51 407 -77 callgsubr
        </CharString>
        <CharString name="Odieresis">
          56 callsubr
          30 106 hstemhm
          340 36 callgsubr
          126 36 callgsubr
          hintmask 11001000
          -106 callsubr
          hintmask 00101000
          -146 427 rmoveto
          4 22 rlineto
          34 8 -8 -89 callgsubr
          hintmask 00110010
          -88 callsubr
          hintmask 00100100
          -85 callgsubr
          endchar
        </CharString>
        <CharString name="Odotbelow">
          208 callgsubr
          hstemhm
          254 -25 callgsubr
          hintmask 01100000
          -106 callsubr
          hintmask 10001000
          -220 -511 -61 callsubr
        </CharString>
        <CharString name="Ograve">
          56 callsubr
          61 162 callsubr
          hintmask 11000000
          -106 callsubr
          hintmask 00110000
          1 413 -58 callsubr
        </CharString>
        <CharString name="Ohookabove">
          56 callsubr
          51 -21 221 -20 hstemhm
          hintmask 11000000
          -106 callsubr
          hintmask 00110000
          32 529 -98 callgsubr
        </CharString>
        <CharString name="Ohorn">
          102 callsubr
          86 -20 hstemhm
          677 105 -105 123 -105 105 cntrmask 00000111
          hintmask 00101111
          28 callgsubr
          3 2 2 3 1 4 18 83 rcurveline
          -1 callgsubr
          -6 -6 -5 -6 -1 hvcurveto
          -18 -83 rlineto
          128 callsubr
          -37 -27 rlineto
          hintmask 10010111
          -67 callgsubr
          hintmask 01000111
          8 callsubr
          endchar
        </CharString>
        <CharString name="Ohornacute">
          102 callsubr
          60 -21 47 -20 94 -71 callsubr
          82 491 -99 callsubr
        </CharString>
        <CharString name="Ohorndotbelow">
          107 68 callsubr
          63 128 callgsubr
          86 -20 hstemhm
          254 -25 callgsubr
          270 123 -99 123 callgsubr
          hintmask 0001000010000000
          28 callgsubr
          hintmask 0001000001000000
          3 2 2 3 1 4 rrcurveto
          hintmask 0000000000010000
          18 83 rlineto
          hintmask 0000010000100000
          -1 callgsubr
          hintmask 0000000000010000
          37 callgsubr
          hintmask 0001000001000000
          -18 -83 rlineto
          hintmask 0000000000100000
          128 callsubr
          hintmask 0100100110000000
          -37 -27 rlineto
          -67 callgsubr
          hintmask 0010000000000000
          8 callsubr
          hintmask 1000000100000000
          -220 -514 -92 callgsubr
          hintmask 1000001000000000
          -83 callgsubr
        </CharString>
        <CharString name="Ohorngrave">
          102 callsubr
          60 -21 47 -20 94 -71 callsubr
          1 410 -58 callsubr
        </CharString>
        <CharString name="Ohornhookabove">
          102 callsubr
          50 -21 57 -20 184 -71 callsubr
          32 526 -98 callgsubr
        </CharString>
        <CharString name="Ohorntilde">
          102 callsubr
          29 64 -9 64 148 callgsubr
          hintmask 0010001000000000
          28 callgsubr
          hintmask 0010000100000000
          3 2 2 3 1 4 rrcurveto
          hintmask 0000000001000000
          18 83 rlineto
          hintmask 0000000010000000
          159 callsubr
          hintmask 0010000100000000
          -18 -83 rlineto
          hintmask 0000000010000000
          128 callsubr
          hintmask 1001001000000000
          -57 callgsubr
          hintmask 0000010000000000
          89 484 -73 callgsubr
          -5 hvcurveto
          hintmask 0000100000000000
          -50 callgsubr
          hintmask 0000010000000000
          -51 callsubr
          hintmask 0000100000000000
          -46 callgsubr
          hintmask 0000010000000000
          24 callsubr
          hintmask 0000100010000000
          -16 callsubr
        </CharString>
        <CharString name="Ohungarumlaut">
          56 callsubr
          61 142 callsubr
          hstemhm
          hintmask 11000000
          -106 callsubr
          hintmask 00110000
          -61 532 rmoveto
          -28 callgsubr
          158 hmoveto
          -28 callgsubr
          endchar
        </CharString>
        <CharString name="Omacron">
          56 callsubr
          50 73 hstemhm
          hintmask 11000000
          -106 callsubr
          hintmask 00100000
          91 431 -87 callsubr
        </CharString>
        <CharString name="Omega">
          -23 callgsubr
        </CharString>
        <CharString name="Omicron">
          56 callsubr
          hstem
          -106 callsubr
          endchar
        </CharString>
        <CharString name="Oogonek">
          56 callsubr
          hstem
          247 122 vstem
          -15 callsubr
          endchar
        </CharString>
        <CharString name="Oogonekacute">
          56 callsubr
          61 162 callsubr
          247 122 hintmask 11001000
          -15 callsubr
          hintmask 00110000
          108 494 -99 callsubr
        </CharString>
        <CharString name="Orogate">
          107 716 342 rmoveto
          9 43 22 115 -36 88 -38 92 -81 26 -60 5 24 111 rcurveline
          25 -14 14 -18 -15 -13 -11 -14 -3 vhcurveto
          -27 -125 -83 -8 -79 -37 -57 -63 rlinecurve
          -49 -55 -44 -74 -28 -132 -19 -87 -10 -106 52 -81 30 -46 57 -32 76 -7 -24 -111 rcurveline
          -24 -1 15 -15 17 hhcurveto
          16 13 11 15 3 hvcurveto
          26 124 64 5 76 25 62 59 rlinecurve
          84 79 35 107 18 84 rrcurveto
          -119 16 rmoveto
          -13 -63 -18 -73 -42 -66 rrcurveto
          -88 -57 -71 -15 -37 hhcurveto
          -38 -64 16 88 -19 hvcurveto
          -12 59 8 62 17 80 11 49 18 89 51 65 rrcurveto
          65 50 62 17 42 hhcurveto
          31 66 -10 -77 23 hvcurveto
          20 -64 -16 -77 -12 -57 rrcurveto
          endchar
        </CharString>
        <CharString name="Oslash">
          -37 callsubr
        </CharString>
        <CharString name="Oslash.dup">
          -37 callsubr
        </CharString>
        <CharString name="Oslashacute">
          149 -54 -21 56 64 579 64 -39 64 56 -20 25 -21 121 160 callsubr
          hintmask 0010100001000000
          758 342 rmoveto
          27 128 -8 118 -75 65 43 61 rcurveline
          10 13 0 2 1 6 rrcurveto
          24 5 -22 10 -13 hhcurveto
          -19 -8 -11 -12 -8 hvcurveto
          -43 -58 rlineto
          hintmask 0001000010000000
          22 -50 -48 3 -29 hhcurveto
          -96 -92 -34 -60 -63 hvcurveto
          hintmask 0000000100000000
          -85 -79 -39 -101 -20 -97 -25 -116 3 -120 78 -67 -5 -8 -15 -21 -7 -8 -10 -14 -14 -20 -2 -9 rrcurveto
          hintmask 1000000010000000
          -24 -5 22 -10 13 hhcurveto
          19 6 7 26 19 hvcurveto
          hintmask 0101000100100000
          34 47 rlineto
          -20 46 48 -4 34 hhcurveto
          105 90 39 55 59 hvcurveto
          77 72 40 93 22 102 rrcurveto
          -156 282 rmoveto
          -363 -506 -30 61 9 74 19 90 rlinecurve
          81 17 48 225 205 hhcurveto
          hintmask 0110000001000000
          45 33 -14 -11 17 hvcurveto
          45 -281 rmoveto
          -82 -18 -45 -216 -205 hhcurveto
          -19 -38 1 24 -38 hvcurveto
          361 504 rlineto
          hintmask 0000000000100000
          33 -64 -15 -91 -16 -76 rrcurveto
          hintmask 0000011000000000
          79 509 -99 callsubr
        </CharString>
        <CharString name="Otilde">
          56 callsubr
          30 133 callsubr
          hintmask 11000000
          -106 callsubr
          hintmask 00010000
          89 487 -78 callsubr
        </CharString>
        <CharString name="P">
          15 callgsubr
        </CharString>
        <CharString name="Phi">
          96 21 -21 107 66 -65 66 347 66 107 -20 hstemhm
          127 119 59 116 -102 116 -42 116 -102 116 -103 116 51 119 hintmask 0001000001000000
          706 347 rmoveto
          23 110 -32 112 -174 18 rrcurveto
          hintmask 0000100000100000
          13 63 -80 callsubr
          -27 -68 callgsubr
          hintmask 0001010001000000
          -13 -62 -177 -20 -80 -110 -23 -110 rlinecurve
          hintmask 1100001000000000
          -23 -107 30 -113 171 -20 -13 -62 rcurveline
          -90 callsubr
          27 hlineto
          hintmask 0000000001000000
          35 11 -81 callgsubr
          hintmask 0100011000010000
          14 63 179 17 82 111 24 112 rlinecurve
          -387 -173 rmoveto
          -101 24 17 98 11 51 rrcurveto
          hintmask 0000000010000000
          11 51 23 98 113 24 rrcurveto
          hintmask 0010000100000000
          194 -173 rmoveto
          hintmask 0100000100000000
          -12 -57 -27 -95 -113 -22 rrcurveto
          hintmask 0001000010010000
          74 348 104 -21 -14 -95 -12 -58 rlinecurve
          endchar
        </CharString>
        <CharString name="Pi">
          88 21 -21 610 81 hstem
          483 122 vstem
          605 44 rmoveto
          129 603 rlineto
          31 6 -47 callsubr
          -426 120 callgsubr
          121 566 191 callsubr
          -121 -566 48 callsubr
          endchar
        </CharString>
        <CharString name="Psi">
          149 21 -21 552 63 79 -20 hstemhm
          192 116 -106 116 13 116 -101 116 -16 116 hintmask 01000010
          809 583 78 callsubr
          -30 hlineto
          -81 -23 -71 -127 -27 hvcurveto
          -17 -76 -31 -128 -101 -34 rrcurveto
          hintmask 00100001
          100 471 -80 callsubr
          -27 -68 callgsubr
          hintmask 01010010
          -100 -469 -84 38 28 128 18 88 rlinecurve
          133 29 -10 48 -69 hhcurveto
          -29 hlineto
          -13 -32 0 -32 -7 hvcurveto
          hintmask 00001000
          -2 -9 0 -20 27 -3 rrcurveto
          hintmask 00010100
          6 -19 -1 -30 -15 -68 -20 -94 -41 -198 200 -33 rrcurveto
          hintmask 10001100
          -13 -64 -96 callsubr
          27 -104 callsubr
          14 64 189 30 63 147 27 131 rlinecurve
          13 59 11 50 20 26 30 3 7 20 2 9 rrcurveto
          endchar
        </CharString>
        <CharString name="Q">
          107 -90 -21 92 70 17 70 505 70 hstemhm
          126 119 282 119 -49 119 hintmask 11111100
          716 342 rmoveto
          9 43 22 115 -36 88 rrcurveto
          110 -46 -106 15 -59 hhcurveto
          -95 -94 -39 -71 -64 hvcurveto
          -49 -55 -44 -74 -28 -132 -19 -87 -10 -106 52 -81 rrcurveto
          -52 34 69 -35 92 hhcurveto
          28 6 0 6 34 hvcurveto
          23 -61 rlineto
          -36 16 -1 -1 31 hhcurveto
          60 hlineto
          14 19 0 21 5 hvcurveto
          1 4 0 2 -9 22 -44 94 rcurveline
          40 23 42 40 37 61 rrcurveto
          hintmask 01111010
          43 71 19 80 8 35 rrcurveto
          -119 1 rmoveto
          -12 -54 -24 -116 -71 -66 -34 75 rcurveline
          12 -7 -3 0 -20 hhcurveto
          -46 hlineto
          -14 -20 0 -21 -4 hvcurveto
          -2 -6 7 -18 4 -11 16 -39 rcurveline
          17 -44 rlineto
          -1 -4 -24 0 0 vvcurveto
          -43 -62 17 81 -19 hvcurveto
          -16 60 12 70 14 64 15 72 21 82 54 69 rrcurveto
          47 38 57 30 55 hhcurveto
          57 48 -32 -59 16 hvcurveto
          17 -64 -10 -69 -16 -76 rrcurveto
          endchar
        </CharString>
        <CharString name="R">
          116 callsubr
          hstem
          130 callsubr
          vstem
          -96 callgsubr
          endchar
        </CharString>
        <CharString name="Racute">
          116 callsubr
          141 callgsubr
          130 callsubr
          hintmask 11100110
          -96 callgsubr
          hintmask 00011000
          112 353 -99 callsubr
        </CharString>
        <CharString name="Rcaron">
          116 callsubr
          70 -21 127 -20 hstemhm
          130 callsubr
          hintmask 11100110
          -96 callgsubr
          hintmask 00011000
          108 351 -93 callgsubr
        </CharString>
        <CharString name="Rcedilla">
          24 -243 -21 100 96 89 131 callsubr
          hstem
          130 callsubr
          vstem
          -96 callgsubr
          -228 -639 -102 callgsubr
        </CharString>
        <CharString name="Rcommaaccent">
          24 -243 -21 100 96 89 131 callsubr
          hstemhm
          130 callsubr
          hintmask 00111110
          -96 callgsubr
          hintmask 11000000
          -228 -639 -102 callgsubr
        </CharString>
        <CharString name="Rdblgrave">
          116 callsubr
          80 142 callsubr
          hstemhm
          130 callsubr
          hintmask 11100110
          -96 callgsubr
          hintmask 00011010
          28 266 -77 callgsubr
        </CharString>
        <CharString name="Rdotaccent">
          116 callsubr
          49 118 hstemhm
          372 114 -73 43 callgsubr
          11 114 hintmask 11101001
          -96 callgsubr
          hintmask 00010010
          -16 291 rmoveto
          5 -88 callgsubr
          hintmask 00010100
          162 callgsubr
          endchar
        </CharString>
        <CharString name="Rdotbelow">
          24 -200 118 103 131 callsubr
          hstemhm
          212 -25 callgsubr
          31 114 66 114 hintmask 01110011
          -96 callgsubr
          hintmask 10000100
          -217 -652 -59 callgsubr
          endchar
        </CharString>
        <CharString name="Rdotbelowmacron">
          24 -200 118 103 131 callsubr
          69 73 hstemhm
          212 -25 callgsubr
          31 114 66 114 hintmask 1111001110000000
          -96 callgsubr
          -217 -652 -92 callgsubr
          hintmask 1000010000000000
          -92 callsubr
          hintmask 0000100000000000
          312 942 -87 callsubr
        </CharString>
        <CharString name="Rho">
          15 callgsubr
        </CharString>
        <CharString name="S">
          -62 -19 93 552 87 77 callsubr
          hintmask 01010100
          515 195 rmoveto
          -85 callsubr
          hintmask 00101000
          -14 callgsubr
          hintmask 10010000
          -43 callgsubr
          hintmask 10101100
          0 callsubr
          endchar
        </CharString>
        <CharString name="S_S">
          466 -19 93 552 87 77 callsubr
          92 203 callsubr
          -19 105 35 116 hintmask 0101010000000000
          515 195 rmoveto
          -85 callsubr
          hintmask 0010100000000000
          -14 callgsubr
          hintmask 1001000000000000
          -43 callgsubr
          hintmask 1110110101000000
          0 callsubr
          528 hmoveto
          -85 callsubr
          hintmask 0000001010000000
          -14 callgsubr
          hintmask 1000000100000000
          -43 callgsubr
          hintmask 1000001011000000
          0 callsubr
          endchar
        </CharString>
        <CharString name="Sacute">
          -62 -19 212 callsubr
          61 -21 121 -66 callgsubr
          hintmask 00110000
          106 657 -99 callsubr
        </CharString>
        <CharString name="Scaron">
          -62 -19 212 callsubr
          51 -21 127 -66 callgsubr
          hintmask 00110000
          102 655 -93 callgsubr
        </CharString>
        <CharString name="Scedilla">
          -62 -51 87 -55 211 callgsubr
          -19 105 -72 116 -9 116 hintmask 00101001
          515 195 rmoveto
          -85 callsubr
          hintmask 00010100
          -17 -80 35 -49 4 -5 36 -48 29 -8 53 -14 20 -6 34 -9 8 -3 rrcurveto
          hintmask 01001010
          27 -12 29 -36 -12 -58 rrcurveto
          -43 callgsubr
          hintmask 10010000
          -2 -9 1 -1 25 -17 rrcurveto
          hintmask 01000101
          -41 58 63 -14 59 hhcurveto
          146 85 92 122 25 hvcurveto
          -216 -246 rmoveto
          11 2 149 callsubr
          -1 -1 -12 -10 hvcurveto
          -91 -106 rlineto
          -8 -10 90 callsubr
          -11 -2 10 0 15 hhcurveto
          36 192 callgsubr
          15 10 hvcurveto
          hintmask 10000010
          64 callgsubr
        </CharString>
        <CharString name="Scircumflex">
          -62 -19 212 callsubr
          51 -21 127 -66 callgsubr
          hintmask 00110010
          84 570 -84 callsubr
        </CharString>
        <CharString name="Sdotbelow">
          -62 68 callsubr
          63 211 callgsubr
          -109 -25 callgsubr
          -39 105 35 116 hintmask 0010100010000000
          515 195 rmoveto
          -85 callsubr
          hintmask 0001000100000000
          -14 callgsubr
          hintmask 0100100000000000
          -43 callgsubr
          hintmask 0101000110000000
          0 callsubr
          hintmask 1000001000000000
          -223 -348 -37 callgsubr
        </CharString>
        <CharString name="Sigma">
          96 0 93 514 87 hstem
          641 44 rmoveto
          2 8 rlineto
          44 9 -16 0 -44 hhcurveto
          -284 -3 rlineto
          -62 hlineto
          210 229 13 14 2 1 2 10 rlinecurve
          1 8 0 6 -6 11 -119 235 rcurveline
          60 hlineto
          291 -3 rlineto
          44 16 0 45 10 170 callsubr
          -490 hlineto
          -27 -19 -3 -40 -9 hvcurveto
          -4 -19 0 -2 6 -13 142 -280 rcurveline
          -259 -279 -9 -10 -5 -7 -2 -9 rlinecurve
          -32 -7 32 0 13 hhcurveto
          490 -104 callsubr
          endchar
        </CharString>
        <CharString name="T">
          54 21 212 callgsubr
          hstem
          389 122 vstem
          -74 callsubr
          endchar
        </CharString>
        <CharString name="T_uni0303">
          54 21 212 callgsubr
          49 133 callsubr
          389 122 hintmask 11001000
          -74 callsubr
          hintmask 00010000
          -86 202 -78 callsubr
        </CharString>
        <CharString name="T_uni0308">
          54 21 212 callgsubr
          49 106 hstemhm
          314 36 callgsubr
          -40 122 44 36 callgsubr
          hintmask 11000100
          -74 callsubr
          hintmask 00101000
          -321 142 rmoveto
          4 22 rlineto
          34 8 -8 -89 callgsubr
          hintmask 00110001
          -88 callsubr
          hintmask 00100010
          -85 callgsubr
          endchar
        </CharString>
        <CharString name="Tau">
          54 21 212 callgsubr
          hstem
          389 122 vstem
          -74 callsubr
          endchar
        </CharString>
        <CharString name="Tcaron">
          54 21 212 callgsubr
          70 -21 127 -20 hstemhm
          389 122 hintmask 11001000
          -74 callsubr
          hintmask 00110000
          -71 207 -93 callgsubr
        </CharString>
        <CharString name="Tcedilla">
          54 -144 -21 144 -20 62 212 callgsubr
          hstem
          389 122 vstem
          -74 callsubr
          -399 -675 rmoveto
          11 2 149 callsubr
          -1 -1 -12 -11 hvcurveto
          -90 -106 rlineto
          -8 -10 90 callsubr
          -11 -3 10 0 15 hhcurveto
          36 192 callgsubr
          15 11 hvcurveto
          64 callgsubr
        </CharString>
        <CharString name="Tdotbelow">
          54 99 callgsubr
          601 93 hstemhm
          227 -25 callgsubr
          33 122 hintmask 01100100
          -74 callsubr
          hintmask 10001000
          -396 -796 -61 callsubr
        </CharString>
        <CharString name="Theta">
          149 -19 67 245 111 245 64 hstem
          126 116 400 116 vstem
          758 342 rmoveto
          21 101 2 100 -48 76 rrcurveto
          60 -40 -76 34 -96 hhcurveto
          -96 -92 -34 -60 -63 hvcurveto
          -85 -79 -39 -101 -20 -97 -20 -94 -4 -93 46 -76 rrcurveto
          -63 38 80 -35 99 hhcurveto
          105 90 39 55 59 hvcurveto
          77 72 40 93 22 102 rrcurveto
          -116 1 rmoveto
          -65 -14 -49 -230 -200 hhcurveto
          -200 49 230 65 14 hvcurveto
          9 43 20 91 49 69 rrcurveto
          91 66 82 12 39 hhcurveto
          58 59 -24 -75 24 hvcurveto
          22 -67 -17 -89 -11 -51 rrcurveto
          -55 -5 rmoveto
          4 21 rlineto
          35 8 -8 10 -37 hhcurveto
          -198 hlineto
          -36 -13 -9 -36 -8 hvcurveto
          -4 -21 rlineto
          -35 -8 8 -10 37 hhcurveto
          198 hlineto
          36 13 9 36 8 hvcurveto
          endchar
        </CharString>
        <CharString name="Thorn">
          -34 21 -21 180 75 254 75 110 -20 hstem
          583 382 rmoveto
          141 30 -69 61 -111 hhcurveto
          -113 hlineto
          14 64 rlineto
          38 8 -8 8 -36 hhcurveto
          -23 hlineto
          -38 -11 -9 -38 -8 hvcurveto
          -128 -600 rlineto
          -38 -8 7 -9 38 hhcurveto
          23 hlineto
          34 13 6 40 9 hvcurveto
          28 134 rlineto
          97 hlineto
          47 162 0 202 43 hvcurveto
          -114 -1 rmoveto
          -126 -27 -89 0 -34 hhcurveto
          -69 hlineto
          54 254 rlineto
          68 hlineto
          87 27 -49 -79 -17 hvcurveto
          endchar
        </CharString>
        <CharString name="Tlinebelow">
          54 -177 73 125 212 callgsubr
          hstemhm
          389 122 hintmask 01110000
          -74 callsubr
          hintmask 10000000
          -284 -794 -53 callsubr
        </CharString>
        <CharString name="U">
          67 -19 75 638 -20 1 callgsubr
          hintmask 01000100
          -70 callsubr
          hintmask 10101000
          -90 -422 rlineto
          -56 -11 -32 -116 -126 hhcurveto
          -121 17 114 57 12 hvcurveto
          hintmask 01010000
          90 423 -80 callsubr
          -33 -68 callgsubr
          hintmask 10101000
          -90 -421 rlineto
          -140 -29 58 -107 168 hhcurveto
          169 99 110 137 29 hvcurveto
          endchar
        </CharString>
        <CharString name="U_uni032F">
          67 -189 -21 59 80 52 75 638 -20 1 callgsubr
          hintmask 00010001
          -70 callsubr
          hintmask 00101010
          -90 -422 rlineto
          -56 -11 -32 -116 -126 hhcurveto
          -121 17 114 57 12 hvcurveto
          hintmask 00010100
          90 423 -80 callsubr
          -33 -68 callgsubr
          hintmask 00101010
          -90 -421 rlineto
          -140 -29 58 -107 168 hhcurveto
          169 99 110 137 29 hvcurveto
          hintmask 11001000
          -168 -403 -29 callgsubr
        </CharString>
        <CharString name="Uacute">
          126 callgsubr
          100 -21 121 -20 -95 callgsubr
          hintmask 00110000
          62 624 -99 callsubr
        </CharString>
        <CharString name="Ubreve">
          126 callgsubr
          79 80 59 -20 -95 callgsubr
          hintmask 00110000
          51 629 -93 callsubr
          endchar
        </CharString>
        <CharString name="Ucaron">
          126 callgsubr
          90 -21 127 -20 -95 callgsubr
          hintmask 00110000
          58 622 -93 callgsubr
        </CharString>
        <CharString name="Ucircumflex">
          126 callgsubr
          90 -21 127 -20 -95 callgsubr
          hintmask 00110000
          40 537 -84 callsubr
        </CharString>
        <CharString name="Udblgrave">
          126 callgsubr
          100 142 callsubr
          -95 callgsubr
          hintmask 00110000
          5 537 -77 callgsubr
        </CharString>
        <CharString name="Udieresis">
          126 callgsubr
          69 106 97 callsubr
          -21 36 callgsubr
          77 111 -62 36 callgsubr
          -74 111 hintmask 0100000000100000
          -70 callsubr
          hintmask 1001000100000000
          -90 -422 rlineto
          -56 -11 -32 -116 -126 hhcurveto
          -121 17 114 57 12 hvcurveto
          hintmask 0100100000000000
          90 423 -80 callsubr
          -33 -68 callgsubr
          hintmask 1001000100000000
          -90 -421 rlineto
          -140 -29 58 -107 168 hhcurveto
          169 99 110 137 29 hvcurveto
          hintmask 0010001000000000
          -192 557 rmoveto
          4 22 rlineto
          34 8 -8 -89 callgsubr
          hintmask 0010010001000000
          -88 callsubr
          hintmask 0010000010000000
          -85 callgsubr
          endchar
        </CharString>
        <CharString name="Udieresisacute">
          126 callgsubr
          69 106 80 -21 121 -68 callsubr
          hintmask 0011100000100000
          -85 callgsubr
          46 222 -99 callsubr
        </CharString>
        <CharString name="Udieresiscaron">
          126 callgsubr
          69 106 70 -21 127 -68 callsubr
          hintmask 0011100010100000
          -85 callgsubr
          42 220 -93 callgsubr
        </CharString>
        <CharString name="Udieresisgrave">
          126 callgsubr
          69 106 80 -21 121 -68 callsubr
          hintmask 0011100000100000
          -85 callgsubr
          -61 141 -58 callsubr
        </CharString>
        <CharString name="Udotbelow">
          67 68 callsubr
          63 138 callgsubr
          -107 -25 callgsubr
          149 111 -21 111 hintmask 0010000010000000
          -70 callsubr
          hintmask 0101000100000000
          -90 -422 rlineto
          -56 -11 -32 -116 -126 hhcurveto
          -121 17 114 57 12 hvcurveto
          hintmask 0010100000000000
          90 423 -80 callsubr
          -33 -68 callgsubr
          hintmask 0101000100000000
          -90 -421 rlineto
          -140 -29 58 -107 168 hhcurveto
          169 99 110 137 29 hvcurveto
          hintmask 1000001000000000
          -266 -381 -37 callgsubr
        </CharString>
        <CharString name="Ugrave">
          126 callgsubr
          100 -21 121 -20 -95 callgsubr
          hintmask 00110000
          -45 543 -58 callsubr
        </CharString>
        <CharString name="Uhookabove">
          126 callgsubr
          90 -21 221 -20 -95 callgsubr
          hintmask 00110000
          -14 659 -98 callgsubr
        </CharString>
        <CharString name="Uhorn">
          93 -19 75 744 -20 hstemhm
          129 122 -30 122 170 111 105 106 -88 106 hintmask 01000010
          21 callsubr
          hintmask 10101100
          -50 callsubr
          hintmask 00010000
          36 callsubr
          hintmask 10101100
          -29 callsubr
          endchar
        </CharString>
        <CharString name="Uhornacute">
          93 -19 75 718 -21 47 -20 94 -63 callgsubr
          -176 146 -99 callsubr
        </CharString>
        <CharString name="Uhorndotbelow">
          93 68 callsubr
          63 75 744 -20 hstemhm
          129 122 -30 122 -96 -25 callgsubr
          137 111 105 106 -88 106 hintmask 0010000001000000
          21 callsubr
          hintmask 0101000110000000
          -50 callsubr
          hintmask 0000100000000000
          36 callsubr
          hintmask 0101000110000000
          -29 callsubr
          hintmask 1000001000000000
          -465 -859 -37 callgsubr
        </CharString>
        <CharString name="Uhorngrave">
          93 -19 75 718 -21 47 -20 94 -63 callgsubr
          -256 65 -58 callsubr
        </CharString>
        <CharString name="Uhornhookabove">
          93 -19 75 708 -21 57 -20 184 -63 callgsubr
          -225 181 -98 callgsubr
        </CharString>
        <CharString name="Uhorntilde">
          93 -19 75 687 133 callsubr
          129 122 -30 122 170 111 105 106 -88 106 hintmask 00000001
          21 callsubr
          hintmask 10010110
          -50 callsubr
          hintmask 00001000
          36 callsubr
          hintmask 10010110
          -29 callsubr
          hintmask 00100000
          -168 139 -73 callgsubr
          -5 hvcurveto
          hintmask 01000000
          -50 callgsubr
          hintmask 00100000
          -51 callsubr
          hintmask 01000000
          -46 callgsubr
          hintmask 00100000
          24 callsubr
          hintmask 01000000
          -16 callsubr
        </CharString>
        <CharString name="Uhungarumlaut">
          126 callgsubr
          100 142 callsubr
          -95 callgsubr
          hintmask 00110000
          -107 662 rmoveto
          -28 callgsubr
          158 hmoveto
          -28 callgsubr
          endchar
        </CharString>
        <CharString name="Umacron">
          126 callgsubr
          89 73 1 callgsubr
          hintmask 01000010
          -70 callsubr
          hintmask 10010100
          -90 -422 rlineto
          -56 -11 -32 -116 -126 hhcurveto
          -121 17 114 57 12 hvcurveto
          hintmask 01001000
          90 423 -80 callsubr
          -33 -68 callgsubr
          hintmask 10010100
          -90 -421 rlineto
          -140 -29 58 -107 168 hhcurveto
          169 99 110 137 29 hvcurveto
          hintmask 00100000
          45 561 -87 callsubr
        </CharString>
        <CharString name="Uogonek">
          67 -184 80 9 80 -4 138 callgsubr
          -115 122 164 111 -21 111 hintmask 0001000010000000
          -70 callsubr
          hintmask 0010100100000000
          -90 -422 rlineto
          -56 -11 -32 -116 -126 hhcurveto
          -121 17 114 57 12 hvcurveto
          hintmask 0001010000000000
          90 423 -80 callsubr
          -33 -68 callgsubr
          hintmask 0100100000000000
          -90 -421 -26 -124 43 -98 127 -21 rlinecurve
          hintmask 1100001100000000
          -23 -22 -17 -28 -7 -30 91 callsubr
          -8 186 callsubr
          4 18 9 18 13 16 156 9 92 106 27 131 rrcurveto
          endchar
        </CharString>
        <CharString name="Upsilon">
          149 21 -21 621 92 hstem
          392 122 vstem
          804 559 rmoveto
          75 16 -51 79 -98 hhcurveto
          -93 -56 -76 -93 -37 hvcurveto
          -1 hlineto
          101 2 -27 68 -88 hhcurveto
          -99 -84 -79 -75 -16 hvcurveto
          -36 -8 29 0 17 hhcurveto
          19 hlineto
          23 20 0 37 11 hvcurveto
          31 10 24 30 35 hhcurveto
          42 16 -33 -60 -1 hvcurveto
          -52 -6 -31 -11 -48 vhcurveto
          -74 -352 -22 callsubr
          75 353 7 32 16 63 19 42 rlinecurve
          62 27 30 25 37 hhcurveto
          37 10 -33 -27 -4 hvcurveto
          -32 -4 10 -6 32 hhcurveto
          19 hlineto
          17 29 0 36 8 hvcurveto
          endchar
        </CharString>
        <CharString name="Uring">
          100 callgsubr
          41 66 41 1 callgsubr
          hintmask 01000010
          -70 callsubr
          hintmask 10010100
          -90 -422 rlineto
          -56 -11 -32 -116 -126 hhcurveto
          -121 17 114 57 12 hvcurveto
          hintmask 01001000
          90 423 -80 callsubr
          -33 -68 callgsubr
          hintmask 10010100
          -90 -421 rlineto
          -140 -29 58 -107 168 hhcurveto
          169 99 110 137 29 hvcurveto
          hintmask 01100000
          -85 540 rmoveto
          -31 -7 -23 -2 -24 hhcurveto
          -23 -24 1 32 7 -48 callsubr
          -16 53 callsubr
          16 hvcurveto
          endchar
        </CharString>
        <CharString name="Utilde">
          126 callgsubr
          69 64 -9 64 -95 callgsubr
          hintmask 00010000
          43 617 -78 callsubr
        </CharString>
        <CharString name="V">
          46 125 callsubr
          165 589 vstem
          754 669 rmoveto
          25 6 -21 0 -16 hhcurveto
          -19 hlineto
          -29 -18 -3 -37 -20 hvcurveto
          -170 -313 -36 -66 -64 -120 -19 -49 rlinecurve
          -1 hlineto
          1 20 -4 43 -3 31 -3 35 -3 45 -4 23 -40 352 rcurveline
          39 -4 -25 0 -20 hhcurveto
          -34 hlineto
          -16 -21 0 -25 -6 hvcurveto
          -3 -1 -2 2 -14 vhcurveto
          72 -610 rlineto
          -40 4 24 0 21 hhcurveto
          61 hlineto
          19 26 0 39 21 hvcurveto
          331 611 rlineto
          8 14 1 2 3 vvcurveto
          endchar
        </CharString>
        <CharString name="W">
          310 125 callsubr
          162 859 vstem
          -89 callsubr
          endchar
        </CharString>
        <CharString name="Wacute">
          310 64 callsubr
          100 162 callsubr
          162 859 hintmask 11001000
          -89 callsubr
          hintmask 00110000
          -214 184 -99 callsubr
        </CharString>
        <CharString name="Wcircumflex">
          310 64 callsubr
          90 -21 127 -20 hstemhm
          162 859 hintmask 11001000
          -89 callsubr
          hintmask 00110000
          -236 97 -84 callsubr
        </CharString>
        <CharString name="Wdieresis">
          310 64 callsubr
          69 106 hstemhm
          162 859 -579 36 callgsubr
          126 36 callgsubr
          hintmask 11010000
          -89 callsubr
          hintmask 00100100
          -468 117 rmoveto
          4 22 rlineto
          34 8 -8 -89 callgsubr
          hintmask 00101001
          -88 callsubr
          hintmask 00100010
          -85 callgsubr
          endchar
        </CharString>
        <CharString name="Wgrave">
          310 64 callsubr
          100 162 callsubr
          162 859 hintmask 11001000
          -89 callsubr
          hintmask 00110000
          -321 103 -58 callsubr
        </CharString>
        <CharString name="X">
          6 callsubr
        </CharString>
        <CharString name="Xi">
          43 0 100 -100 102 206 100 178 102 -100 100 hstemhm
          52 552 hintmask 00001000
          721 630 rmoveto
          3 14 rlineto
          31 6 -47 callsubr
          -453 hlineto
          -35 -12 -9 -36 -7 hvcurveto
          -3 -13 rlineto
          hintmask 00010000
          -44 -9 16 0 44 hhcurveto
          hintmask 00001000
          211 2 rlineto
          hintmask 01010100
          211 -2 rlineto
          44 16 0 44 9 hvcurveto
          -120 -586 rmoveto
          3 14 rlineto
          44 10 -16 0 -45 hhcurveto
          hintmask 10000000
          -216 -2 rlineto
          hintmask 01100100
          -214 2 rlineto
          -45 -16 0 -44 -10 hvcurveto
          -2 -13 -96 callsubr
          463 -104 callsubr
          308 vmoveto
          2 12 -80 callsubr
          -331 -68 callgsubr
          -2 -11 rlineto
          -31 -7 -19 callgsubr
          332 hlineto
          35 12 -81 callgsubr
          endchar
        </CharString>
        <CharString name="Y">
          173 callgsubr
          hstemhm
          267 119 -69 119 hintmask 01010000
          759 673 rmoveto
          21 5 -20 0 -15 hhcurveto
          -25 hlineto
          -16 -25 0 -23 -25 hvcurveto
          -4 -4 -204 -243 -23 -44 -6 28 -7 17 -16 44 -73 189 rcurveline
          36 -14 -30 0 -18 hhcurveto
          -41 hlineto
          -14 -21 0 -21 -5 202 callsubr
          -7 2 -3 152 -379 rcurveline
          hintmask 10100000
          -50 -234 rlineto
          -34 -7 7 -10 35 hhcurveto
          31 hlineto
          30 15 5 38 8 hvcurveto
          hintmask 00010000
          50 234 310 376 117 callgsubr
          endchar
        </CharString>
        <CharString name="Yacute">
          173 callgsubr
          100 -21 121 -20 -71 callgsubr
          hintmask 00110000
          -84 179 -99 callsubr
        </CharString>
        <CharString name="Ycircumflex">
          173 callgsubr
          90 -21 127 -20 -71 callgsubr
          hintmask 00110000
          -106 92 -84 callsubr
        </CharString>
        <CharString name="Ydieresis">
          173 callgsubr
          69 106 hstemhm
          267 119 -76 36 callgsubr
          -108 119 115 36 callgsubr
          hintmask 0100001000000000
          759 673 rmoveto
          21 5 -20 0 -15 hhcurveto
          -25 hlineto
          -16 -25 0 -23 -25 hvcurveto
          -4 -4 -204 -243 -23 -44 -6 28 -7 17 -16 44 -73 189 rcurveline
          36 -14 -30 0 -18 hhcurveto
          -41 hlineto
          -14 -21 0 -21 -5 202 callsubr
          -7 2 -3 152 -379 rcurveline
          hintmask 1001000000000000
          -50 -234 rlineto
          -34 -7 7 -10 35 hhcurveto
          31 hlineto
          30 15 5 38 8 hvcurveto
          hintmask 0000001000000000
          50 234 310 376 117 callgsubr
          hintmask 0010010000000000
          -338 112 rmoveto
          4 22 rlineto
          34 8 -8 -89 callgsubr
          hintmask 0010100010000000
          -88 callsubr
          hintmask 0010000100000000
          -85 callgsubr
          endchar
        </CharString>
        <CharString name="Ydotbelow">
          200 callsubr
          694 -20 hstemhm
          223 -25 callgsubr
          -85 119 -69 119 hintmask 00100010
          759 673 rmoveto
          21 5 -20 0 -15 hhcurveto
          -25 hlineto
          -16 -25 0 -23 -25 hvcurveto
          -4 -4 -204 -243 -23 -44 -6 28 -7 17 -16 44 -73 189 rcurveline
          36 -14 -30 0 -18 hhcurveto
          -41 hlineto
          -14 -21 0 -21 -5 202 callsubr
          -7 2 -3 152 -379 rcurveline
          hintmask 01000100
          -50 -234 rlineto
          -34 -7 7 -10 35 hhcurveto
          31 hlineto
          30 15 5 38 8 hvcurveto
          hintmask 00000010
          50 234 310 376 117 callgsubr
          hintmask 00001000
          -413 -826 rmoveto
          6 24 rlineto
          hintmask 10000010
          86 callgsubr
        </CharString>
        <CharString name="Ygrave">
          173 callgsubr
          100 -21 121 -20 -71 callgsubr
          hintmask 00110000
          -191 98 -58 callsubr
        </CharString>
        <CharString name="Yhookabove">
          173 callgsubr
          90 -21 221 -20 -71 callgsubr
          hintmask 00110000
          -160 214 -98 callgsubr
        </CharString>
        <CharString name="Ytilde">
          173 callgsubr
          69 64 -9 64 -71 callgsubr
          hintmask 00010000
          -103 172 -73 callgsubr
          -5 hvcurveto
          hintmask 00100000
          -50 callgsubr
          hintmask 00010000
          -51 callsubr
          hintmask 00101000
          -46 callgsubr
          hintmask 00010000
          24 callsubr
          hintmask 00100000
          -16 callsubr
        </CharString>
        <CharString name="Z">
          173 callsubr
          hstem
          63 480 vstem
          -69 callsubr
          endchar
        </CharString>
        <CharString name="Zacute">
          173 callsubr
          141 callgsubr
          63 480 hintmask 11001000
          -69 callsubr
          hintmask 00110000
          104 807 -99 callsubr
        </CharString>
        <CharString name="Zcaron">
          173 callsubr
          70 -21 127 -20 hstemhm
          63 480 hintmask 11001000
          -69 callsubr
          hintmask 00110000
          100 805 -93 callgsubr
        </CharString>
        <CharString name="Zdotaccent">
          173 callsubr
          49 118 hstemhm
          63 480 -146 181 callsubr
          -69 callsubr
          hintmask 00100100
          -23 745 rmoveto
          5 -88 callgsubr
          hintmask 00101000
          162 callgsubr
          endchar
        </CharString>
        <CharString name="Zdotbelow">
          -9 68 callsubr
          82 91 519 84 hstemhm
          63 480 -348 -25 callgsubr
          hintmask 01110000
          -69 callsubr
          hintmask 10000100
          -225 -198 -59 callgsubr
          endchar
        </CharString>
        <CharString name="Zeta">
          173 callsubr
          hstem
          63 480 vstem
          -69 callsubr
          endchar
        </CharString>
        <CharString name="a">
          -13 callgsubr
          hstem
          -107 callgsubr
          endchar
        </CharString>
        <CharString name="aacute">
          -13 callgsubr
          80 142 callsubr
          -106 callgsubr
          hintmask 00011000
          155 427 -100 callgsubr
        </CharString>
        <CharString name="abreve">
          -13 callgsubr
          64 80 59 -20 -106 callgsubr
          hintmask 00011000
          -12 callgsubr
          endchar
        </CharString>
        <CharString name="abreveacute">
          -13 callgsubr
          64 80 230 -20 -106 callgsubr
          hintmask 00011000
          -12 callgsubr
          6 184 -99 callsubr
        </CharString>
        <CharString name="abrevedotbelow">
          122 callsubr
          64 80 59 -20 hstemhm
          131 -25 callgsubr
          hintmask 01111100
          -107 callgsubr
          -12 callgsubr
          hintmask 10000001
          -275 -808 -92 callgsubr
          hintmask 10000010
          -83 callgsubr
        </CharString>
        <CharString name="abrevegrave">
          -13 callgsubr
          64 80 59 -20 -106 callgsubr
          hintmask 00011000
          -12 callgsubr
          -10 103 -43 callsubr
        </CharString>
        <CharString name="abrevehookabove">
          -13 callgsubr
          64 80 100 80 32 80 18 -20 -106 callgsubr
          hintmask 00010100
          -12 callgsubr
          -25 209 rmoveto
          5 23 -4 95 callgsubr
          hintmask 00000010
          -33 callgsubr
          -1 -2 -2 -4 0 vvcurveto
          -4 vlineto
          5 -40 3 -3 3 78 callgsubr
          5 2 rlineto
          1 2 2 132 callgsubr
          23 22 23 hhcurveto
          11 7 99 callsubr
          -1 -8 -3 -16 rrcurveto
          hintmask 00001100
          -2 -10 -4 -36 callsubr
        </CharString>
        <CharString name="abrevetilde">
          -13 callgsubr
          64 80 129 64 -9 64 -106 callgsubr
          hintmask 00010100
          -12 callgsubr
          39 207 -73 callgsubr
          -5 hvcurveto
          hintmask 00001000
          -23 -8 66 callsubr
          -46 -62 -40 -9 hvcurveto
          hintmask 00001000
          -17 -3 164 callgsubr
          13 17 19 hhcurveto
          15 14 -13 -10 11 hvcurveto
          hintmask 00001000
          94 callsubr
        </CharString>
        <CharString name="acaron">
          -13 callgsubr
          73 185 callsubr
          -106 callgsubr
          hintmask 00011000
          182 426 -90 callgsubr
        </CharString>
        <CharString name="acircumflex">
          -13 callgsubr
          73 185 callsubr
          -106 callgsubr
          hintmask 00011000
          156 304 -98 callsubr
          endchar
        </CharString>
        <CharString name="acircumflexacute">
          -13 callgsubr
          73 -21 298 -24 callgsubr
          12 254 -99 callsubr
        </CharString>
        <CharString name="acircumflexdotbelow">
          122 callsubr
          73 185 callsubr
          hstemhm
          131 -25 callgsubr
          hintmask 01111100
          -107 callgsubr
          156 304 -98 callsubr
          hintmask 10000001
          -253 -713 -92 callgsubr
          hintmask 10000010
          -83 callgsubr
        </CharString>
        <CharString name="acircumflexgrave">
          -13 callgsubr
          73 -21 127 -24 callgsubr
          -4 173 -43 callsubr
        </CharString>
        <CharString name="acircumflexhookabove">
          -13 callgsubr
          73 -21 378 -24 callgsubr
          73 279 rmoveto
          4 23 -3 -23 callsubr
          -2 -2 -1 81 callsubr
          5 -40 3 -3 3 78 callgsubr
          5 2 rlineto
          1 2 2 132 callgsubr
          23 22 23 hhcurveto
          11 7 99 callsubr
          -1 -8 -3 -16 -3 -82 callgsubr
          5 21 rlinecurve
          endchar
        </CharString>
        <CharString name="acircumflextilde">
          -13 callgsubr
          73 -21 197 64 -9 64 -106 callgsubr
          hintmask 00010100
          62 callsubr
          45 277 -73 callgsubr
          -5 hvcurveto
          hintmask 00001000
          -23 -8 66 callsubr
          -46 -62 -40 -9 hvcurveto
          hintmask 00001000
          88 callsubr
          hintmask 00000100
          39 callgsubr
          hintmask 00001000
          47 callgsubr
        </CharString>
        <CharString name="acute">
          567 104 callsubr
          517 683 -100 callgsubr
        </CharString>
        <CharString name="acute.cap">
          552 178 callgsubr
          hstem
          547 630 -99 callsubr
        </CharString>
        <CharString name="acute.dup">
          567 104 callsubr
          517 683 -100 callgsubr
        </CharString>
        <CharString name="acute.ts1">
          567 -21 22 -21 148 204 callsubr
          hintmask 00100000
          539 683 rmoveto
          1 2 rlineto
          10 2 -13 0 -7 hhcurveto
          -57 hlineto
          hintmask 10010000
          -5 102 callgsubr
          -5 -2 -4 -4 -4 -4 -18 -19 rcurveline
          -28 -31 -34 -30 -26 -33 -3 -4 -4 -4 -1 -5 rrcurveto
          -10 -3 12 -2 10 hhcurveto
          hintmask 01000000
          6 6 1 6 hhcurveto
          8 hlineto
          15 23 21 11 13 hvcurveto
          39 30 42 29 38 32 5 3 6 4 1 6 rrcurveto
          endchar
        </CharString>
        <CharString name="adblgrave">
          -13 callgsubr
          80 142 callsubr
          -106 callgsubr
          hintmask 00011000
          132 302 rmoveto
          115 vlineto
          20 0 1 -22 vhcurveto
          -61 hlineto
          -16 -8 0 -11 -3 -86 callgsubr
          3 hvcurveto
          -158 hmoveto
          115 vlineto
          20 0 1 -22 vhcurveto
          -61 hlineto
          -16 -8 0 -11 -3 -86 callgsubr
          3 hvcurveto
          endchar
        </CharString>
        <CharString name="adieresis">
          -13 callgsubr
          80 106 hstemhm
          199 45 callgsubr
          87 45 callgsubr
          hintmask 11100100
          -107 callgsubr
          hintmask 00010100
          -41 353 rmoveto
          5 22 rlineto
          34 7 -7 -89 callgsubr
          hintmask 00011001
          -80 callgsubr
          hintmask 00010010
          -75 callgsubr
          endchar
        </CharString>
        <CharString name="adotbelow">
          122 callsubr
          hstemhm
          131 -25 callgsubr
          hintmask 01110000
          -107 callgsubr
          hintmask 10000100
          -97 -409 -59 callgsubr
          endchar
        </CharString>
        <CharString name="ae">
          -45 callgsubr
        </CharString>
        <CharString name="ae.dup">
          -45 callgsubr
        </CharString>
        <CharString name="aeacute">
          96 199 callsubr
          52 47 45 64 -59 59 80 142 callsubr
          hstemhm
          53 97 207 97 128 89 -42 89 hintmask 0001100011000000
          718 276 rmoveto
          10 49 4 55 -19 43 rrcurveto
          58 -27 -63 6 -28 hhcurveto
          -61 -52 -25 -21 -28 hvcurveto
          46 -36 -69 0 -20 hhcurveto
          -65 -42 -15 -15 -36 hvcurveto
          -29 -13 0 -3 -2 -8 -1 -7 -3 -21 -1 -8 rrcurveto
          -23 -3 0 -6 10 hhcurveto
          5 1 1 9 12 hvcurveto
          hintmask 1001010011000000
          46 58 54 4 25 hhcurveto
          23 43 0 -97 -21 hvcurveto
          -13 -65 -54 -2 -208 -6 -29 -135 rlinecurve
          -54 -11 21 -79 91 hhcurveto
          70 84 22 42 48 hvcurveto
          -43 34 50 -21 61 hhcurveto
          89 73 58 17 4 hvcurveto
          hintmask 0110000000100000
          2 8 2 19 9 vvcurveto
          19 2 1 5 -10 hhcurveto
          -5 -4 -3 -5 -5 hvcurveto
          -51 -49 -48 -12 -35 hhcurveto
          -104 25 135 43 8 hvcurveto
          217 hlineto
          hintmask 0010000000010000
          36 11 11 33 7 hvcurveto
          -89 3 rmoveto
          -171 hlineto
          hintmask 0000100000100000
          74 20 44 70 60 hhcurveto
          hintmask 1010000000010000
          73 -17 -95 -49 -9 hvcurveto
          -299 -142 rmoveto
          -58 -20 -60 -25 -40 hhcurveto
          -41 -18 35 36 8 hvcurveto
          18 85 132 7 24 1 rrcurveto
          0 -7 -45 4 -36 vhcurveto
          hintmask 0000001100000000
          293 546 -100 callgsubr
        </CharString>
        <CharString name="agrave">
          -13 callgsubr
          80 142 callsubr
          -106 callgsubr
          hintmask 00011000
          60 301 -72 callsubr
        </CharString>
        <CharString name="ahookabove">
          -13 callgsubr
          44 -21 221 -20 -106 callgsubr
          hintmask 00011000
          107 398 -100 callsubr
        </CharString>
        <CharString name="amacron">
          -13 callgsubr
          97 73 -106 callgsubr
          hintmask 00010000
          177 354 -87 callsubr
        </CharString>
        <CharString name="ampersand">
          127 -19 86 582 64 hstem
          250 95 5 95 16 95 vstem
          668 25 rmoveto
          8 34 rlineto
          16 3 2 10 -11 hhcurveto
          -3 -3 -1 -3 -7 hvcurveto
          -12 -40 -31 -2 -15 hhcurveto
          -14 -29 0 33 -35 hvcurveto
          60 54 36 44 32 45 64 90 35 82 1 4 2 9 -7 2 -3 2 rrcurveto
          2 -9 -45 14 -4 hhcurveto
          -10 -2 -5 -21 -9 hvcurveto
          -44 -95 -64 -99 -81 -69 -38 63 -31 63 -18 59 113 84 72 64 13 65 rrcurveto
          75 16 -36 81 -88 hhcurveto
          -81 -93 -69 -112 -24 hvcurveto
          -10 -49 -6 -70 16 -76 -102 -75 rcurveline
          -20 -15 -44 -42 -13 -61 rrcurveto
          -87 -19 57 -76 100 hhcurveto
          70 64 22 34 63 hvcurveto
          -40 43 49 -16 52 hhcurveto
          23 25 3 6 23 hvcurveto
          41 10 1 1 5 24 rrcurveto
          -207 532 rmoveto
          -12 -59 -44 -43 -60 -48 -4 37 -3 51 12 56 rrcurveto
          59 13 37 39 34 hhcurveto
          38 -5 -64 -28 -6 hvcurveto
          -107 -459 rmoveto
          -29 -59 -52 -2 -13 hhcurveto
          -64 19 92 9 2 hvcurveto
          13 61 30 23 35 24 25 -71 43 -77 21 -30 rrcurveto
          endchar
        </CharString>
        <CharString name="anglearc">
          149 -32 -21 634 -20 hstemhm
          563 70 -62 70 51 70 hintmask 00100000
          692 35 rmoveto
          4 15 -7 12 -12 5 -100 45 rcurveline
          26 49 19 51 11 52 rrcurveto
          hintmask 11011000
          11 52 3 51 -6 49 120 45 rcurveline
          14 5 12 12 3 15 rrcurveto
          19 4 -13 16 -19 hhcurveto
          -5 -4 -1 -2 -4 hvcurveto
          -121 -45 -8 31 -12 29 -16 28 rlinecurve
          8 -5 -9 5 -11 hhcurveto
          -20 -18 -16 -19 -4 hvcurveto
          -2 -8 1 -8 3 -6 14 -22 10 -23 6 -25 -419 -158 rcurveline
          -14 -5 -12 -12 -3 -15 -3 -15 6 -12 12 -5 353 -158 rcurveline
          -18 -25 -19 -23 -23 -22 -6 -6 -4 -8 -2 -8 rrcurveto
          -19 -4 12 -16 20 hhcurveto
          11 11 5 8 7 hvcurveto
          28 28 25 29 21 31 102 -45 rcurveline
          -2 3 4 -1 5 hhcurveto
          19 19 16 19 4 hvcurveto
          -129 229 rmoveto
          -9 -43 -16 -42 -20 -40 -281 125 rcurveline
          334 125 rlineto
          hintmask 00100000
          3 -40 -2 -42 -9 -43 rrcurveto
          endchar
        </CharString>
        <CharString name="angleleft">
          178 callsubr
          276 -185 rmoveto
          4 22 -8 32 -3 23 -12 115 -7 117 -15 114 -1 8 -3 10 2 9 1 4 2 4 3 4 10 21 rcurveline
          197 375 8 13 10 15 3 14 rlinecurve
          20 4 -12 16 -19 hhcurveto
          hintmask 11000000
          -7 -1 -23 -4 -10 -22 -10 -19 rlinecurve
          -215 -408 -5 -10 -7 -11 -3 -11 rlinecurve
          -4 -21 9 -34 2 -27 36 -359 rcurveline
          -24 2 3 -21 25 hhcurveto
          20 19 18 18 4 hvcurveto
          endchar
        </CharString>
        <CharString name="angleright">
          178 callsubr
          320 265 rmoveto
          5 24 -8 38 -4 29 -35 351 rcurveline
          20 -2 -1 24 -26 hhcurveto
          hintmask 11000000
          -8 -1 -17 -3 -15 -15 -4 -16 rlinecurve
          -4 -19 7 -25 2 -19 10 -120 17 -119 8 -120 2 -9 2 -11 -2 -9 -1 -4 -1 -4 -3 -4 -11 -21 rcurveline
          -196 -373 -7 -14 -10 -15 -4 -14 rlinecurve
          -1 -2 rlineto
          -20 -4 12 -15 20 hhcurveto
          2 hlineto
          27 11 26 18 9 hvcurveto
          216 410 5 10 7 11 2 11 rlinecurve
          endchar
        </CharString>
        <CharString name="aogonek">
          -137 -10 64 374 59 hstem
          -18 callgsubr
          endchar
        </CharString>
        <CharString name="aogonekacute">
          -137 -10 64 374 59 80 142 callsubr
          hstemhm
          hintmask 11000000
          -18 callgsubr
          hintmask 00110000
          155 427 -100 callgsubr
        </CharString>
        <CharString name="aring">
          -13 callgsubr
          48 41 66 41 -106 callgsubr
          hintmask 00011000
          51 353 17 callsubr
        </CharString>
        <CharString name="aringacute">
          -13 callgsubr
          48 41 66 41 171 -20 -106 callgsubr
          hintmask 00011100
          51 353 rmoveto
          -31 -6 -24 -2 -24 hhcurveto
          -23 -23 1 32 6 -48 callsubr
          -15 53 callsubr
          15 hvcurveto
          72 223 -99 callsubr
        </CharString>
        <CharString name="asciicircum">
          -34 583 -21 123 59 hstem
          119 566 vstem
          685 584 rmoveto
          -249 160 -317 -160 6 -22 298 123 245 -123 rlineto
          endchar
        </CharString>
        <CharString name="asciitilde">
          -34 207 205 callsubr
          620 304 32 callgsubr
        </CharString>
        <CharString name="asciitilde.low">
          -34 0 205 callsubr
          576 97 32 callgsubr
        </CharString>
        <CharString name="asterisk">
          299 135 callsubr
          hstemhm
          181 84 -79 84 -8 84 1 84 -62 84 -30 84 -79 84 hintmask 0000000010000000
          507 422 rmoveto
          5 24 -16 7 -7 4 -116 57 rcurveline
          140 57 9 4 19 7 5 24 rlinecurve
          23 5 -15 23 -24 hhcurveto
          -13 -6 -5 -9 -11 hvcurveto
          hintmask 0000001000000000
          -113 -92 rlineto
          hintmask 0000000100000000
          54 144 rlineto
          hintmask 0110010000000000
          6 17 1 2 1 4 rrcurveto
          26 5 -23 11 -17 hhcurveto
          -17 -27 -11 -26 -5 hvcurveto
          -1 -4 -1 -2 -17 vvcurveto
          -8 -144 -72 92 rlineto
          10 -8 -6 4 -11 hhcurveto
          hintmask 0001000000000000
          -23 -26 -23 -23 -5 hvcurveto
          -5 -24 15 -7 7 -4 116 -57 rcurveline
          -140 -57 -9 -4 -18 -7 -5 -24 rlinecurve
          hintmask 0010000000000000
          -23 -5 15 -23 24 hhcurveto
          13 6 5 9 11 hvcurveto
          112 92 rlineto
          hintmask 0001000000000000
          -53 -144 rlineto
          hintmask 1000100010000000
          -7 -17 0 -2 -1 -4 rrcurveto
          -26 -6 23 -11 17 hhcurveto
          17 27 11 26 6 hvcurveto
          2 9 6 117 1 41 73 -92 rcurveline
          hintmask 0000001000000000
          -10 8 6 -4 11 hhcurveto
          hintmask 0000000100000000
          23 26 23 23 5 hvcurveto
          endchar
        </CharString>
        <CharString name="asterisk.math">
          51 -21 471 -20 hstemhm
          182 84 -57 84 28 84 hintmask 01011000
          454 174 rmoveto
          4 17 -10 11 -15 7 -22 11 rcurveline
          -30 15 -28 18 -32 11 1 2 rcurveline
          36 11 36 18 36 15 27 11 rcurveline
          18 7 14 11 4 17 rrcurveto
          23 5 -16 24 -24 hhcurveto
          -21 -17 -20 -13 -15 hvcurveto
          -89 -73 22 49 15 51 19 50 rlinecurve
          2 6 2 5 2 6 rrcurveto
          24 5 -19 13 -21 hhcurveto
          -23 -22 -16 -23 -5 hvcurveto
          -2 -11 1 -11 -1 -10 rrcurveto
          -2 -44 -5 -45 -44 vvcurveto
          -57 73 rlineto
          13 -11 -7 20 -21 hhcurveto
          -24 -26 -24 -23 -5 hvcurveto
          -4 -17 10 -11 14 -7 23 -11 rcurveline
          hintmask 00100000
          30 -15 28 -18 32 -11 -1 -2 rcurveline
          -36 -11 -36 -18 -36 -15 -28 -11 rcurveline
          -17 -7 -14 -11 -4 -17 rrcurveto
          -23 -5 16 -24 24 hhcurveto
          21 16 20 13 16 hvcurveto
          89 73 -19 -44 -14 -45 -17 -44 rlinecurve
          hintmask 10010000
          -4 -10 -5 -11 -3 -11 rrcurveto
          -24 -5 16 -14 24 hhcurveto
          21 23 11 25 5 hvcurveto
          4 17 -1 20 1 17 rrcurveto
          2 38 4 38 37 vvcurveto
          57 -73 rlineto
          -13 10 8 -20 21 hhcurveto
          24 26 24 23 5 hvcurveto
          endchar
        </CharString>
        <CharString name="at">
          43 -10 64 66 64 326 64 66 64 hstem
          127 101 59 101 vstem
          658 367 rmoveto
          146 31 30 191 -203 hhcurveto
          -86 -100 -28 -79 -79 hvcurveto
          -80 -81 -31 -105 -13 -64 -16 -73 -10 -89 40 -79 rrcurveto
          -78 37 87 -38 100 hhcurveto
          132 98 86 11 2 hvcurveto
          11 3 74 callsubr
          -43 hlineto
          -40 -67 -62 -4 -23 hhcurveto
          -216 53 245 48 10 hvcurveto
          14 66 25 76 43 53 rrcurveto
          65 53 67 33 72 hhcurveto
          46 26 -32 -43 3 hvcurveto
          2 -5 -24 7 -29 hhcurveto
          -184 -41 -194 -33 -7 hvcurveto
          -6 -25 -16 -76 29 -57 rrcurveto
          -66 34 72 -3 22 hhcurveto
          71 57 34 39 33 hvcurveto
          51 59 12 59 12 56 rrcurveto
          -105 -20 rmoveto
          -160 -34 -68 -3 -15 hhcurveto
          -68 4 91 72 16 hvcurveto
          160 34 67 3 15 hhcurveto
          68 -4 -91 -72 -15 hvcurveto
          endchar
        </CharString>
        <CharString name="atilde">
          -13 callgsubr
          74 64 -9 64 -106 callgsubr
          hintmask 00001000
          175 407 -73 callgsubr
          -6 hvcurveto
          hintmask 00010000
          45 callsubr
          hintmask 00001000
          18 -19 -23 14 -31 hhcurveto
          -62 -47 -62 -40 -8 hvcurveto
          hintmask 00010000
          -17 -4 -64 callgsubr
          hintmask 00001000
          25 callgsubr
          hintmask 00010000
          -42 callsubr
          9 hvcurveto
          endchar
        </CharString>
        <CharString name="b">
          209 callsubr
          279 134 callsubr
          47 223 -80 callsubr
          -19 hlineto
          -35 -12 -9 -36 -8 hvcurveto
          -128 -604 38 callgsubr
        </CharString>
        <CharString name="backslash">
          -90 190 callgsubr
          hstem
          394 -230 rmoveto
          0 1 5 -2 13 vhcurveto
          -140 940 rlineto
          11 -2 -2 11 -14 hhcurveto
          -11 -10 -9 -11 -3 hvcurveto
          0 -1 -5 2 -13 vhcurveto
          141 -940 rlineto
          -11 1 2 -11 14 hhcurveto
          11 11 9 11 2 hvcurveto
          endchar
        </CharString>
        <CharString name="baht">
          45 0 75 254 64 226 75 hstem
          252 116 -86 86 -86 116 cntrmask 00011100
          622 192 rmoveto
          15 73 -21 77 -121 21 87 19 66 54 17 80 18 86 -36 83 -148 8 14 66 rcurveline
          122 callgsubr
          -13 -65 rlineto
          -140 -97 callgsubr
          140 hlineto
          -14 -65 rlineto
          -11 -2 8 -10 12 hhcurveto
          43 hlineto
          12 11 10 11 2 hvcurveto
          14 65 174 1 76 98 20 93 rlinecurve
          -69 322 rmoveto
          -11 -51 -35 -47 -70 -17 45 214 rcurveline
          41 -9 44 -24 -14 -66 rrcurveto
          -203 -121 rmoveto
          -69 hlineto
          48 226 rlineto
          69 hlineto
          110 -425 rmoveto
          -14 -69 -50 -40 -76 -8 53 248 rcurveline
          47 -8 60 -29 -20 -94 rrcurveto
          -226 -119 rmoveto
          -69 hlineto
          54 254 rlineto
          69 hlineto
          endchar
        </CharString>
        <CharString name="bar">
          -312 190 callgsubr
          hstem
          73 40 158 40 vstem
          83 callgsubr
          endchar
        </CharString>
        <CharString name="bigcircle">
          139 callsubr
          566 64 vstem
          -62 callgsubr
          endchar
        </CharString>
        <CharString name="blanksymbol">
          209 callsubr
          149 111 19 134 callsubr
          23 111 87 70 10 8 3 13 -6 9 rlinecurve
          -24 31 -6 8 -13 1 -11 -9 rlinecurve
          -14 -11 rlineto
          25 4 -5 11 -35 hhcurveto
          -19 -68 callgsubr
          -20 -95 -59 -48 -11 -8 -3 -14 6 -8 rlinecurve
          24 -31 3 -6 8 -2 7 2 rlinecurve
          -83 -394 38 callgsubr
        </CharString>
        <CharString name="braceleft">
          -90 -229 -21 487 24 489 -20 hstem
          376 -239 rmoveto
          2 10 -6 0 -9 1 -78 5 -28 45 -1 36 -1 11 1 2 7 35 32 150 rcurveline
          6 30 11 51 10 vvcurveto
          1 66 -58 26 -37 11 125 34 15 71 6 28 39 180 rcurveline
          15 72 5 22 29 25 22 18 28 24 71 4 5 1 5 4 1 6 rrcurveto
          11 2 -8 0 -12 hhcurveto
          -100 -99 -51 -72 -18 hvcurveto
          -39 -183 -20 -94 -3 -16 -32 -28 rlinecurve
          -17 -14 -33 -27 -64 -4 rrcurveto
          -7 -7 -1 -10 -2 hvcurveto
          -2 -10 6 0 10 -1 42 -3 81 -21 -22 -100 -42 -198 rcurveline
          -12 -58 -7 -34 44 -37 rrcurveto
          -30 37 63 -8 31 hhcurveto
          12 8 0 11 2 hvcurveto
          endchar
        </CharString>
        <CharString name="braceright">
          -90 -229 -21 510 -21 511 -20 hstem
          243 67 vstem
          480 250 rmoveto
          2 10 -6 0 -10 1 -42 3 -80 21 21 100 42 198 rcurveline
          12 58 7 34 -44 37 rrcurveto
          29 -36 -63 9 -32 hhcurveto
          -10 -10 0 -11 -2 hvcurveto
          -2 -10 6 0 10 -1 78 -5 27 -45 1 -36 1 -11 0 -2 -8 -35 -32 -150 rcurveline
          -6 -30 -11 -51 -10 vvcurveto
          -1 -66 58 -26 37 -11 -125 -34 -15 -71 -6 -28 -38 -180 rcurveline
          -16 -72 -4 -22 -30 -25 -22 -18 -28 -24 -70 -4 -6 -1 -5 -4 -1 -6 rrcurveto
          -11 -2 10 0 10 hhcurveto
          100 100 51 72 17 hvcurveto
          39 183 20 94 3 16 32 28 rlinecurve
          17 14 33 27 64 4 rrcurveto
          7 7 1 10 2 hvcurveto
          endchar
        </CharString>
        <CharString name="bracketleft">
          -297 -222 64 844 64 hstem
          75 105 101 105 vstem
          231 -190 rmoveto
          32 6 95 callsubr
          -44 hlineto
          180 844 rlineto
          44 -10 callgsubr
          -105 hlineto
          -35 -11 -10 -34 -7 hvcurveto
          -188 -884 -56 callgsubr
          105 60 callsubr
        </CharString>
        <CharString name="bracketright">
          -297 -222 64 844 64 hstem
          18 105 101 105 vstem
          176 -178 rmoveto
          188 884 -26 callgsubr
          -105 hlineto
          -13 -31 0 -32 -6 40 callgsubr
          44 hlineto
          -180 -844 rlineto
          -44 hlineto
          -13 -31 0 -32 -6 40 callgsubr
          105 -104 callsubr
          endchar
        </CharString>
        <CharString name="breve">
          551 80 59 54 callgsubr
          endchar
        </CharString>
        <CharString name="breve.cap">
          531 80 59 -20 hstem
          13 callgsubr
          endchar
        </CharString>
        <CharString name="breve.ts1">
          -9 556 80 58 204 callsubr
          hintmask 10100000
          647 659 rmoveto
          17 4 -4 19 -24 hhcurveto
          -12 -14 -7 -12 -7 hvcurveto
          -22 -14 1 -18 -131 hhcurveto
          -56 hlineto
          -37 -63 1 20 -10 hvcurveto
          -3 6 2 7 -1 6 rrcurveto
          11 -2 -10 8 -12 hhcurveto
          hintmask 11000000
          -6 -1 -20 -3 -12 -16 -3 -17 rlinecurve
          -92 -20 111 -10 76 hhcurveto
          54 hlineto
          76 117 9 94 20 hvcurveto
          endchar
        </CharString>
        <CharString name="brokenbar">
          -312 190 callgsubr
          hstemhm
          73 40 39 40 0 40 39 40 hintmask 01001100
          232 343 rmoveto
          79 374 96 callgsubr
          -79 -374 rlineto
          -20 -4 -3 -23 18 hhcurveto
          18 7 23 20 4 hvcurveto
          -119 -560 rmoveto
          79 374 rlineto
          20 5 3 23 -18 hhcurveto
          hintmask 10110000
          -18 -7 -23 -20 -5 hvcurveto
          -79 -374 96 callsubr
          endchar
        </CharString>
        <CharString name="bullet">
          149 99 338 hstemhm
          239 338 -302 338 hintmask 10100000
          124 callgsubr
          hintmask 11000000
          147 callgsubr
          endchar
        </CharString>
        <CharString name="c">
          -168 -10 70 357 70 hstem
          -79 callgsubr
          endchar
        </CharString>
        <CharString name="cacute">
          -168 -10 70 357 70 80 142 callsubr
          hstemhm
          hintmask 11000000
          -79 callgsubr
          hintmask 00110000
          104 621 -100 callgsubr
        </CharString>
        <CharString name="caron">
          150 callgsubr
          544 682 -90 callgsubr
        </CharString>
        <CharString name="caron.cap">
          542 -21 127 -20 hstem
          543 628 -93 callgsubr
        </CharString>
        <CharString name="caron.ts1">
          -9 531 -21 204 -20 hstem
          586 700 rmoveto
          3 vlineto
          6 2 -4 5 -7 hhcurveto
          -37 hlineto
          -18 -34 -44 -23 -22 hvcurveto
          -15 -15 -28 -31 -5 hhcurveto
          -1 hlineto
          -3 1 -2 4 -2 3 -12 23 rcurveline
          -32 57 rlineto
          11 -7 -1 14 -18 hhcurveto
          -29 hlineto
          -4 -3 0 -1 -3 hvcurveto
          -6 -2 -2 -3 -4 vvcurveto
          -4 -15 17 -34 7 -20 38 -111 rcurveline
          -8 3 1 -6 12 hhcurveto
          59 hlineto
          12 6 3 11 7 hvcurveto
          112 145 7 10 11 10 5 11 rlinecurve
          endchar
        </CharString>
        <CharString name="ccaron">
          -168 -10 70 357 70 73 185 callsubr
          hstemhm
          hintmask 11000000
          -79 callgsubr
          hintmask 00110000
          131 620 -90 callgsubr
        </CharString>
        <CharString name="ccedilla">
          -168 -10 70 357 70 hstem
          -79 callgsubr
          -130 -113 rmoveto
          11 2 149 callsubr
          -1 -20 callsubr
        </CharString>
        <CharString name="ccircumflex">
          -168 -10 70 357 70 73 185 callsubr
          hstemhm
          hintmask 11000000
          -79 callgsubr
          hintmask 00110000
          105 498 -98 callsubr
          endchar
        </CharString>
        <CharString name="cdotaccent">
          -168 -10 70 357 70 74 118 hstemhm
          299 43 callgsubr
          hintmask 11000000
          -79 callgsubr
          hintmask 00101000
          14 546 rmoveto
          161 callgsubr
          hintmask 00110000
          -5 -24 rlineto
          -36 -7 6 -26 callsubr
          endchar
        </CharString>
        <CharString name="cedilla">
          -168 -144 -21 144 -20 hstem
          261 -32 rmoveto
          11 3 149 callsubr
          -2 -20 callsubr
        </CharString>
        <CharString name="cedilla.dup">
          -168 -144 -21 144 -20 hstem
          261 -32 rmoveto
          11 3 149 callsubr
          -2 -20 callsubr
        </CharString>
        <CharString name="cent">
          -168 82 111 -18 86 -73 86 -69 86 12 86 hintmask 10011000
          408 62 rmoveto
          2 7 2 21 1 8 rrcurveto
          23 3 0 5 -10 hhcurveto
          -5 -2 -1 -8 -8 hvcurveto
          -13 -11 -35 -32 -54 -10 74 351 rcurveline
          33 -5 17 -13 21 -19 rrcurveto
          -9 7 152 callgsubr
          2 5 23 9 hvcurveto
          2 5 13 29 3 vvcurveto
          2 9 -3 1 -12 8 -27 19 -22 11 -41 4 11 51 rcurveline
          122 callgsubr
          -12 -55 -107 -21 -73 -88 -29 -136 rlinecurve
          -6 -31 -19 -87 39 -65 rrcurveto
          hintmask 00100000
          21 -33 35 -18 36 -8 rrcurveto
          hintmask 01000000
          -13 -60 rlineto
          hintmask 10000000
          -11 -2 8 -10 12 hhcurveto
          43 hlineto
          hintmask 01000000
          12 11 10 11 2 hvcurveto
          hintmask 00100000
          13 58 18 3 22 5 23 10 rlinecurve
          0 67 30 4 21 vhcurveto
          -203 14 rmoveto
          -38 36 18 85 9 41 11 56 19 74 50 33 rrcurveto
          hintmask 00010000
          endchar
        </CharString>
        <CharString name="cent.oldstyle">
          -168 -10 70 -68 70 355 70 hstemhm
          96 86 71 111 -56 86 -52 111 hintmask 10001000
          408 62 rmoveto
          2 7 2 21 1 8 rrcurveto
          23 3 0 5 -10 hhcurveto
          -5 -2 -1 -8 -8 hvcurveto
          -13 -16 -48 -44 -74 hhcurveto
          hintmask 01000100
          -7 -6 1 1 -6 hvcurveto
          160 345 15 -7 12 -9 13 -13 rlinecurve
          -9 7 152 callgsubr
          2 5 23 9 hvcurveto
          2 5 13 29 3 vvcurveto
          2 9 -3 1 -12 8 -15 10 -13 8 -16 6 rrcurveto
          hintmask 00000010
          29 62 rlineto
          10 4 -5 10 -11 hhcurveto
          -45 hlineto
          hintmask 00001000
          -13 -13 -8 -12 -6 hvcurveto
          hintmask 01110010
          -22 -51 -137 -2 -89 -92 -34 -156 rlinecurve
          -6 -31 -19 -87 39 -65 9 -13 10 -11 12 -9 -39 -86 rcurveline
          -11 -5 6 -10 11 hhcurveto
          46 hlineto
          12 13 9 12 5 hvcurveto
          26 57 rlineto
          hintmask 10000000
          -1 12 11 -1 11 hhcurveto
          18 39 2 19 44 hvcurveto
          hintmask 01010100
          0 67 30 4 21 vhcurveto
          -100 353 rmoveto
          -126 -275 -2 35 8 39 6 24 rlinecurve
          14 67 24 93 76 17 rrcurveto
          endchar
        </CharString>
        <CharString name="centigrade">
          228 -18 86 -40 85 515 85 -85 86 hstemhm
          241 122 391 122 -97 122 hintmask 01000010
          781 51 rmoveto
          29 6 8 43 -16 hhcurveto
          -7 -9 -7 -3 -6 hvcurveto
          hintmask 10100100
          -33 -52 -49 -12 -60 hhcurveto
          -146 -21 135 162 35 hvcurveto
          106 22 71 157 156 hhcurveto
          52 44 -14 -30 35 hvcurveto
          -3 3 6 -3 5 hhcurveto
          11 3 15 8 4 hvcurveto
          20 54 rlineto
          hintmask 00100010
          2 4 2 3 1 4 5 26 -98 18 -46 3 rrcurveto
          hintmask 10011000
          1 -12 -12 0 -12 hhcurveto
          -15 hlineto
          -67 -7 -65 -14 -62 -43 -103 -70 -52 -117 -23 -109 -20 -96 -6 -106 50 -76 44 -67 84 -26 85 -1 rrcurveto
          hintmask 01001100
          61 55 9 37 62 hvcurveto
          9 5 15 6 3 12 rrcurveto
          -444 539 rmoveto
          63 14 -37 43 -61 -4 -4 -1 -4 hhcurveto
          -58 -7 -45 -40 -13 -58 rrcurveto
          -62 -13 34 -45 63 hhcurveto
          60 55 44 63 13 hvcurveto
          -71 -2 rmoveto
          -22 -5 -16 -12 -22 hhcurveto
          -20 -9 9 19 1 hvcurveto
          3 0 3 1 3 vhcurveto
          21 4 16 13 23 hhcurveto
          22 10 -12 -25 -5 hvcurveto
          endchar
        </CharString>
        <CharString name="circumflex">
          150 callgsubr
          518 560 -98 callsubr
          endchar
        </CharString>
        <CharString name="circumflex.cap">
          542 -21 127 -20 hstem
          525 543 -84 callsubr
        </CharString>
        <CharString name="circumflex.dup">
          150 callgsubr
          518 560 -98 callsubr
          endchar
        </CharString>
        <CharString name="colon">
          -326 0 106 260 189 callgsubr
          -40 106 -94 106 hintmask 01000100
          135 callgsubr
          hintmask 01001000
          136 callgsubr
          hintmask 10010000
          41 callsubr
          hintmask 10100000
          94 callgsubr
        </CharString>
        <CharString name="colonmonetary">
          17 -19 86 560 86 hstemhm
          127 122 19 86 67 122 -82 86 0 86 -86 122 hintmask 11000010
          121 callgsubr
          -35 -13 -69 hhcurveto
          119 560 62 -1 35 -21 26 -21 rlinecurve
          -7 8 152 callgsubr
          4 9 5 2 hvcurveto
          5 13 21 51 2 10 rrcurveto
          hintmask 01000001
          2 10 -3 1 -19 9 -41 16 -40 11 -59 1 18 89 rcurveline
          12 3 -8 9 -12 hhcurveto
          -43 hlineto
          hintmask 10110100
          -12 -11 -9 -12 -3 hvcurveto
          -20 -97 -67 -13 -65 -31 -54 -55 rlinecurve
          176 callsubr
          32 -44 45 -28 59 -13 -21 -97 rcurveline
          -11 -2 7 -10 12 hhcurveto
          43 hlineto
          12 12 10 11 2 hvcurveto
          19 89 rlineto
          hintmask 00101000
          67 40 11 35 63 hvcurveto
          24 15 1 1 2 8 rrcurveto
          -261 33 rmoveto
          -92 47 14 134 18 82 8 41 36 169 128 54 rrcurveto
          endchar
        </CharString>
        <CharString name="comma">
          -326 -90 -21 111 189 callgsubr
          hintmask 01010000
          136 callsubr
          hintmask 11100000
          76 callgsubr
        </CharString>
        <CharString name="copyleft">
          139 callsubr
          130 64 372 64 vstem
          -62 callgsubr
          -108 hmoveto
          9 42 9 66 -30 50 rrcurveto
          48 -25 -53 18 -57 hhcurveto
          -39 -28 -7 -10 -29 hvcurveto
          -15 -6 -3 0 -1 -6 rrcurveto
          -1 -7 -1 -31 -8 vvcurveto
          -3 1 0 -5 6 hhcurveto
          0 3 0 6 4 vhcurveto
          13 22 27 13 40 hhcurveto
          120 -30 -141 -30 -6 hvcurveto
          -61 -13 -37 -110 -109 hhcurveto
          -43 -18 8 21 -24 hvcurveto
          5 -6 -1 0 -2 hhcurveto
          -5 -2 -5 -2 -2 hvcurveto
          -1 -4 -9 -28 -1 -5 -1 -5 0 0 11 -9 rrcurveto
          -22 30 22 -6 42 hhcurveto
          61 51 18 38 44 hvcurveto
          54 47 24 73 10 47 rrcurveto
          endchar
        </CharString>
        <CharString name="copyright">
          139 callsubr
          362 64 140 64 vstem
          -62 callgsubr
          -187 -181 rmoveto
          1 5 3 28 4 vvcurveto
          3 1 4 -6 -2 -1 0 -5 -8 vhcurveto
          -21 -34 -22 -8 -43 hhcurveto
          -109 11 110 61 13 hvcurveto
          30 6 30 141 121 hhcurveto
          39 22 -13 -13 17 hvcurveto
          -4 5 1 0 2 hhcurveto
          5 2 5 3 1 hvcurveto
          4 8 13 31 1 6 1 6 -2 1 -11 6 rrcurveto
          10 -26 -26 7 -38 hhcurveto
          -57 -60 -19 -47 -47 hvcurveto
          -49 -50 -19 -66 -9 -42 -10 -47 -8 -72 33 -47 rrcurveto
          -39 28 44 -18 60 hhcurveto
          43 25 6 22 38 hvcurveto
          15 9 1 1 1 4 rrcurveto
          endchar
        </CharString>
        <CharString name="copyright.alt">
          165 -141 64 0 64 415 64 84 64 hstemhm
          50 64 126 83 187 83 148 64 hintmask 10111111
          805 236 rmoveto
          232 49 -114 146 -231 hhcurveto
          -232 -178 -146 -232 -49 hvcurveto
          -232 -49 115 -145 232 hhcurveto
          231 177 145 232 49 hvcurveto
          -64 hmoveto
          -192 -41 -146 -121 -192 hhcurveto
          -193 -96 121 192 41 hvcurveto
          192 41 147 122 193 hhcurveto
          192 95 -122 -192 -41 hvcurveto
          -200 -201 rmoveto
          1 4 4 32 4 vvcurveto
          3 1 0 6 -6 hhcurveto
          -2 -2 0 -6 -9 hvcurveto
          -24 -38 -23 -8 -48 hhcurveto
          -121 10 121 69 15 hvcurveto
          33 7 34 157 134 hhcurveto
          44 25 -14 -15 17 hvcurveto
          -5 6 1 0 2 hhcurveto
          6 3 6 4 1 hvcurveto
          4 9 15 34 1 7 2 7 -3 1 -13 6 rrcurveto
          11 -29 -28 8 -42 hhcurveto
          -64 -66 -21 -52 -52 hvcurveto
          -56 -56 -22 -74 -10 -46 -11 -53 -8 -80 37 -53 rrcurveto
          hintmask 01000000
          -43 31 49 -20 67 hhcurveto
          48 27 7 24 43 hvcurveto
          17 11 0 0 1 6 rrcurveto
          endchar
        </CharString>
        <CharString name="currency">
          149 46 70 -67 -20 383 70 18 -21 hstemhm
          208 70 295 70 hintmask 00010100
          602 40 rmoveto
          30 25 -20 24 -6 9 -31 38 rcurveline
          34 36 24 44 10 48 10 48 -5 44 -19 36 46 37 rcurveline
          10 9 30 25 -19 24 -19 25 -30 -25 -11 -8 -46 -38 rcurveline
          hintmask 01101000
          26 -30 -41 15 -48 hhcurveto
          -47 -47 -16 -25 -41 hvcurveto
          -31 39 -7 8 -19 25 -30 -25 rlinecurve
          -31 -25 20 -24 6 -9 32 -39 rcurveline
          -34 -36 -24 -44 -10 -47 -10 -47 6 -44 18 -36 -47 -38 rcurveline
          -10 -9 -30 -25 20 -24 18 -25 31 25 10 8 46 38 rcurveline
          hintmask 10101100
          -25 31 41 -16 47 hhcurveto
          48 47 15 26 40 hvcurveto
          31 -39 8 -8 18 -25 31 25 rlinecurve
          -29 224 rmoveto
          -82 -17 -80 -66 -82 hhcurveto
          -81 -52 66 82 17 hvcurveto
          82 18 80 66 81 hhcurveto
          82 52 -66 -82 -18 hvcurveto
          endchar
        </CharString>
        <CharString name="cwm">
          -590 endchar
        </CharString>
        <CharString name="cwmascender">
          -590 endchar
        </CharString>
        <CharString name="cwmcapital">
          -590 endchar
        </CharString>
        <CharString name="d">
          -107 -10 151 callsubr
          208 callsubr
          hintmask 11110100
          -24 callsubr
          hintmask 00001000
          129 callgsubr
          hintmask 00000100
          35 11 -81 callgsubr
          -99 57 rmoveto
          hintmask 11011000
          23 callgsubr
          endchar
        </CharString>
        <CharString name="dagger">
          -79 388 111 203 -20 hstemhm
          249 111 -23 111 -87 111 hintmask 11010000
          541 443 181 callgsubr
          -36 -16 -10 -2 -13 -3 9 28 11 23 15 27 19 36 19 37 7 33 rrcurveto
          49 10 -35 10 -18 hhcurveto
          -22 -37 -13 -46 -9 hvcurveto
          -7 -33 3 -36 3 -32 3 -33 2 -23 -2 -27 -10 2 -10 3 -17 9 rrcurveto
          12 -22 -26 14 -27 hhcurveto
          -41 -22 -30 -25 -6 hvcurveto
          -29 -6 14 -27 37 hhcurveto
          21 26 9 10 23 hvcurveto
          36 16 9 2 14 3 -9 -27 -16 -28 -11 -20 rrcurveto
          hintmask 10101000
          -35 -64 -3 -15 -9 -43 -27 -129 -18 -130 -11 -128 -2 -16 -2 -28 3 -4 rrcurveto
          -7 1 8 0 9 hhcurveto
          11 10 0 11 5 hvcurveto
          5 12 74 208 45 211 10 46 2 12 -8 70 -2 21 -3 25 2 23 10 -2 10 -3 17 -9 rrcurveto
          -12 21 26 -14 27 hhcurveto
          41 23 30 25 5 hvcurveto
          endchar
        </CharString>
</ttFont>
